<?xml version="1.0" encoding="UTF-8"?>
<!DOCTYPE svg PUBLIC "-//W3C//DTD SVG 1.1//EN" "http://www.w3.org/Graphics/SVG/1.1/DTD/svg11.dtd">
<svg version="1.1" xmlns="http://www.w3.org/2000/svg" xmlns:xlink="http://www.w3.org/1999/xlink" x="0" y="0" width="425.197" height="425.197" viewBox="0, 0, 425.197, 425.197">
  <defs>
    <linearGradient id="Gradient_1" gradientUnits="userSpaceOnUse" x1="91.582" y1="287.156" x2="124.129" y2="287.156" gradientTransform="matrix(1, 0, 0, -1, 136, 467.77)">
      <stop offset="1" stop-color="#00AEEF"/>
      <stop offset="1" stop-color="#004968"/>
    </linearGradient>
  </defs>
  <g id="Legend"/>
  <g id="Structure"/>
  <g id="Inner_arrows">
    <g id="little_arrows">
      <g id="down_arrow">
        <g>
          <path d="M213.469,274.259 L213.379,308.18" fill-opacity="0" stroke="#47CCCC" stroke-width="4.242"/>
          <path d="M208.434,308.167 L213.345,321.368 L218.325,308.193 z" fill="#47CCCC" fill-opacity="1" stroke="#47CCCC" stroke-width="4.242" stroke-opacity="1"/>
        </g>
        <path d="M213.603,274.142 L213.335,310.002" fill-opacity="0" stroke="#47CCCC" stroke-width="8.485"/>
      </g>
      <g>
        <g id="leftout_arrow">
          <g>
            <path d="M155.55,222.269 L117.949,222.269" fill-opacity="0" stroke="#47CCCC" stroke-width="4.242"/>
            <path d="M117.949,217.324 L104.761,222.269 L117.949,227.215 z" fill="#47CCCC" fill-opacity="1" stroke="#47CCCC" stroke-width="4.242" stroke-opacity="1"/>
          </g>
          <path d="M155.457,222.178 L118.26,222.269" fill-opacity="0" stroke="#47CCCC" stroke-width="8.485"/>
        </g>
        <g id="leftout_arrow">
          <g>
            <path d="M97.513,202.545 L128.277,202.545" fill-opacity="0" stroke="#47CCCC" stroke-width="4.242"/>
            <path d="M128.277,207.49 L141.464,202.545 L128.277,197.6 z" fill="#47CCCC" fill-opacity="1" stroke="#47CCCC" stroke-width="4.242" stroke-opacity="1"/>
          </g>
          <path d="M97.513,202.814 L133.256,202.545" fill-opacity="0" stroke="#47CCCC" stroke-width="8.485"/>
        </g>
      </g>
      <g>
        <g id="leftout_arrow">
          <g>
            <path d="M339.711,222.253 L300.26,222.253" fill-opacity="0" stroke="#47CCCC" stroke-width="4.242"/>
            <path d="M300.26,217.308 L287.072,222.253 L300.26,227.199 z" fill="#47CCCC" fill-opacity="1" stroke="#47CCCC" stroke-width="4.242" stroke-opacity="1"/>
          </g>
          <path d="M339.711,222.253 L298.359,222.253" fill-opacity="0" stroke="#47CCCC" stroke-width="8.485"/>
        </g>
        <g id="leftout_arrow">
          <g>
            <path d="M276.659,202.529 L308.587,202.529" fill-opacity="0" stroke="#47CCCC" stroke-width="4.242"/>
            <path d="M308.587,207.475 L321.775,202.529 L308.587,197.584 z" fill="#47CCCC" fill-opacity="1" stroke="#47CCCC" stroke-width="4.242" stroke-opacity="1"/>
          </g>
          <path d="M276.649,202.529 L312.403,202.529" fill-opacity="0" stroke="#47CCCC" stroke-width="8.485"/>
        </g>
      </g>
      <g>
        <g id="leftout_arrow">
          <g>
            <path d="M203.661,150.625 L203.661,117.54" fill-opacity="0" stroke="#47CCCC" stroke-width="4.242"/>
            <path d="M208.606,117.54 L203.661,104.352 L198.715,117.54 z" fill="#47CCCC" fill-opacity="1" stroke="#47CCCC" stroke-width="4.242" stroke-opacity="1"/>
          </g>
          <path d="M203.392,150.625 L203.661,113.539" fill-opacity="0" stroke="#47CCCC" stroke-width="8.485"/>
        </g>
        <g id="leftout_arrow">
          <g>
            <path d="M223.385,92.014 L223.385,127.055" fill-opacity="0" stroke="#47CCCC" stroke-width="4.242"/>
            <path d="M218.439,127.055 L223.385,140.243 L228.33,127.055 z" fill="#47CCCC" fill-opacity="1" stroke="#47CCCC" stroke-width="4.242" stroke-opacity="1"/>
          </g>
          <path d="M223.116,92.014 L223.385,129.099" fill-opacity="0" stroke="#47CCCC" stroke-width="8.485"/>
        </g>
      </g>
    </g>
    <g>
      <path d="M217.514,383.205 C153.733,384.409 98.511,352.34 67.879,301.967" fill-opacity="0" stroke="#3397A7" stroke-width="12"/>
      <path d="M76.543,297.833 L56.854,278.863 L59.215,306.102 z" fill="#3397A7" fill-opacity="1" stroke="#3397A7" stroke-width="12" stroke-opacity="1"/>
    </g>
    <g>
      <path d="M42.622,210.83 C44.477,150.218 75.323,97.407 124.79,68.006" fill-opacity="0" stroke="#3397A7" stroke-width="12"/>
      <path d="M128.824,76.717 L148.019,57.247 L120.755,59.295 z" fill="#3397A7" fill-opacity="1" stroke="#3397A7" stroke-width="12" stroke-opacity="1"/>
    </g>
    <g>
      <path d="M213.314,43.405 C269.033,43.146 326.329,72.151 357.856,124.712" fill-opacity="0" stroke="#3397A7" stroke-width="12"/>
      <path d="M349.153,128.762 L368.658,147.921 L366.56,120.661 z" fill="#3397A7" fill-opacity="1" stroke="#3397A7" stroke-width="12" stroke-opacity="1"/>
    </g>
  </g>
  <g id="Inner_circle">
    <g id="registries">
      <path d="M214.211,279.093 C177.764,279.093 148.218,249.547 148.218,213.1 C148.218,176.652 177.764,147.106 214.211,147.106 C250.658,147.106 280.204,176.652 280.204,213.1 C280.204,249.547 250.658,279.093 214.211,279.093 z" fill="#FFFFFF"/>
      <path d="M214.211,279.093 C177.764,279.093 148.218,249.547 148.218,213.1 C148.218,176.652 177.764,147.106 214.211,147.106 C250.658,147.106 280.204,176.652 280.204,213.1 C280.204,249.547 250.658,279.093 214.211,279.093 z" fill-opacity="0" stroke="#000000" stroke-width="2.828"/>
    </g>
    <g id="logos">
      <g id="ROR">
        <g>
          <path d="M240.942,233.355 L238.47,237.141 L235.996,233.355 L240.942,233.355 z" fill="#53BAA1"/>
          <path d="M251.288,233.355 L248.815,237.141 L246.341,233.355 L251.288,233.355 z" fill="#53BAA1"/>
          <path d="M235.996,256.04 L238.47,252.251 L240.942,256.04 L235.996,256.04 z" fill="#53BAA1"/>
          <path d="M246.341,256.04 L248.815,252.251 L251.288,256.04 L246.341,256.04 z" fill="#53BAA1"/>
          <path d="M256.611,245.491 C257.487,245.328 258.154,244.939 258.608,244.325 C259.065,243.712 259.291,242.966 259.291,242.092 C259.291,241.366 259.165,240.763 258.914,240.278 C258.663,239.793 258.323,239.408 257.897,239.12 C257.471,238.835 256.974,238.629 256.407,238.507 C255.841,238.384 255.241,238.323 254.612,238.323 L249.81,238.323 L249.81,242.161 C249.771,242.049 249.731,241.939 249.686,241.829 C249.353,241.024 248.889,240.337 248.292,239.77 C247.695,239.204 246.989,238.768 246.17,238.464 C245.353,238.16 244.458,238.007 243.488,238.007 C242.518,238.007 241.625,238.16 240.806,238.464 C239.989,238.768 239.281,239.204 238.684,239.77 C238.15,240.278 237.722,240.883 237.4,241.584 C237.353,241.081 237.235,240.645 237.046,240.278 C236.795,239.793 236.455,239.408 236.029,239.12 C235.603,238.835 235.105,238.629 234.539,238.507 C233.972,238.384 233.373,238.323 232.743,238.323 L227.944,238.323 L227.944,250.731 L230.677,250.731 L230.677,245.77 L232.026,245.77 L234.62,250.731 L237.898,250.731 L234.745,245.491 C235.621,245.328 236.287,244.939 236.742,244.325 C236.762,244.297 236.781,244.266 236.801,244.238 C236.797,244.334 236.795,244.429 236.795,244.527 C236.795,245.52 236.962,246.421 237.294,247.226 C237.626,248.031 238.091,248.717 238.688,249.284 C239.283,249.851 239.991,250.287 240.81,250.59 C241.627,250.894 242.522,251.047 243.492,251.047 C244.462,251.047 245.355,250.894 246.174,250.59 C246.991,250.287 247.699,249.851 248.296,249.284 C248.891,248.717 249.356,248.031 249.69,247.226 C249.735,247.118 249.775,247.005 249.814,246.893 L249.814,250.731 L252.547,250.731 L252.547,245.77 L253.896,245.77 L256.491,250.731 L259.768,250.731 L256.611,245.491 z M234.368,242.862 C234.221,243.05 234.037,243.186 233.815,243.274 C233.593,243.361 233.344,243.414 233.071,243.431 C232.796,243.449 232.537,243.457 232.291,243.457 L230.679,243.457 L230.679,240.637 L232.466,240.637 C232.711,240.637 232.963,240.655 233.22,240.69 C233.477,240.724 233.705,240.791 233.903,240.891 C234.101,240.991 234.266,241.134 234.394,241.321 C234.522,241.509 234.588,241.76 234.588,242.075 C234.588,242.412 234.514,242.675 234.368,242.862 z M247.075,246.131 C246.894,246.616 246.635,247.036 246.294,247.393 C245.956,247.749 245.55,248.027 245.076,248.226 C244.603,248.426 244.073,248.524 243.49,248.524 C242.905,248.524 242.377,248.424 241.904,248.226 C241.432,248.029 241.026,247.749 240.686,247.393 C240.347,247.036 240.086,246.616 239.905,246.131 C239.724,245.646 239.634,245.112 239.634,244.527 C239.634,243.954 239.724,243.423 239.905,242.931 C240.086,242.44 240.345,242.018 240.686,241.662 C241.024,241.305 241.429,241.028 241.904,240.828 C242.377,240.63 242.905,240.531 243.49,240.531 C244.075,240.531 244.603,240.63 245.076,240.828 C245.548,241.026 245.954,241.305 246.294,241.662 C246.633,242.018 246.894,242.442 247.075,242.931 C247.256,243.423 247.346,243.954 247.346,244.527 C247.346,245.112 247.256,245.646 247.075,246.131 z M256.234,242.862 C256.087,243.05 255.904,243.186 255.682,243.274 C255.46,243.361 255.211,243.414 254.938,243.431 C254.663,243.449 254.404,243.457 254.157,243.457 L252.545,243.457 L252.545,240.637 L254.332,240.637 C254.577,240.637 254.83,240.655 255.087,240.69 C255.343,240.724 255.572,240.791 255.769,240.891 C255.967,240.991 256.132,241.134 256.26,241.321 C256.389,241.509 256.454,241.76 256.454,242.075 C256.454,242.412 256.381,242.675 256.234,242.862 z" fill="#202826"/>
        </g>
      </g>
      <g id="datacite">
        <path d="M227.582,187.094 C227.804,187.138 228.026,187.182 228.292,187.227 C240.092,189.578 257.66,186.473 259.922,180.75 C261.697,176.136 251.804,172.853 240.225,173.253 C240.004,173.253 239.782,173.253 239.56,173.297 C245.726,173.918 251.272,176.358 249.054,180.173 C246.614,184.343 236.322,187.138 227.582,187.094" fill="url(#Gradient_1)"/>
        <path d="M253.401,187.049 C251.36,199.471 240.625,192.062 238.096,183.412 C234.414,174.45 237.697,162.916 246.88,169.659 C239.294,166.199 238.495,176.269 241.734,183.456 C244.44,189.445 250.296,193.304 253.135,187.138 C253.268,187.094 253.357,187.094 253.401,187.049 z" fill="#444444"/>
      </g>
      <g id="RAiD">
        <path d="M194.827,202.834 L234.565,202.834 C235.026,202.834 235.4,203.217 235.4,203.689 L235.4,222.217 C235.4,222.689 235.026,223.072 234.565,223.072 L194.827,223.072 C194.366,223.072 193.992,222.689 193.992,222.217 L193.992,203.689 C193.992,203.217 194.366,202.834 194.827,202.834 z" fill="#1689C7"/>
        <g>
          <g>
            <path d="M217.74,204.013 L232.425,204.013 C233.333,204.013 234.07,204.764 234.07,205.69 L234.07,220.189 C234.07,221.115 233.333,221.865 232.425,221.865 L217.74,221.865 C216.831,221.865 216.095,221.115 216.095,220.189 L216.095,205.69 C216.095,204.764 216.831,204.013 217.74,204.013 z" fill="#FFFFFF"/>
            <path d="M218.24,204.513 L232.925,204.513 C233.833,204.513 234.57,205.264 234.57,206.19 L234.57,220.689 C234.57,221.615 233.833,222.365 232.925,222.365 L218.24,222.365 C217.331,222.365 216.595,221.615 216.595,220.689 L216.595,206.19 C216.595,205.264 217.331,204.513 218.24,204.513 z" fill-opacity="0" stroke="#FFFFFF" stroke-width="1.414"/>
          </g>
          <g>
            <path d="M217.815,204.992 L232.275,204.992 C232.726,204.992 233.091,205.361 233.091,205.815 L233.091,220.286 C233.091,220.74 232.726,221.108 232.275,221.108 L217.815,221.108 C217.365,221.108 217,220.74 217,220.286 L217,205.815 C217,205.361 217.365,204.992 217.815,204.992 z" fill="#1689C7"/>
            <path d="M218.315,205.492 L232.775,205.492 C233.226,205.492 233.591,205.861 233.591,206.315 L233.591,220.786 C233.591,221.24 233.226,221.608 232.775,221.608 L218.315,221.608 C217.865,221.608 217.5,221.24 217.5,220.786 L217.5,206.315 C217.5,205.861 217.865,205.492 218.315,205.492 z" fill-opacity="0" stroke="#1689C7" stroke-width="1.414"/>
          </g>
          <path d="M218.875,218.821 L218.686,218.772 L218.661,214.757 C218.653,211.853 218.67,210.702 218.735,210.628 C218.851,210.48 219.805,210.471 219.945,210.611 C220.06,210.726 220.085,218.542 219.978,218.723 C219.904,218.83 219.196,218.895 218.875,218.821 z" fill="#FFFFFF"/>
          <path d="M223.252,218.764 C222.923,218.649 222.923,218.657 222.923,213.129 L222.923,207.798 L223.129,207.666 C223.318,207.543 223.565,207.534 225.374,207.576 C227.48,207.625 227.859,207.683 228.805,208.086 C230.113,208.645 231.15,210.068 231.437,211.697 C231.511,212.117 231.511,214.001 231.437,214.42 C231.232,215.597 230.763,216.641 230.146,217.308 C229.8,217.686 228.953,218.213 228.344,218.443 C227.67,218.69 226.436,218.821 224.864,218.813 C224.042,218.813 223.318,218.789 223.252,218.764 z M227.118,217.472 C227.9,217.3 228.394,217.053 228.83,216.6 C229.66,215.753 229.94,214.873 229.948,213.145 C229.948,212.1 229.924,211.878 229.759,211.376 C229.348,210.159 228.706,209.468 227.596,209.023 C227.234,208.875 226.929,208.842 225.745,208.81 L224.321,208.76 L224.321,213.12 C224.321,215.514 224.346,217.505 224.379,217.53 C224.478,217.637 226.575,217.587 227.118,217.472 z" fill="#FFFFFF"/>
          <path d="M219.056,208.933 C218.587,208.851 218.48,208.703 218.48,208.11 C218.48,207.444 218.629,207.304 219.336,207.304 C219.813,207.304 219.887,207.329 220.035,207.518 C220.257,207.798 220.274,208.439 220.068,208.694 C219.871,208.925 219.509,209.015 219.056,208.933 z" fill="#FFFFFF"/>
        </g>
        <g>
          <path d="M196.417,218.764 C196.277,218.731 196.268,218.402 196.268,213.318 C196.268,207.913 196.268,207.905 196.441,207.748 C196.606,207.6 196.762,207.592 198.523,207.592 C200.25,207.6 200.472,207.617 200.991,207.781 C201.575,207.97 202.225,208.357 202.438,208.645 C202.85,209.204 202.957,209.492 203.006,210.208 C203.113,211.672 202.652,212.52 201.459,213.087 C200.875,213.367 200.875,213.309 201.492,213.754 C201.739,213.926 202.183,214.585 202.381,215.078 C202.891,216.362 203.36,217.48 203.417,217.587 C203.45,217.653 203.549,217.925 203.631,218.188 C203.812,218.772 203.771,218.821 203.097,218.821 C202.282,218.821 202.29,218.83 201.797,217.546 C201.657,217.184 201.443,216.633 201.32,216.312 C200.53,214.256 200.028,213.803 198.523,213.803 L197.749,213.803 L197.749,216.213 C197.749,217.982 197.725,218.649 197.651,218.723 C197.552,218.821 196.721,218.846 196.417,218.764 z M199.707,212.569 C201.114,212.372 201.813,211.327 201.443,209.978 C201.353,209.632 200.925,209.114 200.736,209.114 C200.678,209.114 200.629,209.081 200.629,209.04 C200.629,208.892 199.864,208.785 198.827,208.785 L197.749,208.785 L197.749,210.669 C197.749,212.1 197.774,212.569 197.856,212.594 C198.029,212.668 199.156,212.651 199.707,212.569 z" fill="#000001"/>
          <path d="M204.882,218.764 C204.758,218.649 204.841,218.278 205.244,217.201 C205.466,216.576 205.754,215.81 205.869,215.49 C205.984,215.177 206.108,214.84 206.149,214.749 C206.182,214.659 206.239,214.494 206.264,214.379 C206.297,214.264 206.371,214.066 206.428,213.927 C206.486,213.795 206.634,213.384 206.757,213.022 C206.881,212.66 207.037,212.248 207.095,212.1 C207.161,211.96 207.21,211.812 207.21,211.771 C207.21,211.738 207.325,211.409 207.465,211.047 C207.605,210.685 207.786,210.208 207.868,209.978 C207.95,209.756 208.172,209.139 208.362,208.62 C208.551,208.102 208.748,207.65 208.798,207.617 C208.855,207.584 209.217,207.551 209.612,207.551 C210.41,207.551 210.599,207.658 210.714,208.16 C210.747,208.299 210.871,208.678 210.994,208.991 C211.118,209.311 211.447,210.216 211.735,211.006 C212.014,211.796 212.294,212.577 212.352,212.734 C212.417,212.89 212.615,213.449 212.804,213.968 C212.985,214.486 213.166,214.988 213.215,215.078 C213.257,215.169 213.38,215.522 213.495,215.86 C213.61,216.197 213.857,216.905 214.046,217.423 C214.491,218.673 214.491,218.665 214.359,218.747 C214.186,218.854 213.182,218.838 213.026,218.723 C212.952,218.665 212.763,218.229 212.598,217.752 C212.434,217.275 212.278,216.831 212.245,216.765 C212.22,216.699 212.138,216.46 212.064,216.23 L211.932,215.819 L209.596,215.794 C207.786,215.778 207.251,215.802 207.202,215.876 C207.161,215.934 207.021,216.337 206.881,216.765 C206.741,217.192 206.593,217.62 206.552,217.711 C206.519,217.801 206.42,218.048 206.346,218.27 C206.272,218.484 206.14,218.698 206.058,218.739 C205.885,218.83 204.964,218.854 204.882,218.764 z M211.488,214.601 C211.488,214.544 211.373,214.19 211.233,213.803 C211.101,213.416 210.937,212.956 210.871,212.775 C210.813,212.594 210.575,211.911 210.336,211.253 C210.106,210.595 209.834,209.846 209.744,209.583 C209.645,209.303 209.546,209.13 209.505,209.171 C209.431,209.246 208.97,210.529 208.14,212.98 C207.893,213.729 207.654,214.395 207.613,214.469 C207.572,214.544 207.572,214.626 207.597,214.659 C207.621,214.683 208.51,214.708 209.571,214.708 C211.052,214.708 211.488,214.683 211.488,214.601 z" fill="#000001"/>
        </g>
      </g>
      <g id="Xref">
        <path d="M171.412,196.718 L171.412,187.128 L179.271,184.555 L193.212,189.326 z" fill="#3EB1C8"/>
        <path d="M185.353,177.164 L171.412,181.982 L179.271,184.555 L193.212,179.783 z" fill="#D8D2C4"/>
        <path d="M179.271,184.555 L193.212,179.783 L193.212,189.326 z" fill="#4F5858"/>
        <path d="M193.212,165.047 L193.212,174.591 L185.353,177.164 L171.412,172.392 z" fill="#FFC72C"/>
        <path d="M185.353,177.164 L171.412,181.982 L171.412,172.392 z" fill="#EF3340"/>
      </g>
      <g id="ORCID_iD_(1)">
        <path d="M197.33,244.453 C197.33,253.124 190.607,260.152 182.312,260.152 C174.017,260.152 167.294,253.124 167.294,244.453 C167.294,235.781 174.017,228.753 182.312,228.753 C190.607,228.753 197.33,235.781 197.33,244.453 z" fill="#A6CE39"/>
        <g>
          <path d="M177.419,251.591 L175.612,251.591 L175.612,238.455 L177.419,238.455 L177.419,244.391 L177.419,251.591 z" fill="#FFFFFF"/>
          <path d="M180.071,238.455 L184.952,238.455 C189.598,238.455 191.64,241.926 191.64,245.029 C191.64,248.402 189.117,251.603 184.975,251.603 L180.071,251.603 L180.071,238.455 z M181.878,249.898 L184.752,249.898 C188.847,249.898 189.786,246.648 189.786,245.029 C189.786,242.392 188.178,240.16 184.658,240.16 L181.878,240.16 L181.878,249.898 z" fill="#FFFFFF"/>
          <path d="M177.701,235.72 C177.701,236.395 177.173,236.959 176.516,236.959 C175.859,236.959 175.331,236.395 175.331,235.72 C175.331,235.033 175.859,234.481 176.516,234.481 C177.173,234.481 177.701,235.045 177.701,235.72 z" fill="#FFFFFF"/>
        </g>
      </g>
    </g>
    <g>
      <g id="entitey_right">
        <path d="M376.326,261.71 C349.642,261.71 328.01,240.078 328.01,213.394 C328.01,186.709 349.642,165.077 376.326,165.077 C403.011,165.077 424.643,186.709 424.643,213.394 C424.643,240.078 403.011,261.71 376.326,261.71 z" fill="#FFFFFF"/>
        <path d="M376.326,261.71 C349.642,261.71 328.01,240.078 328.01,213.394 C328.01,186.709 349.642,165.077 376.326,165.077 C403.011,165.077 424.643,186.709 424.643,213.394 C424.643,240.078 403.011,261.71 376.326,261.71 z" fill-opacity="0" stroke="#000000" stroke-width="2.828"/>
      </g>
      <g id="entitey_left">
        <path d="M49.87,261.708 C23.186,261.708 1.554,240.076 1.554,213.391 C1.554,186.707 23.186,165.075 49.87,165.075 C76.555,165.075 98.187,186.707 98.187,213.391 C98.187,240.076 76.555,261.708 49.87,261.708 z" fill="#FFFFFF"/>
        <path d="M49.87,261.708 C23.186,261.708 1.554,240.076 1.554,213.391 C1.554,186.707 23.186,165.075 49.87,165.075 C76.555,165.075 98.187,186.707 98.187,213.391 C98.187,240.076 76.555,261.708 49.87,261.708 z" fill-opacity="0" stroke="#000000" stroke-width="2.828"/>
      </g>
      <g id="entitey_bottom">
        <path d="M213.217,424.966 C186.532,424.966 164.9,403.334 164.9,376.65 C164.9,349.965 186.532,328.333 213.217,328.333 C239.901,328.333 261.533,349.965 261.533,376.65 C261.533,403.334 239.901,424.966 213.217,424.966 z" fill="#FFFFFF"/>
        <path d="M213.217,424.966 C186.532,424.966 164.9,403.334 164.9,376.65 C164.9,349.965 186.532,328.333 213.217,328.333 C239.901,328.333 261.533,349.965 261.533,376.65 C261.533,403.334 239.901,424.966 213.217,424.966 z" fill-opacity="0" stroke="#000000" stroke-width="2.828"/>
      </g>
      <g id="entitey_top">
        <path d="M213.56,97.864 C186.876,97.864 165.244,76.232 165.244,49.547 C165.244,22.863 186.876,1.231 213.56,1.231 C240.245,1.231 261.877,22.863 261.877,49.547 C261.877,76.232 240.245,97.864 213.56,97.864 z" fill="#FFFFFF"/>
        <path d="M213.56,97.864 C186.876,97.864 165.244,76.232 165.244,49.547 C165.244,22.863 186.876,1.231 213.56,1.231 C240.245,1.231 261.877,22.863 261.877,49.547 C261.877,76.232 240.245,97.864 213.56,97.864 z" fill-opacity="0" stroke="#000000" stroke-width="2.828"/>
      </g>
      <g id="top_logos">
        <path d="M213.059,54.131 C208.048,54.131 203.987,58.193 203.987,63.203 C203.986,68.214 208.048,72.276 213.059,72.276 C218.07,72.276 222.132,68.214 222.132,63.203 C222.132,58.193 218.07,54.131 213.059,54.131 z M221.206,72.093 C218.984,74.135 216.077,75.27 213.059,75.275 C210.046,75.269 207.144,74.137 204.923,72.1 C200.417,75.083 197.675,80.323 197.667,85.967 C197.67,86.048 197.674,86.129 197.678,86.21 L228.442,86.21 C228.447,86.129 228.45,86.048 228.453,85.967 C228.45,80.324 225.712,75.081 221.208,72.094 z" fill="#404040" id="Person"/>
        <path d="M213.059,11.885 L230.686,18.936 L230.686,21.285 L228.337,21.285 C228.337,21.602 228.211,21.879 227.959,22.112 C227.707,22.346 227.412,22.461 227.067,22.461 L199.05,22.461 C198.708,22.461 198.41,22.346 198.158,22.112 C197.906,21.879 197.78,21.605 197.78,21.285 L195.431,21.285 L195.431,18.936 L213.059,11.885 z M200.133,23.634 L204.835,23.634 L204.835,37.736 L207.184,37.736 L207.184,23.634 L211.886,23.634 L211.886,37.736 L214.235,37.736 L214.235,23.634 L218.937,23.634 L218.937,37.736 L221.286,37.736 L221.286,23.634 L225.988,23.634 L225.988,37.736 L227.071,37.736 C227.412,37.736 227.711,37.851 227.963,38.085 C228.215,38.319 228.341,38.592 228.341,38.913 L228.341,40.089 L197.78,40.089 L197.78,38.913 C197.78,38.596 197.906,38.319 198.158,38.085 C198.41,37.851 198.705,37.736 199.05,37.736 L200.133,37.736 L200.133,23.634 z M229.42,41.262 C229.762,41.262 230.06,41.377 230.312,41.611 C230.564,41.845 230.69,42.118 230.69,42.438 L230.69,44.787 L195.431,44.787 L195.431,42.438 C195.431,42.122 195.557,41.845 195.809,41.611 C196.061,41.377 196.356,41.262 196.701,41.262 L229.42,41.262 z" fill="#3F3F3F" id="Inst"/>
      </g>
      <g id="bottom_logos">
        <path d="M212.716,381.233 C207.705,381.233 203.643,385.295 203.643,390.306 C203.643,395.316 207.705,399.379 212.716,399.379 C217.726,399.379 221.788,395.316 221.788,390.306 C221.788,385.295 217.726,381.233 212.716,381.233 z M220.862,399.196 C218.64,401.237 215.733,402.372 212.716,402.377 C209.702,402.371 206.8,401.239 204.579,399.202 C200.073,402.185 197.331,407.426 197.324,413.069 C197.327,413.15 197.33,413.231 197.334,413.312 L228.099,413.312 C228.103,413.231 228.107,413.15 228.11,413.069 C228.106,407.426 225.368,402.183 220.865,399.196 z" fill="#404040" id="Person"/>
        <path d="M212.715,338.987 L230.342,346.038 L230.342,348.387 L227.993,348.387 C227.993,348.704 227.867,348.981 227.615,349.215 C227.364,349.449 227.069,349.564 226.723,349.564 L198.706,349.564 C198.365,349.564 198.066,349.449 197.814,349.215 C197.562,348.981 197.436,348.708 197.436,348.387 L195.087,348.387 L195.087,346.038 L212.715,338.987 z M199.789,350.736 L204.491,350.736 L204.491,364.839 L206.84,364.839 L206.84,350.736 L211.542,350.736 L211.542,364.839 L213.891,364.839 L213.891,350.736 L218.593,350.736 L218.593,364.839 L220.942,364.839 L220.942,350.736 L225.644,350.736 L225.644,364.839 L226.727,364.839 C227.069,364.839 227.367,364.954 227.619,365.187 C227.871,365.421 227.997,365.695 227.997,366.015 L227.997,367.191 L197.436,367.191 L197.436,366.015 C197.436,365.698 197.562,365.421 197.814,365.187 C198.066,364.954 198.361,364.839 198.706,364.839 L199.789,364.839 L199.789,350.736 z M229.076,368.364 C229.418,368.364 229.716,368.479 229.968,368.713 C230.22,368.947 230.346,369.22 230.346,369.54 L230.346,371.89 L195.087,371.89 L195.087,369.54 C195.087,369.224 195.213,368.947 195.465,368.713 C195.717,368.479 196.012,368.364 196.357,368.364 L229.076,368.364 z" fill="#3F3F3F" id="Inst"/>
      </g>
      <g id="Funder">
        <g id="Dollar">
          <path d="M47.287,213.796 C43.991,213.796 41.318,211.123 41.318,207.827 C41.318,204.531 43.991,201.858 47.287,201.858 C50.584,201.858 53.256,204.531 53.256,207.827 C53.256,211.123 50.584,213.796 47.287,213.796 z" fill="#3F3F3F"/>
          <path d="M47.778,209.918 L46.822,209.918 C46.409,209.918 46.074,209.582 46.074,209.169 L44.912,209.169 C44.912,210.202 45.712,211.028 46.719,211.08 L46.719,212.06 L47.881,212.06 L47.881,211.08 C48.888,211.028 49.688,210.176 49.688,209.169 C49.688,208.111 48.81,207.233 47.752,207.233 L46.797,207.233 C46.384,207.233 46.048,206.898 46.048,206.485 C46.048,206.072 46.384,205.736 46.797,205.736 L47.752,205.736 C48.165,205.736 48.5,206.072 48.5,206.485 L49.662,206.485 C49.662,205.452 48.862,204.626 47.855,204.574 L47.855,203.594 L46.693,203.594 L46.693,204.574 C45.687,204.626 44.886,205.478 44.886,206.485 C44.886,207.543 45.764,208.421 46.822,208.421 L47.778,208.421 C48.191,208.421 48.526,208.756 48.526,209.169 C48.526,209.582 48.191,209.918 47.778,209.918 z" fill="#FFFFFF"/>
        </g>
        <path d="M73.151,220.396 C72.833,219.229 72.09,218.221 70.976,217.637 C69.915,217.054 68.642,216.895 67.474,217.266 L56.28,220.821 C55.909,220.449 55.484,220.184 55.06,219.972 L46.624,216.629 C44.289,215.674 41.637,215.515 39.249,216.152 L33.413,217.691 L33.413,216.789 C33.413,216.046 32.83,215.409 32.034,215.409 L24.288,215.409 C23.545,215.409 22.908,215.993 22.908,216.789 L22.908,233.978 C22.908,234.721 23.492,235.358 24.288,235.358 L32.034,235.358 C32.777,235.358 33.413,234.774 33.413,233.978 L33.413,232.864 L51.24,235.941 C51.823,236.048 52.354,236.101 52.937,236.101 C54.954,236.101 56.97,235.464 58.667,234.244 L71.454,225.171 C72.939,224.11 73.629,222.2 73.151,220.396 z M69.862,222.996 L57.023,232.068 C55.431,233.183 53.521,233.66 51.611,233.289 L33.36,230.158 L33.36,220.502 L39.939,218.805 C41.849,218.327 43.865,218.433 45.669,219.176 L54.052,222.519 C54.264,222.625 54.476,222.784 54.529,222.996 C54.635,223.208 54.635,223.474 54.529,223.686 C54.37,224.057 53.945,224.269 53.574,224.216 L43.653,222.625 C42.91,222.465 42.22,222.996 42.114,223.739 C42.008,224.482 42.486,225.171 43.228,225.277 L53.15,226.869 C53.362,226.922 53.521,226.922 53.733,226.922 C55.166,226.922 56.492,226.073 57.076,224.694 C57.288,224.216 57.341,223.739 57.341,223.261 L68.323,219.813 C68.801,219.654 69.278,219.707 69.703,219.972 C70.127,220.184 70.446,220.609 70.552,221.033 C70.711,221.829 70.446,222.572 69.862,222.996 z" fill="#3F3F3F"/>
        <g id="Pound">
          <path d="M60.975,217.903 C57.679,217.903 55.007,215.23 55.007,211.934 C55.007,208.638 57.679,205.965 60.975,205.965 C64.272,205.965 66.944,208.638 66.944,211.934 C66.944,215.23 64.272,217.903 60.975,217.903 z" fill="#3F3F3F"/>
          <path d="M62.352,214.37 C62.16,214.444 61.954,214.429 61.792,214.326 C61.454,214.105 61.056,214.017 60.659,214.046 C60.777,213.664 60.835,213.266 60.835,212.869 L62.675,212.869 L62.675,211.765 L60.659,211.765 C60.6,211.544 60.526,211.308 60.423,211.102 C60.158,210.528 60.144,210.278 60.144,210.219 C60.144,209.748 60.512,209.38 61.012,209.38 C61.498,209.38 61.881,209.763 61.881,210.249 L61.881,210.852 L63.132,210.852 L63.132,210.234 C63.132,209.071 62.19,208.114 61.012,208.114 C59.82,208.114 58.892,209.027 58.892,210.19 C58.892,210.543 59.025,210.999 59.29,211.588 C59.319,211.632 59.334,211.691 59.349,211.75 L58.568,211.75 L58.568,212.854 L59.569,212.854 C59.569,213.34 59.452,213.811 59.216,214.267 L59.172,214.341 L58.289,214.532 L58.554,215.754 L60.644,215.298 C60.806,215.268 60.968,215.298 61.1,215.371 C61.616,215.695 62.263,215.754 62.823,215.518 L63.662,215.15 L63.176,214.002 L62.352,214.37 z" fill="#FFFFFF"/>
        </g>
        <g id="Yen">
          <path d="M68.403,205.7 C65.107,205.7 62.434,203.028 62.434,199.731 C62.434,196.435 65.107,193.763 68.403,193.763 C71.699,193.763 74.372,196.435 74.372,199.731 C74.372,203.028 71.699,205.7 68.403,205.7 z" fill="#3F3F3F"/>
          <path d="M70.647,196.209 L68.403,198.904 L66.159,196.209 C65.971,195.983 65.636,195.952 65.411,196.14 C65.185,196.327 65.154,196.662 65.342,196.888 L67.713,199.732 L66.811,199.732 C66.518,199.732 66.281,199.969 66.281,200.262 C66.281,200.555 66.518,200.793 66.811,200.793 L67.872,200.793 L67.872,201.323 L66.811,201.323 C66.518,201.323 66.281,201.561 66.281,201.854 C66.281,202.147 66.518,202.384 66.811,202.384 L67.872,202.384 L67.872,202.915 C67.872,203.208 68.11,203.446 68.403,203.446 C68.696,203.446 68.933,203.208 68.933,202.915 L68.933,202.384 L69.995,202.384 C70.288,202.384 70.525,202.147 70.525,201.854 C70.525,201.561 70.288,201.323 69.995,201.323 L68.933,201.323 L68.933,200.793 L69.995,200.793 C70.288,200.793 70.525,200.555 70.525,200.262 C70.525,199.969 70.288,199.732 69.995,199.732 L69.093,199.732 L71.464,196.888 C71.652,196.662 71.621,196.327 71.395,196.14 C71.17,195.952 70.835,195.983 70.647,196.209 z" fill="#FFFFFF"/>
        </g>
        <path d="M54.529,189.682 C51.208,189.682 48.507,192.383 48.507,195.704 C48.507,199.025 51.208,201.726 54.529,201.726 C57.85,201.726 60.551,199.025 60.551,195.704 C60.551,192.383 57.85,189.682 54.529,189.682 z M55.074,194.576 C55.138,194.576 55.176,194.626 55.176,194.677 L55.176,195.222 C55.176,195.286 55.125,195.324 55.074,195.324 L53.147,195.324 C53.135,195.45 53.122,195.577 53.122,195.704 C53.122,195.831 53.135,195.945 53.147,196.072 L55.074,196.072 C55.138,196.072 55.176,196.122 55.176,196.173 L55.176,196.718 C55.176,196.782 55.125,196.82 55.074,196.82 L53.388,196.82 C53.718,197.479 54.326,197.935 55.023,197.935 C55.467,197.935 55.898,197.745 56.24,197.415 C56.279,197.377 56.342,197.377 56.38,197.415 L56.988,197.973 C57.026,198.011 57.039,198.087 56.988,198.125 C56.443,198.67 55.746,198.975 55.023,198.975 C53.768,198.975 52.691,198.075 52.273,196.82 L51.563,196.82 C51.499,196.82 51.461,196.769 51.461,196.718 L51.461,196.173 C51.461,196.11 51.512,196.072 51.563,196.072 L52.108,196.072 C52.095,195.945 52.082,195.831 52.082,195.704 C52.082,195.577 52.095,195.45 52.108,195.336 L51.563,195.336 C51.499,195.336 51.461,195.286 51.461,195.235 L51.461,194.69 C51.461,194.626 51.512,194.588 51.563,194.588 L52.273,194.588 C52.691,193.333 53.756,192.433 55.023,192.433 C55.759,192.433 56.456,192.738 56.988,193.283 C57.026,193.321 57.026,193.397 56.988,193.435 L56.38,193.993 C56.342,194.031 56.279,194.031 56.24,193.993 C55.898,193.65 55.467,193.46 55.023,193.46 C54.326,193.46 53.718,193.904 53.388,194.576 L55.074,194.576 z" fill="#3F3F3F"/>
      </g>
      <g id="right_logo">
        <g id="article">
          <path d="M365.499,173.599 L380.338,173.599 L390.693,184.003 L390.693,211.883 L365.499,211.883 L365.499,173.599 z" fill="#3F3F3F"/>
          <path d="M367.83,176.244 L379.037,176.244 L388.362,185.299 L388.362,209.238 L367.83,209.238 L367.83,176.244 z" fill="#FFFFFF"/>
          <path d="M376.636,175.151 L379.147,175.151 L379.147,187.526 L376.636,187.526 L376.636,175.151 z" fill="#3F3F3F"/>
          <path d="M390.623,185.195 L390.623,187.705 L376.636,187.705 L376.636,185.195 L390.623,185.195 z" fill="#3F3F3F"/>
          <path d="M369.576,189.917 L385.804,189.917 L385.804,191.979 L369.576,191.979 L369.576,189.917 z" fill="#3F3F3F"/>
          <path d="M369.576,204.936 L385.804,204.936 L385.804,206.998 L369.576,206.998 L369.576,204.936 z" fill="#3F3F3F"/>
          <path d="M369.576,194.924 L385.804,194.924 L385.804,196.986 L369.576,196.986 L369.576,194.924 z" fill="#3F3F3F"/>
          <path d="M369.576,199.93 L385.804,199.93 L385.804,201.992 L369.576,201.992 L369.576,199.93 z" fill="#3F3F3F"/>
          <path d="M369.576,184.911 L374.866,184.911 L374.866,186.973 L369.576,186.973 L369.576,184.911 z" fill="#3F3F3F"/>
          <path d="M369.576,179.905 L374.866,179.905 L374.866,181.967 L369.576,181.967 L369.576,179.905 z" fill="#3F3F3F"/>
        </g>
        <g id="data">
          <g id="rect3058">
            <path d="M359.02,243.284 L362.338,243.284 L362.338,248.688 L359.02,248.688 z" fill="#3F3F3F"/>
            <path d="M359.02,243.284 L362.338,243.284 L362.338,248.688 L359.02,248.688 z" fill-opacity="0" stroke="#FFFFFF" stroke-width="1.152"/>
          </g>
          <g id="rect3060">
            <path d="M363.002,245.085 L366.319,245.085 L366.319,248.688 L363.002,248.688 z" fill="#3F3F3F"/>
            <path d="M363.002,245.085 L366.319,245.085 L366.319,248.688 L363.002,248.688 z" fill-opacity="0" stroke="#FFFFFF" stroke-width="1.152"/>
          </g>
          <g id="rect3062">
            <path d="M366.983,239.682 L370.301,239.682 L370.301,248.688 L366.983,248.688 z" fill="#3F3F3F"/>
            <path d="M366.983,239.682 L370.301,239.682 L370.301,248.688 L366.983,248.688 z" fill-opacity="0" stroke="#FFFFFF" stroke-width="1.152"/>
          </g>
          <g id="rect3064">
            <path d="M370.965,234.277 L374.283,234.277 L374.283,248.688 L370.965,248.688 z" fill="#3F3F3F"/>
            <path d="M370.965,234.277 L374.283,234.277 L374.283,248.688 L370.965,248.688 z" fill-opacity="0" stroke="#FFFFFF" stroke-width="1.152"/>
          </g>
          <g id="rect3066">
            <path d="M374.946,227.072 L378.264,227.072 L378.264,248.688 L374.946,248.688 z" fill="#3F3F3F"/>
            <path d="M374.946,227.072 L378.264,227.072 L378.264,248.688 L374.946,248.688 z" fill-opacity="0" stroke="#FFFFFF" stroke-width="1.152"/>
          </g>
          <g id="rect3068">
            <path d="M378.928,218.065 L382.246,218.065 L382.246,248.688 L378.928,248.688 z" fill="#3F3F3F"/>
            <path d="M378.928,218.065 L382.246,218.065 L382.246,248.688 L378.928,248.688 z" fill-opacity="0" stroke="#FFFFFF" stroke-width="1.152"/>
          </g>
          <g id="rect3070">
            <path d="M382.909,223.469 L386.227,223.469 L386.227,248.688 L382.909,248.688 z" fill="#3F3F3F"/>
            <path d="M382.909,223.469 L386.227,223.469 L386.227,248.688 L382.909,248.688 z" fill-opacity="0" stroke="#FFFFFF" stroke-width="1.152"/>
          </g>
          <g id="rect3072">
            <path d="M386.891,234.277 L390.209,234.277 L390.209,248.688 L386.891,248.688 z" fill="#3F3F3F"/>
            <path d="M386.891,234.277 L390.209,234.277 L390.209,248.688 L386.891,248.688 z" fill-opacity="0" stroke="#FFFFFF" stroke-width="1.152"/>
          </g>
          <g id="rect3074">
            <path d="M390.873,237.88 L394.191,237.88 L394.191,248.688 L390.873,248.688 z" fill="#3F3F3F"/>
            <path d="M390.873,237.88 L394.191,237.88 L394.191,248.688 L390.873,248.688 z" fill-opacity="0" stroke="#FFFFFF" stroke-width="1.152"/>
          </g>
          <g id="rect3076">
            <path d="M394.854,243.284 L398.172,243.284 L398.172,248.688 L394.854,248.688 z" fill="#3F3F3F"/>
            <path d="M394.854,243.284 L398.172,243.284 L398.172,248.688 L394.854,248.688 z" fill-opacity="0" stroke="#FFFFFF" stroke-width="1.152"/>
          </g>
        </g>
      </g>
    </g>
  </g>
  <g id="Label_Pointers"/>
  <g id="Outer_Ring_boxes"/>
  <g id="Box_content"/>
  <g id="Logo"/>
  <g id="Title"/>
</svg>
