<?xml version="1.0" encoding="UTF-8"?>
<!DOCTYPE svg PUBLIC "-//W3C//DTD SVG 1.1//EN" "http://www.w3.org/Graphics/SVG/1.1/DTD/svg11.dtd">
<svg version="1.1" xmlns="http://www.w3.org/2000/svg" xmlns:xlink="http://www.w3.org/1999/xlink" x="0" y="0" width="25.833" height="25.833" viewBox="0, 0, 25.833, 25.833">
  <g id="Legend" transform="translate(-635.719, -1504.647)">
    <g id="DOI">
      <g id="DOI">
        <path d="M661.552,1517.563 C661.552,1524.697 655.769,1530.48 648.636,1530.48 C641.502,1530.48 635.719,1524.697 635.719,1517.563 C635.719,1510.43 641.502,1504.647 648.636,1504.647 C655.769,1504.647 661.552,1510.43 661.552,1517.563" fill="#F1AC42"/>
        <path d="M641.323,1519.537 C640.306,1519.537 639.481,1519.006 639.481,1517.549 C639.481,1516.532 640.306,1515.708 641.323,1515.708 C642.259,1515.708 643.03,1516.406 643.147,1517.31 L643.147,1517.792 C643.03,1518.715 642.259,1519.537 641.323,1519.537 M643.147,1509.377 L643.147,1514.68 C642.476,1514.062 641.582,1513.682 640.598,1513.682 C638.515,1513.682 636.827,1515.371 636.827,1517.453 C636.827,1519.536 637.929,1521.537 640.598,1521.608 C641.581,1521.634 642.476,1521.173 643.147,1520.461 L643.147,1521.537 L645.591,1521.537 L645.591,1509.377 z" fill="#161616"/>
        <path d="M650.387,1519.342 C649.447,1519.342 648.685,1518.579 648.685,1517.639 C648.685,1516.699 649.447,1515.937 650.387,1515.937 C651.327,1515.937 652.089,1516.699 652.089,1517.639 C652.089,1518.579 651.327,1519.342 650.387,1519.342 M650.44,1513.576 C648.044,1513.576 646.101,1515.325 646.101,1517.721 C646.101,1520.117 648.044,1521.791 650.44,1521.791 C652.836,1521.791 654.779,1520.117 654.779,1517.721 C654.779,1515.325 652.836,1513.576 650.44,1513.576" fill="#FFFFFE"/>
        <path d="M655.436,1521.537 L658.124,1521.537 L658.124,1513.875 L655.436,1513.875 z" fill="#FFFFFE"/>
        <path d="M656.802,1512.441 C657.598,1512.441 658.244,1511.796 658.244,1511 C658.244,1510.204 657.598,1509.559 656.802,1509.559 C656.006,1509.559 655.361,1510.204 655.361,1511 C655.361,1511.796 656.006,1512.441 656.802,1512.441" fill="#FFFFFE"/>
      </g>
    </g>
  </g>
</svg>
