<?xml version="1.0" encoding="UTF-8"?>
<!DOCTYPE svg PUBLIC "-//W3C//DTD SVG 1.1//EN" "http://www.w3.org/Graphics/SVG/1.1/DTD/svg11.dtd">
<svg version="1.1" xmlns="http://www.w3.org/2000/svg" xmlns:xlink="http://www.w3.org/1999/xlink" x="0" y="0" width="51.464" height="46.419" viewBox="0, 0, 51.464, 46.419">
  <g id="Inner_circle" transform="translate(-26.854, -193.951)">
    <g id="Funder">
      <g id="Dollar">
        <path d="M51.233,218.065 C47.937,218.065 45.265,215.392 45.265,212.096 C45.265,208.8 47.937,206.127 51.233,206.127 C54.53,206.127 57.202,208.8 57.202,212.096 C57.202,215.392 54.53,218.065 51.233,218.065 z" fill="#3F3F3F"/>
        <path d="M51.724,214.187 L50.769,214.187 C50.356,214.187 50.02,213.851 50.02,213.438 L48.858,213.438 C48.858,214.471 49.659,215.297 50.665,215.349 L50.665,216.33 L51.827,216.33 L51.827,215.349 C52.834,215.297 53.634,214.445 53.634,213.438 C53.634,212.38 52.756,211.502 51.698,211.502 L50.743,211.502 C50.33,211.502 49.994,211.167 49.994,210.754 C49.994,210.341 50.33,210.005 50.743,210.005 L51.698,210.005 C52.111,210.005 52.446,210.341 52.446,210.754 L53.608,210.754 C53.608,209.721 52.808,208.895 51.801,208.844 L51.801,207.863 L50.64,207.863 L50.64,208.844 C49.633,208.895 48.833,209.747 48.833,210.754 C48.833,211.812 49.71,212.69 50.769,212.69 L51.724,212.69 C52.137,212.69 52.472,213.025 52.472,213.438 C52.472,213.851 52.137,214.187 51.724,214.187 z" fill="#FFFFFF"/>
      </g>
      <path d="M77.097,224.665 C76.779,223.498 76.036,222.49 74.922,221.907 C73.861,221.323 72.588,221.164 71.421,221.535 L60.226,225.09 C59.855,224.718 59.43,224.453 59.006,224.241 L50.57,220.899 C48.236,219.944 45.583,219.784 43.195,220.421 L37.359,221.96 L37.359,221.058 C37.359,220.315 36.776,219.678 35.98,219.678 L28.234,219.678 C27.491,219.678 26.854,220.262 26.854,221.058 L26.854,238.248 C26.854,238.99 27.438,239.627 28.234,239.627 L35.98,239.627 C36.723,239.627 37.359,239.043 37.359,238.248 L37.359,237.133 L55.186,240.211 C55.769,240.317 56.3,240.37 56.884,240.37 C58.9,240.37 60.916,239.733 62.613,238.513 L75.4,229.44 C76.885,228.379 77.575,226.469 77.097,224.665 z M73.808,227.265 L60.969,236.338 C59.377,237.452 57.467,237.929 55.557,237.558 L37.306,234.428 L37.306,224.772 L43.885,223.074 C45.795,222.596 47.811,222.702 49.615,223.445 L57.998,226.788 C58.21,226.894 58.422,227.053 58.475,227.265 C58.581,227.477 58.581,227.743 58.475,227.955 C58.316,228.326 57.892,228.538 57.52,228.485 L47.599,226.894 C46.856,226.735 46.166,227.265 46.06,228.008 C45.954,228.751 46.432,229.44 47.174,229.546 L57.096,231.138 C57.308,231.191 57.467,231.191 57.679,231.191 C59.112,231.191 60.438,230.342 61.022,228.963 C61.234,228.485 61.287,228.008 61.287,227.53 L72.269,224.082 C72.747,223.923 73.224,223.976 73.649,224.241 C74.073,224.453 74.392,224.878 74.498,225.302 C74.657,226.098 74.392,226.841 73.808,227.265 z" fill="#3F3F3F"/>
      <g id="Pound">
        <path d="M64.921,222.172 C61.625,222.172 58.953,219.5 58.953,216.203 C58.953,212.907 61.625,210.234 64.921,210.234 C68.218,210.234 70.89,212.907 70.89,216.203 C70.89,219.5 68.218,222.172 64.921,222.172 z" fill="#3F3F3F"/>
        <path d="M66.298,218.639 C66.106,218.713 65.9,218.698 65.738,218.595 C65.4,218.374 65.002,218.286 64.605,218.316 C64.723,217.933 64.782,217.535 64.782,217.138 L66.622,217.138 L66.622,216.034 L64.605,216.034 C64.546,215.813 64.472,215.578 64.369,215.371 C64.104,214.797 64.09,214.547 64.09,214.488 C64.09,214.017 64.458,213.649 64.958,213.649 C65.444,213.649 65.827,214.032 65.827,214.518 L65.827,215.121 L67.078,215.121 L67.078,214.503 C67.078,213.34 66.136,212.383 64.958,212.383 C63.766,212.383 62.838,213.296 62.838,214.459 C62.838,214.812 62.971,215.268 63.236,215.857 C63.265,215.901 63.28,215.96 63.295,216.019 L62.515,216.019 L62.515,217.123 L63.516,217.123 C63.516,217.609 63.398,218.08 63.162,218.536 L63.118,218.61 L62.235,218.801 L62.5,220.023 L64.59,219.567 C64.752,219.537 64.914,219.567 65.047,219.64 C65.562,219.964 66.209,220.023 66.769,219.788 L67.608,219.42 L67.122,218.271 L66.298,218.639 z" fill="#FFFFFF"/>
      </g>
      <g id="Yen">
        <path d="M72.349,209.969 C69.053,209.969 66.38,207.297 66.38,204 C66.38,200.704 69.053,198.032 72.349,198.032 C75.645,198.032 78.318,200.704 78.318,204 C78.318,207.297 75.645,209.969 72.349,209.969 z" fill="#3F3F3F"/>
        <path d="M74.593,200.478 L72.349,203.173 L70.105,200.478 C69.917,200.252 69.582,200.222 69.357,200.409 C69.131,200.597 69.1,200.931 69.288,201.157 L71.659,204.001 L70.757,204.001 C70.464,204.001 70.227,204.238 70.227,204.531 C70.227,204.824 70.464,205.062 70.757,205.062 L71.818,205.062 L71.818,205.593 L70.757,205.593 C70.464,205.593 70.227,205.83 70.227,206.123 C70.227,206.416 70.464,206.654 70.757,206.654 L71.818,206.654 L71.818,207.184 C71.818,207.477 72.056,207.715 72.349,207.715 C72.642,207.715 72.88,207.477 72.88,207.184 L72.88,206.654 L73.941,206.654 C74.234,206.654 74.471,206.416 74.471,206.123 C74.471,205.83 74.234,205.593 73.941,205.593 L72.88,205.593 L72.88,205.062 L73.941,205.062 C74.234,205.062 74.471,204.824 74.471,204.531 C74.471,204.238 74.234,204.001 73.941,204.001 L73.039,204.001 L75.41,201.157 C75.598,200.931 75.567,200.597 75.341,200.409 C75.116,200.222 74.781,200.252 74.593,200.478 z" fill="#FFFFFF"/>
      </g>
      <path d="M58.475,193.951 C55.154,193.951 52.453,196.652 52.453,199.973 C52.453,203.295 55.154,205.995 58.475,205.995 C61.797,205.995 64.497,203.295 64.497,199.973 C64.497,196.652 61.797,193.951 58.475,193.951 z M59.02,198.845 C59.084,198.845 59.122,198.896 59.122,198.946 L59.122,199.491 C59.122,199.555 59.071,199.593 59.02,199.593 L57.093,199.593 C57.081,199.72 57.068,199.846 57.068,199.973 C57.068,200.1 57.081,200.214 57.093,200.341 L59.02,200.341 C59.084,200.341 59.122,200.391 59.122,200.442 L59.122,200.987 C59.122,201.051 59.071,201.089 59.02,201.089 L57.334,201.089 C57.664,201.748 58.272,202.204 58.97,202.204 C59.413,202.204 59.844,202.014 60.187,201.685 C60.225,201.647 60.288,201.647 60.326,201.685 L60.935,202.242 C60.973,202.28 60.985,202.356 60.935,202.394 C60.389,202.94 59.692,203.244 58.97,203.244 C57.715,203.244 56.637,202.344 56.219,201.089 L55.509,201.089 C55.445,201.089 55.407,201.038 55.407,200.987 L55.407,200.442 C55.407,200.379 55.458,200.341 55.509,200.341 L56.054,200.341 C56.041,200.214 56.028,200.1 56.028,199.973 C56.028,199.846 56.041,199.72 56.054,199.605 L55.509,199.605 C55.445,199.605 55.407,199.555 55.407,199.504 L55.407,198.959 C55.407,198.896 55.458,198.858 55.509,198.858 L56.219,198.858 C56.637,197.602 57.702,196.702 58.97,196.702 C59.705,196.702 60.402,197.007 60.935,197.552 C60.973,197.59 60.973,197.666 60.935,197.704 L60.326,198.262 C60.288,198.3 60.225,198.3 60.187,198.262 C59.844,197.919 59.413,197.729 58.97,197.729 C58.272,197.729 57.664,198.173 57.334,198.845 L59.02,198.845 z" fill="#3F3F3F"/>
    </g>
  </g>
</svg>
