<?xml version="1.0" encoding="UTF-8"?>
<!DOCTYPE svg PUBLIC "-//W3C//DTD SVG 1.1//EN" "http://www.w3.org/Graphics/SVG/1.1/DTD/svg11.dtd">
<svg version="1.1" xmlns="http://www.w3.org/2000/svg" xmlns:xlink="http://www.w3.org/1999/xlink" x="0" y="0" width="50" height="50" viewBox="0, 0, 50, 50">
  <g id="Inner_circle">
    <g id="entitey_bottom">
      <path d="M24,48 C10.745,48 0,37.255 0,24 C0,10.745 10.745,0 24,0 C37.255,0 48,10.745 48,24 C48,37.255 37.255,48 24,48 z" fill="#FFFFFF"/>
      <path d="M24,0 C37.255,0 48,10.745 48,24 C48,37.255 37.255,48 24,48 C10.745,48 0,37.255 0,24 C0,10.745 10.745,0 24,0 z M24,1.414 C11.526,1.414 1.414,11.526 1.414,24 C1.414,36.474 11.526,46.586 24,46.586 C36.474,46.586 46.586,36.474 46.586,24 C46.586,11.526 36.474,1.414 24,1.414 z" fill="#000000"/>
    </g>
    <g id="bottom_logos">
      <path d="M23.908,26.45 C21.403,26.45 19.372,28.481 19.372,30.986 C19.372,33.491 21.403,35.523 23.908,35.523 C26.413,35.523 28.444,33.491 28.444,30.986 C28.444,28.481 26.413,26.45 23.908,26.45 z M27.981,35.431 C26.87,36.452 25.417,37.019 23.908,37.022 C22.401,37.019 20.95,36.453 19.84,35.434 C17.587,36.926 16.216,39.546 16.212,42.368 C16.214,42.408 16.215,42.449 16.217,42.489 L31.6,42.489 C31.602,42.449 31.604,42.408 31.605,42.368 C31.603,39.546 30.234,36.925 27.983,35.431 z" fill="#404040" id="Person"/>
      <path d="M23.908,5.327 L32.721,8.852 L32.721,10.027 L31.547,10.027 C31.547,10.185 31.484,10.324 31.358,10.441 C31.232,10.558 31.085,10.615 30.912,10.615 L16.903,10.615 C16.733,10.615 16.583,10.558 16.457,10.441 C16.331,10.324 16.268,10.187 16.268,10.027 L15.094,10.027 L15.094,8.852 L23.908,5.327 z M17.445,11.202 L19.796,11.202 L19.796,18.253 L20.97,18.253 L20.97,11.202 L23.321,11.202 L23.321,18.253 L24.496,18.253 L24.496,11.202 L26.847,11.202 L26.847,18.253 L28.021,18.253 L28.021,11.202 L30.372,11.202 L30.372,18.253 L30.914,18.253 C31.085,18.253 31.234,18.31 31.36,18.427 C31.486,18.544 31.549,18.681 31.549,18.841 L31.549,19.429 L16.268,19.429 L16.268,18.841 C16.268,18.682 16.331,18.544 16.457,18.427 C16.583,18.31 16.731,18.253 16.903,18.253 L17.445,18.253 L17.445,11.202 z M32.088,20.015 C32.259,20.015 32.409,20.073 32.534,20.19 C32.66,20.307 32.723,20.443 32.723,20.604 L32.723,21.778 L15.094,21.778 L15.094,20.604 C15.094,20.445 15.157,20.307 15.283,20.19 C15.409,20.073 15.556,20.015 15.729,20.015 L32.088,20.015 z" fill="#3F3F3F" id="Inst"/>
    </g>
  </g>
  <g id="hand">
    <g>
      <path d="M49.992,35.825 L49.992,35.526 C49.992,33.75 48.546,32.305 46.77,32.305 C46.369,32.305 45.985,32.379 45.63,32.514 C45.328,31.048 44.028,29.942 42.474,29.942 C42.052,29.942 41.649,30.024 41.28,30.173 C40.89,28.82 39.595,27.794 38.107,27.794 C37.706,27.794 37.32,27.872 36.961,28.011 L36.961,24.143 C36.961,22.366 35.516,20.921 33.739,20.921 C31.963,20.921 30.518,22.366 30.518,24.143 L30.518,33.63 C29.954,32.91 29.276,32.283 28.489,31.959 C27.611,31.598 26.686,31.642 25.816,32.084 C24.215,32.898 23.555,34.86 24.344,36.458 L28.346,44.558 C28.46,44.78 31.172,50 36.082,50 L41.81,50 C46.326,50 50,46.307 50,41.766 L49.996,35.825 L49.992,35.825 z" fill="#FFFFFF" id="hand-pointer-svgrepo-com"/>
      <path d="M49.992,35.825 L49.992,35.526 C49.992,33.75 48.546,32.305 46.77,32.305 C46.369,32.305 45.985,32.379 45.63,32.514 C45.328,31.048 44.028,29.942 42.474,29.942 C42.052,29.942 41.649,30.024 41.28,30.173 C40.89,28.82 39.595,27.794 38.107,27.794 C37.706,27.794 37.32,27.872 36.961,28.011 L36.961,24.143 C36.961,22.366 35.516,20.921 33.739,20.921 C31.963,20.921 30.518,22.366 30.518,24.143 L30.518,33.63 C29.954,32.91 29.276,32.283 28.489,31.959 C27.611,31.598 26.686,31.642 25.816,32.084 C24.215,32.898 23.555,34.86 24.344,36.458 L28.346,44.558 C28.46,44.78 31.172,50 36.082,50 L41.81,50 C46.326,50 50,46.307 50,41.766 L49.996,35.825 L49.992,35.825 z M41.81,47.852 L36.082,47.852 C32.545,47.852 30.342,43.737 30.262,43.586 L26.27,35.507 C25.994,34.949 26.223,34.287 26.79,33.999 C27.102,33.84 27.374,33.824 27.671,33.945 C28.857,34.432 30.021,36.774 30.476,38.136 L30.821,39.175 L32.666,38.523 L32.666,24.143 C32.666,23.551 32.91,22.925 33.502,22.925 C34.094,22.925 34.813,23.551 34.813,24.143 L34.813,36.529 L34.833,36.529 L36.961,36.529 L36.981,36.529 L36.981,31.088 C36.981,30.488 37.518,29.942 38.107,29.942 C38.717,29.942 39.252,30.444 39.252,31.016 L39.252,33.164 L39.252,36.887 L41.4,36.887 L41.4,33.164 C41.4,32.572 41.882,32.09 42.474,32.09 C43.066,32.09 43.548,32.572 43.548,33.164 L43.548,35.526 L43.548,37.889 L45.696,37.889 L45.696,35.526 C45.696,34.934 46.178,34.453 46.77,34.453 C47.362,34.453 47.844,34.934 47.844,35.526 L47.844,37.062 L47.849,37.062 L47.852,41.767 C47.852,45.122 45.142,47.852 41.81,47.852 z" fill="#000000" id="hand-pointer-svgrepo-com"/>
    </g>
  </g>
</svg>
