<?xml version="1.0" encoding="UTF-8"?>
<!DOCTYPE svg PUBLIC "-//W3C//DTD SVG 1.1//EN" "http://www.w3.org/Graphics/SVG/1.1/DTD/svg11.dtd">
<svg version="1.1" xmlns="http://www.w3.org/2000/svg" xmlns:xlink="http://www.w3.org/1999/xlink" x="0" y="0" width="50" height="50" viewBox="0, 0, 50, 50">
  <defs>
    <linearGradient id="Gradient_1" gradientUnits="userSpaceOnUse" x1="447.693" y1="-244.368" x2="471.366" y2="-244.368" gradientTransform="matrix(0.5, 0, 0, -0.5, -194.801, -109.815)">
      <stop offset="1" stop-color="#00AEEF"/>
      <stop offset="1" stop-color="#004968"/>
    </linearGradient>
  </defs>
  <g id="Inner_circle">
    <g id="registries">
      <path d="M24,48 C10.745,48 -0,37.255 -0,24 C-0,10.745 10.745,-0 24,-0 C37.255,-0 48,10.745 48,24 C48,37.255 37.255,48 24,48 z" fill="#FFFFFF"/>
      <path d="M24,0 C37.255,-0 48,10.745 48,24 C48,37.255 37.255,48 24,48 C10.745,48 -0,37.255 -0,24 C-0,10.745 10.745,-0 24,-0 z M24,1.414 C11.526,1.414 1.414,11.526 1.414,24 C1.414,36.474 11.526,46.586 24,46.586 C36.474,46.586 46.586,36.474 46.586,24 C46.586,11.526 36.474,1.414 24,1.414 z" fill="#000000"/>
    </g>
    <g id="logos">
      <g>
        <path d="M33.903,31.548 L33.004,32.925 L32.104,31.548 L33.903,31.548 z" fill="#53BAA1"/>
        <path d="M37.666,31.548 L36.766,32.925 L35.866,31.548 L37.666,31.548 z" fill="#53BAA1"/>
        <path d="M32.104,39.798 L33.004,38.42 L33.903,39.798 L32.104,39.798 z" fill="#53BAA1"/>
        <path d="M35.866,39.798 L36.766,38.42 L37.666,39.798 L35.866,39.798 z" fill="#53BAA1"/>
        <path d="M39.601,35.962 C39.92,35.902 40.162,35.761 40.328,35.538 C40.494,35.315 40.576,35.043 40.576,34.726 C40.576,34.462 40.53,34.242 40.439,34.066 C40.348,33.89 40.224,33.75 40.069,33.645 C39.914,33.541 39.733,33.466 39.527,33.422 C39.321,33.377 39.103,33.355 38.874,33.355 L37.128,33.355 L37.128,34.751 C37.114,34.71 37.099,34.67 37.083,34.63 C36.962,34.337 36.793,34.087 36.576,33.881 C36.358,33.675 36.102,33.517 35.804,33.406 C35.507,33.296 35.182,33.24 34.829,33.24 C34.476,33.24 34.151,33.296 33.853,33.406 C33.556,33.517 33.299,33.675 33.082,33.881 C32.888,34.066 32.732,34.286 32.615,34.541 C32.598,34.358 32.555,34.199 32.486,34.066 C32.395,33.89 32.271,33.75 32.116,33.645 C31.961,33.541 31.78,33.466 31.574,33.422 C31.368,33.377 31.15,33.355 30.921,33.355 L29.176,33.355 L29.176,37.867 L30.17,37.867 L30.17,36.063 L30.66,36.063 L31.604,37.867 L32.796,37.867 L31.649,35.962 C31.968,35.902 32.21,35.761 32.376,35.538 C32.383,35.528 32.39,35.516 32.397,35.506 C32.396,35.541 32.395,35.576 32.395,35.611 C32.395,35.972 32.456,36.3 32.576,36.593 C32.697,36.885 32.866,37.135 33.083,37.341 C33.3,37.547 33.557,37.706 33.855,37.816 C34.152,37.927 34.478,37.982 34.83,37.982 C35.183,37.982 35.508,37.927 35.806,37.816 C36.103,37.706 36.36,37.547 36.577,37.341 C36.794,37.135 36.963,36.885 37.084,36.593 C37.101,36.553 37.115,36.512 37.129,36.472 L37.129,37.867 L38.123,37.867 L38.123,36.063 L38.614,36.063 L39.558,37.867 L40.749,37.867 L39.601,35.962 z M31.512,35.006 C31.459,35.074 31.392,35.123 31.311,35.155 C31.23,35.187 31.14,35.206 31.04,35.213 C30.94,35.219 30.846,35.222 30.757,35.222 L30.171,35.222 L30.171,34.196 L30.82,34.196 C30.91,34.196 31.001,34.203 31.095,34.215 C31.188,34.228 31.271,34.252 31.343,34.289 C31.415,34.325 31.475,34.377 31.522,34.445 C31.568,34.514 31.592,34.604 31.592,34.719 C31.592,34.842 31.565,34.938 31.512,35.006 z M36.133,36.194 C36.067,36.371 35.973,36.524 35.849,36.653 C35.726,36.783 35.579,36.884 35.406,36.956 C35.234,37.029 35.042,37.065 34.83,37.065 C34.617,37.065 34.425,37.028 34.253,36.956 C34.081,36.885 33.934,36.783 33.81,36.653 C33.687,36.524 33.592,36.371 33.526,36.194 C33.46,36.018 33.427,35.824 33.427,35.611 C33.427,35.403 33.46,35.21 33.526,35.031 C33.592,34.852 33.686,34.699 33.81,34.569 C33.933,34.439 34.08,34.339 34.253,34.266 C34.425,34.194 34.617,34.158 34.83,34.158 C35.042,34.158 35.234,34.194 35.406,34.266 C35.578,34.338 35.726,34.439 35.849,34.569 C35.973,34.699 36.067,34.853 36.133,35.031 C36.199,35.21 36.232,35.403 36.232,35.611 C36.232,35.824 36.199,36.018 36.133,36.194 z M39.464,35.006 C39.411,35.074 39.344,35.123 39.263,35.155 C39.183,35.187 39.092,35.206 38.993,35.213 C38.893,35.219 38.799,35.222 38.709,35.222 L38.123,35.222 L38.123,34.196 L38.773,34.196 C38.862,34.196 38.954,34.203 39.047,34.215 C39.14,34.228 39.223,34.252 39.295,34.289 C39.367,34.325 39.427,34.377 39.474,34.445 C39.521,34.514 39.544,34.604 39.544,34.719 C39.544,34.842 39.518,34.938 39.464,35.006 z" fill="#202826"/>
      </g>
      <g id="datacite">
        <path d="M29.044,14.724 C29.125,14.74 29.206,14.756 29.302,14.773 C33.594,15.628 39.983,14.499 40.805,12.417 C41.451,10.739 37.853,9.545 33.642,9.691 C33.562,9.691 33.481,9.691 33.4,9.707 C35.643,9.933 37.66,10.82 36.853,12.207 C35.966,13.724 32.223,14.74 29.044,14.724" fill="url(#Gradient_1)"/>
        <path d="M38.434,14.708 C37.692,19.226 33.788,16.531 32.868,13.385 C31.529,10.126 32.723,5.931 36.062,8.384 C33.304,7.125 33.013,10.788 34.191,13.401 C35.175,15.579 37.305,16.983 38.337,14.74 C38.386,14.724 38.418,14.724 38.434,14.708 z" fill="#444444"/>
      </g>
      <g id="RAiD">
        <path d="M17.132,20.449 L31.584,20.449 C31.751,20.449 31.887,20.588 31.887,20.76 L31.887,27.498 C31.887,27.669 31.751,27.809 31.584,27.809 L17.132,27.809 C16.965,27.809 16.829,27.669 16.829,27.498 L16.829,20.76 C16.829,20.588 16.965,20.449 17.132,20.449 z" fill="#1689C7"/>
        <g>
          <g>
            <path d="M25.465,20.877 L30.806,20.877 C31.136,20.877 31.404,21.15 31.404,21.487 L31.404,26.76 C31.404,27.097 31.136,27.37 30.806,27.37 L25.465,27.37 C25.134,27.37 24.867,27.097 24.867,26.76 L24.867,21.487 C24.867,21.15 25.134,20.877 25.465,20.877 z" fill="#FFFFFF"/>
            <path d="M25.647,21.059 L30.987,21.059 C31.318,21.059 31.586,21.332 31.586,21.669 L31.586,26.942 C31.586,27.279 31.318,27.551 30.987,27.551 L25.647,27.551 C25.316,27.551 25.049,27.279 25.049,26.942 L25.049,21.669 C25.049,21.332 25.316,21.059 25.647,21.059 z" fill-opacity="0" stroke="#FFFFFF" stroke-width="0.707"/>
          </g>
          <g>
            <path d="M25.492,21.233 L30.751,21.233 C30.915,21.233 31.048,21.368 31.048,21.533 L31.048,26.795 C31.048,26.96 30.915,27.095 30.751,27.095 L25.492,27.095 C25.329,27.095 25.196,26.96 25.196,26.795 L25.196,21.533 C25.196,21.368 25.329,21.233 25.492,21.233 z" fill="#1689C7"/>
            <path d="M25.674,21.415 L30.933,21.415 C31.097,21.415 31.23,21.549 31.23,21.715 L31.23,26.977 C31.23,27.142 31.097,27.277 30.933,27.277 L25.674,27.277 C25.51,27.277 25.378,27.142 25.378,26.977 L25.378,21.715 C25.378,21.549 25.51,21.415 25.674,21.415 z" fill-opacity="0" stroke="#1689C7" stroke-width="0.707"/>
          </g>
          <path d="M25.878,26.263 L25.809,26.245 L25.8,24.785 C25.797,23.729 25.803,23.31 25.827,23.283 C25.869,23.229 26.216,23.226 26.267,23.277 C26.309,23.319 26.318,26.161 26.279,26.227 C26.252,26.266 25.995,26.29 25.878,26.263 z" fill="#FFFFFF"/>
          <path d="M27.47,26.242 C27.35,26.2 27.35,26.203 27.35,24.193 L27.35,22.254 L27.424,22.206 C27.494,22.161 27.583,22.158 28.241,22.173 C29.007,22.191 29.145,22.212 29.489,22.359 C29.965,22.562 30.342,23.079 30.446,23.672 C30.473,23.825 30.473,24.51 30.446,24.662 C30.372,25.09 30.201,25.47 29.977,25.712 C29.851,25.85 29.543,26.041 29.321,26.125 C29.076,26.215 28.628,26.263 28.056,26.26 C27.757,26.26 27.494,26.251 27.47,26.242 z M28.876,25.772 C29.16,25.709 29.34,25.62 29.498,25.455 C29.8,25.147 29.902,24.827 29.905,24.198 C29.905,23.818 29.896,23.738 29.836,23.555 C29.687,23.112 29.453,22.861 29.049,22.699 C28.918,22.646 28.807,22.634 28.376,22.622 L27.858,22.604 L27.858,24.189 C27.858,25.06 27.867,25.784 27.879,25.793 C27.915,25.832 28.678,25.814 28.876,25.772 z" fill="#FFFFFF"/>
          <path d="M25.944,22.667 C25.773,22.637 25.734,22.583 25.734,22.367 C25.734,22.125 25.788,22.074 26.045,22.074 C26.219,22.074 26.246,22.083 26.3,22.152 C26.38,22.254 26.387,22.487 26.312,22.58 C26.24,22.664 26.108,22.696 25.944,22.667 z" fill="#FFFFFF"/>
        </g>
        <g>
          <path d="M17.71,26.242 C17.66,26.23 17.656,26.11 17.656,24.261 C17.656,22.296 17.656,22.293 17.719,22.236 C17.779,22.182 17.836,22.179 18.476,22.179 C19.104,22.182 19.185,22.188 19.374,22.248 C19.586,22.316 19.823,22.457 19.9,22.562 C20.05,22.765 20.089,22.87 20.107,23.13 C20.146,23.663 19.978,23.971 19.544,24.177 C19.332,24.279 19.332,24.258 19.556,24.42 C19.646,24.482 19.807,24.722 19.879,24.901 C20.065,25.368 20.235,25.775 20.256,25.814 C20.268,25.838 20.304,25.937 20.334,26.032 C20.4,26.245 20.385,26.263 20.14,26.263 C19.843,26.263 19.846,26.266 19.667,25.799 C19.616,25.667 19.538,25.467 19.494,25.35 C19.206,24.602 19.024,24.438 18.476,24.438 L18.195,24.438 L18.195,25.314 C18.195,25.957 18.186,26.2 18.159,26.227 C18.123,26.263 17.821,26.272 17.71,26.242 z M18.907,23.989 C19.419,23.917 19.673,23.537 19.538,23.047 C19.505,22.921 19.35,22.732 19.281,22.732 C19.26,22.732 19.242,22.72 19.242,22.706 C19.242,22.652 18.964,22.613 18.587,22.613 L18.195,22.613 L18.195,23.298 C18.195,23.818 18.204,23.989 18.234,23.998 C18.297,24.025 18.707,24.019 18.907,23.989 z" fill="#000001"/>
          <path d="M20.789,26.242 C20.744,26.2 20.774,26.065 20.921,25.673 C21.001,25.446 21.106,25.168 21.148,25.051 C21.19,24.937 21.235,24.815 21.25,24.782 C21.262,24.749 21.282,24.689 21.292,24.647 C21.304,24.605 21.33,24.533 21.351,24.482 C21.372,24.435 21.426,24.285 21.471,24.154 C21.516,24.022 21.573,23.872 21.594,23.818 C21.618,23.767 21.636,23.714 21.636,23.699 C21.636,23.687 21.677,23.567 21.728,23.435 C21.779,23.304 21.845,23.13 21.875,23.047 C21.905,22.966 21.985,22.742 22.055,22.553 C22.123,22.364 22.195,22.2 22.213,22.188 C22.234,22.176 22.365,22.164 22.509,22.164 C22.799,22.164 22.868,22.203 22.91,22.385 C22.922,22.436 22.967,22.574 23.012,22.688 C23.057,22.804 23.176,23.133 23.281,23.42 C23.383,23.708 23.484,23.992 23.506,24.049 C23.529,24.106 23.601,24.309 23.67,24.498 C23.736,24.686 23.802,24.869 23.819,24.901 C23.834,24.934 23.879,25.063 23.921,25.186 C23.963,25.308 24.053,25.566 24.122,25.754 C24.283,26.209 24.283,26.206 24.235,26.236 C24.173,26.275 23.807,26.269 23.751,26.227 C23.724,26.206 23.655,26.047 23.595,25.874 C23.535,25.7 23.479,25.539 23.467,25.515 C23.458,25.491 23.428,25.404 23.401,25.32 L23.353,25.171 L22.503,25.162 C21.845,25.156 21.65,25.165 21.633,25.192 C21.618,25.213 21.567,25.359 21.516,25.515 C21.465,25.67 21.411,25.826 21.396,25.859 C21.384,25.892 21.348,25.981 21.321,26.062 C21.294,26.14 21.246,26.218 21.217,26.233 C21.154,26.266 20.819,26.275 20.789,26.242 z M23.191,24.728 C23.191,24.707 23.15,24.578 23.099,24.438 C23.051,24.297 22.991,24.13 22.967,24.064 C22.946,23.998 22.859,23.75 22.772,23.51 C22.689,23.271 22.59,22.999 22.557,22.903 C22.521,22.801 22.485,22.738 22.47,22.753 C22.443,22.78 22.276,23.247 21.974,24.138 C21.884,24.411 21.797,24.653 21.782,24.68 C21.767,24.707 21.767,24.737 21.776,24.749 C21.785,24.758 22.108,24.767 22.494,24.767 C23.033,24.767 23.191,24.758 23.191,24.728 z" fill="#000001"/>
        </g>
      </g>
      <g id="Xref">
        <path d="M8.617,18.224 L8.617,14.737 L11.475,13.801 L16.545,15.536 z" fill="#3EB1C8"/>
        <path d="M13.687,11.113 L8.617,12.865 L11.475,13.801 L16.545,12.066 z" fill="#D8D2C4"/>
        <path d="M11.475,13.801 L16.545,12.066 L16.545,15.536 z" fill="#4F5858"/>
        <path d="M16.545,6.706 L16.545,10.177 L13.687,11.113 L8.617,9.378 z" fill="#FFC72C"/>
        <path d="M13.687,11.113 L8.617,12.865 L8.617,9.378 z" fill="#EF3340"/>
      </g>
      <g id="ORCID_iD_(1)">
        <path d="M18.042,35.584 C18.042,38.738 15.598,41.294 12.581,41.294 C9.564,41.294 7.119,38.738 7.119,35.584 C7.119,32.43 9.564,29.875 12.581,29.875 C15.598,29.875 18.042,32.43 18.042,35.584 z" fill="#A6CE39"/>
        <g>
          <path d="M10.801,38.18 L10.144,38.18 L10.144,33.403 L10.801,33.403 L10.801,35.562 L10.801,38.18 z" fill="#FFFFFF"/>
          <path d="M11.766,33.403 L13.541,33.403 C15.231,33.403 15.973,34.665 15.973,35.794 C15.973,37.02 15.056,38.184 13.549,38.184 L11.766,38.184 L11.766,33.403 z M12.423,37.564 L13.468,37.564 C14.957,37.564 15.299,36.382 15.299,35.794 C15.299,34.835 14.714,34.023 13.434,34.023 L12.423,34.023 L12.423,37.564 z" fill="#FFFFFF"/>
          <path d="M10.904,32.408 C10.904,32.654 10.712,32.859 10.473,32.859 C10.234,32.859 10.042,32.654 10.042,32.408 C10.042,32.158 10.234,31.958 10.473,31.958 C10.712,31.958 10.904,32.163 10.904,32.408 z" fill="#FFFFFF"/>
        </g>
      </g>
    </g>
    <g>
      <path d="M49.992,35.825 L49.992,35.526 C49.992,33.75 48.546,32.305 46.77,32.305 C46.369,32.305 45.985,32.379 45.63,32.514 C45.328,31.048 44.028,29.942 42.474,29.942 C42.052,29.942 41.649,30.024 41.28,30.173 C40.89,28.82 39.595,27.794 38.107,27.794 C37.706,27.794 37.32,27.872 36.961,28.011 L36.961,24.143 C36.961,22.366 35.516,20.921 33.739,20.921 C31.963,20.921 30.518,22.366 30.518,24.143 L30.518,33.63 C29.954,32.91 29.276,32.283 28.489,31.959 C27.611,31.598 26.686,31.642 25.816,32.084 C24.215,32.898 23.555,34.86 24.344,36.458 L28.346,44.558 C28.46,44.78 31.172,50 36.082,50 L41.81,50 C46.326,50 50,46.307 50,41.766 L49.996,35.825 L49.992,35.825 z" fill="#FFFFFF" id="hand-pointer-svgrepo-com"/>
      <path d="M49.992,35.825 L49.992,35.526 C49.992,33.75 48.546,32.305 46.77,32.305 C46.369,32.305 45.985,32.379 45.63,32.514 C45.328,31.048 44.028,29.942 42.474,29.942 C42.052,29.942 41.649,30.024 41.28,30.173 C40.89,28.82 39.595,27.794 38.107,27.794 C37.706,27.794 37.32,27.872 36.961,28.011 L36.961,24.143 C36.961,22.366 35.516,20.921 33.739,20.921 C31.963,20.921 30.518,22.366 30.518,24.143 L30.518,33.63 C29.954,32.91 29.276,32.283 28.489,31.959 C27.611,31.598 26.686,31.642 25.816,32.084 C24.215,32.898 23.555,34.86 24.344,36.458 L28.346,44.558 C28.46,44.78 31.172,50 36.082,50 L41.81,50 C46.326,50 50,46.307 50,41.766 L49.996,35.825 L49.992,35.825 z M41.81,47.852 L36.082,47.852 C32.545,47.852 30.342,43.737 30.262,43.586 L26.27,35.507 C25.994,34.949 26.223,34.287 26.79,33.999 C27.102,33.84 27.374,33.824 27.671,33.945 C28.857,34.432 30.021,36.774 30.476,38.136 L30.821,39.175 L32.666,38.523 L32.666,24.143 C32.666,23.551 32.91,22.925 33.502,22.925 C34.094,22.925 34.813,23.551 34.813,24.143 L34.813,36.529 L34.833,36.529 L36.961,36.529 L36.981,36.529 L36.981,31.088 C36.981,30.488 37.518,29.942 38.107,29.942 C38.717,29.942 39.252,30.444 39.252,31.016 L39.252,33.164 L39.252,36.887 L41.4,36.887 L41.4,33.164 C41.4,32.572 41.882,32.09 42.474,32.09 C43.066,32.09 43.548,32.572 43.548,33.164 L43.548,35.526 L43.548,37.889 L45.696,37.889 L45.696,35.526 C45.696,34.934 46.178,34.453 46.77,34.453 C47.362,34.453 47.844,34.934 47.844,35.526 L47.844,37.062 L47.849,37.062 L47.852,41.767 C47.852,45.122 45.142,47.852 41.81,47.852 z" fill="#000000" id="hand-pointer-svgrepo-com"/>
    </g>
  </g>
</svg>
