<?xml version="1.0" encoding="UTF-8"?>
<!DOCTYPE svg PUBLIC "-//W3C//DTD SVG 1.1//EN" "http://www.w3.org/Graphics/SVG/1.1/DTD/svg11.dtd">
<svg version="1.1" xmlns="http://www.w3.org/2000/svg" xmlns:xlink="http://www.w3.org/1999/xlink" x="0" y="0" width="35.259" height="32.903" viewBox="0, 0, 35.259, 32.903">
  <g id="Inner_circle" transform="translate(-199.033, -343.256)">
    <path d="M216.661,343.256 L234.288,350.307 L234.288,352.656 L231.939,352.656 C231.939,352.973 231.813,353.25 231.562,353.484 C231.31,353.718 231.015,353.833 230.669,353.833 L202.652,353.833 C202.311,353.833 202.012,353.718 201.76,353.484 C201.508,353.25 201.382,352.977 201.382,352.656 L199.033,352.656 L199.033,350.307 L216.661,343.256 z M203.735,355.006 L208.437,355.006 L208.437,369.108 L210.786,369.108 L210.786,355.006 L215.488,355.006 L215.488,369.108 L217.837,369.108 L217.837,355.006 L222.539,355.006 L222.539,369.108 L224.888,369.108 L224.888,355.006 L229.59,355.006 L229.59,369.108 L230.673,369.108 C231.015,369.108 231.313,369.223 231.565,369.457 C231.817,369.69 231.943,369.964 231.943,370.284 L231.943,371.46 L201.382,371.46 L201.382,370.284 C201.382,369.967 201.508,369.69 201.76,369.457 C202.012,369.223 202.307,369.108 202.652,369.108 L203.735,369.108 L203.735,355.006 z M233.022,372.633 C233.364,372.633 233.663,372.748 233.914,372.982 C234.166,373.216 234.292,373.489 234.292,373.81 L234.292,376.159 L199.033,376.159 L199.033,373.81 C199.033,373.493 199.159,373.216 199.411,372.982 C199.663,372.748 199.958,372.633 200.303,372.633 L233.022,372.633 z" fill="#3F3F3F" id="Inst"/>
  </g>
</svg>
