<?xml version="1.0" encoding="utf-8"?>
<!DOCTYPE svg PUBLIC "-//W3C//DTD SVG 20010904//EN" "http://www.w3.org/TR/2001/REC-SVG-20010904/DTD/svg10.dtd">
<svg version="1.0" xmlns="http://www.w3.org/2000/svg" width="2840px" height="321px" viewBox="0 0 2840 321" preserveAspectRatio="xMidYMid meet">
 <g fill="#575656">
  <path d="M500 319 c-76.7 -10.6 -132.1 -61 -144.1 -131.1 -1.8 -10.7 -2.1 -15 -1.6 -31.4 0.4 -12.2 1.1 -21.7 2.2 -26.5 13.7 -61.5 56.8 -106.5 117.1 -122.4 37 -9.7 79 -8.4 114.5 3.4 55.7 18.5 95.9 64.3 106.5 121.5 2.8 14.8 2.6 45.2 -0.4 59.1 -3.2 14.9 -6.6 24.4 -13.8 38.9 -23.1 46.8 -64.1 76.4 -120.6 87.1 -9.7 1.9 -49.6 2.8 -59.8 1.4z m42.5 -51.1 c17.1 -2.1 34.8 -8.6 48.7 -18 14 -9.4 29.3 -28 35.7 -43.3 12.5 -30.1 11.4 -68.2 -2.9 -97.1 -14.9 -30.2 -43.8 -50.3 -79.9 -55.6 -12.1 -1.7 -38.3 -0.7 -49 2 -39 9.8 -66.5 36.6 -76 74.1 -6.7 26.6 -4.4 55.9 6.4 78.7 5.7 12 10.5 19.2 18.8 27.9 23.1 24.4 59.6 36 98.2 31.3z"/>
  <path d="M2712 319.3 c-8.7 -0.9 -21.4 -3.7 -31.2 -6.9 -10.1 -3.3 -37.5 -16.3 -42.6 -20.2 l-2.2 -1.7 0.2 -28.8 0.3 -28.7 10 7.5 c32.6 24.6 65.2 36.1 92.7 32.8 12 -1.5 18.9 -3.8 26.2 -8.8 20.4 -13.9 19.1 -41.1 -2.6 -57.1 -3.4 -2.5 -22 -12.4 -41.3 -22 -19.2 -9.7 -39.3 -20.4 -44.5 -23.9 -22.9 -15.2 -36.3 -32.4 -42.1 -54.1 -1.7 -6.1 -2.1 -10.8 -2.1 -20.9 0 -15.6 2 -24.7 8.4 -37.5 3.4 -6.9 6 -10.3 13.8 -18 13.3 -13.3 26.3 -20.4 46.4 -25.5 35 -8.9 79.5 -3.6 114.4 13.5 l10.2 4.9 0 26.1 c0 14.3 -0.2 26 -0.5 26 -0.3 0 -4.6 -2.3 -9.5 -5 -26.9 -15.2 -52.7 -23 -76.2 -23 -19.1 0 -32.6 4.5 -41 13.8 -5.1 5.7 -6.8 10.5 -6.8 18.9 0 10.8 7.3 21.5 21 30.8 5.6 3.8 17.6 9.8 47.3 23.6 19.4 9 29.8 14.9 41 23.2 25.9 19.2 37.7 41.9 37.7 72.7 0 23.4 -6.4 41.2 -20.6 56.8 -14.8 16.4 -37.4 27.7 -61.8 31.1 -7.2 1 -36.5 1.3 -44.6 0.4z"/>
  <path d="M1 160.5 l0 -155.5 26.8 0.1 26.7 0 51 61.4 c28.1 33.8 51.2 61.4 51.5 61.4 0.3 0 23.5 -27.7 51.5 -61.4 l51 -61.4 26.8 -0.1 26.7 0 0 155.5 0 155.5 -30 0 -30 0 0 -109.5 c0 -63.9 -0.4 -109.5 -0.9 -109.5 -0.5 0 -21.2 24.8 -46 55 l-45.2 55 -4.2 0 -4.2 0 -45 -54.9 c-24.8 -30.3 -45.6 -55 -46.2 -55 -1 -0.1 -1.3 22.4 -1.3 109.4 l0 109.5 -29.5 0 -29.5 0 0 -155.5z"/>
  <path d="M740 160.5 l0 -155.5 59.3 0 c33.7 0 63.1 0.5 68.2 1 24 2.8 44.8 12.3 60 27.4 10.4 10.5 17.3 22.5 21.1 37.1 2.6 9.8 2.6 34.3 0 43.4 -4 14.6 -11.4 26.9 -21.9 36.8 -6.7 6.2 -20.5 15.4 -26.4 17.5 -1.8 0.7 -3.3 1.4 -3.3 1.8 0 0.3 2.4 1.9 5.4 3.7 2.9 1.8 8.5 6.2 12.4 9.8 12.6 11.7 21.2 25 41.4 63.9 15.5 29.7 29.8 56 34.4 63.4 l3.4 5.2 -33.4 0 -33.4 0 -6 -10.2 c-3.2 -5.7 -10.6 -19.1 -16.2 -29.8 -14.1 -26.8 -26.1 -47.8 -33.4 -58.5 -7.9 -11.7 -20.4 -24.2 -27.7 -27.7 -8.3 -4 -12.8 -4.7 -29.1 -4.8 l-14.8 0 0 65.5 0 65.5 -30 0 -30 0 0 -155.5z m114.1 -23.9 c14.4 -3.1 25.5 -11.4 31.2 -23.4 3.1 -6.5 3.2 -7.2 3.2 -19.7 0 -12.2 -0.2 -13.4 -2.9 -19.2 -3.4 -7.5 -10.4 -14.4 -18 -17.9 -9.8 -4.5 -17.1 -5.4 -43.3 -5.4 l-24.3 0 0 43.5 0 43.5 23.8 0 c16.5 0 25.7 -0.5 30.3 -1.4z"/>
  <path d="M1026 160.5 l0 -155.5 92 0 92 0 0 23.5 0 23.5 -62 0 -62 0 0 40.5 0 40.5 23 0 23 0 0 27.5 0 27.5 -23 0 -23 0 0 41 0 41 62 0 62 0 0 23 0 23 -92 0 -92 0 0 -155.5z"/>
  <path d="M1266 293.1 l0 -23 63.3 -0.4 c61.2 -0.3 63.5 -0.4 71.6 -2.5 25.3 -6.7 37.7 -23 35.7 -47 -0.8 -9.4 -3.5 -15.7 -9.4 -21.5 -9.4 -9.2 -17.5 -10.7 -56.9 -10.7 l-26.3 0 0 -27.4 0 -27.4 19.3 -0.4 c18.8 -0.3 19.3 -0.4 25.5 -3.2 7.6 -3.5 15.7 -11.9 19.8 -20.3 2.4 -5 2.9 -7.3 3.2 -16.3 0.5 -13.8 -1.6 -20 -9.7 -28 -6.1 -6.1 -11.5 -9.1 -20.6 -11.5 -8.8 -2.2 -115.5 -2.3 -115.5 0 0 0.8 -0.7 1.5 -1.5 1.5 -0.8 0 -1.5 -0.7 -1.5 -1.5 0 -0.8 0.7 -1.5 1.5 -1.5 1.3 0 1.5 -3.3 1.5 -23.5 l0 -23.5 58.8 0 c60.4 0 70.5 0.5 84.7 4.1 28.6 7.3 51.2 26.3 59.8 50.4 3.9 10.6 4.8 27.3 2.3 38.9 -4.2 18.8 -17.2 35 -35.9 44.6 -4.4 2.3 -6.7 4.1 -6.7 5.3 0 0.9 0.8 1.7 1.8 1.7 3.7 0 21.4 6.9 28.3 11 13.9 8.2 27.3 23.4 33.2 37.5 4.5 10.9 6 20.3 5.5 34.9 -0.4 11.3 -0.9 14.4 -3.7 22.6 -4.5 13.3 -9.9 22 -20 32.1 -12.8 12.8 -26.1 19.7 -48.1 25.2 -8.2 2 -11.4 2.1 -84.2 2.4 l-75.8 0.4 0 -23z"/>
  <path d="M1539 160.5 l0 -155.5 59.3 0 c37 0 62.6 0.4 68.2 1.1 17.3 2.1 32.8 7.4 45 15.4 10.1 6.5 23.4 20.8 28.2 30 8.3 16.1 11.5 33.4 9.4 50.7 -3.5 28.6 -18.3 49.4 -44.8 63.1 -4.6 2.3 -8.3 4.5 -8.3 4.9 0 0.3 2 1.8 4.4 3.2 7.5 4.4 16.4 12.5 23 21 10.6 13.7 16 23 38.1 65.6 11.7 22.6 23 43.2 30.2 55.3 0.2 0.4 -14.5 0.7 -32.6 0.7 l-33.1 0 -3 -4.7 c-1.6 -2.7 -7.1 -12.6 -12.2 -22.1 -36.4 -67.8 -46.8 -84 -60.8 -94.6 -10.4 -7.7 -14.8 -9 -34.7 -9.4 l-17.3 -0.4 0 65.6 0 65.6 -29.5 0 -29.5 0 0 -155.5z m115.3 -24.4 c9.9 -2.6 14.9 -5.2 21.4 -11.3 16 -15.2 16.6 -45.5 1.3 -60.9 -10.3 -10.3 -21.3 -12.9 -55 -12.9 l-24 0 0 43.5 0 43.5 24.3 0 c20.8 0 25.5 -0.3 32 -1.9z"/>
  <path d="M1804.4 308.3 c1.8 -4.3 30.7 -74.3 64.1 -155.6 l60.9 -147.7 30.6 0 30.5 0 57.5 130.3 c31.6 71.6 62.5 141.6 68.6 155.5 l11.2 25.2 -31.6 -0.2 -31.5 -0.3 -15.8 -37 -15.7 -37 -69.9 -0.3 -69.9 -0.2 -14.9 37.5 -14.8 37.5 -31.3 0 -31.3 0 3.3 -7.7z m208.4 -114.2 c-3.7 -9.5 -52.3 -122.1 -52.7 -122.1 -0.4 0 -41.5 104.7 -47.9 122.1 -0.2 0.5 20.6 0.9 50.3 0.9 27.9 0 50.5 -0.4 50.3 -0.9z"/>
  <path d="M2161 160.5 l0 -155.5 29.5 0 29.5 0 0 155.5 0 155.5 -29.5 0 -29.5 0 0 -155.5z"/>
  <path d="M2283 160.5 l0 -155.5 26.3 0.1 26.2 0 92 108.4 c50.6 59.6 92.3 108.4 92.8 108.4 0.4 0.1 0.7 -48.7 0.7 -108.4 l0 -108.5 29 0 29 0 0 155.5 0 155.5 -25.7 -0.1 -25.8 0 -92.5 -109.9 c-50.9 -60.5 -92.8 -110 -93.2 -110 -0.5 0 -0.8 49.5 -0.8 110 l0 110 -29 0 -29 0 0 -155.5z"/>
 </g>
 <g fill="#44bcc2">
  <path d="M1211 228.5 l0 -40.5 -41 0 -41 0 0 -27.5 0 -27.5 41 0 41 0 0 -40.5 0 -40.5 27.5 0 27.5 0 0 40.5 0 40.5 40.5 0 40.5 0 0 27.5 0 27.5 -40.5 0 -40.5 0 0 40.5 0 40.5 -27.5 0 -27.5 0 0 -40.5z"/>
 </g>
</svg>