<?xml version="1.0" encoding="UTF-8"?>
<!DOCTYPE svg PUBLIC "-//W3C//DTD SVG 1.1//EN" "http://www.w3.org/Graphics/SVG/1.1/DTD/svg11.dtd">
<svg version="1.1" xmlns="http://www.w3.org/2000/svg" xmlns:xlink="http://www.w3.org/1999/xlink" x="0" y="0" width="47.335" height="50" viewBox="0, 0, 47.335, 50">
  <g id="arrowsPointer" transform="translate(-45.79, -93.031)">
    <g id="selecterDark">
      <path d="M62.706,113.334 L68.313,116.141 C68.313,116.141 50.534,136.409 50.534,136.409 C50.534,136.409 54.083,142.164 54.083,142.164 C54.083,142.164 70.816,125.004 74.279,119.037 C77.314,120.52 80.691,122.197 80.691,122.197 L83.143,93.031 L62.706,113.334 z" fill="#3397A7"/>
      <path d="M83.143,93.031 L80.691,122.197 C80.691,122.197 77.314,120.52 74.279,119.037 C70.816,125.004 54.083,142.164 54.083,142.164 C54.083,142.164 50.534,136.409 50.534,136.409 C50.534,136.409 68.313,116.141 68.313,116.141 L62.706,113.334 L83.143,93.031 z M81.919,95.657 L64.398,113.063 L68.76,115.247 L69.919,115.827 L69.064,116.801 C68.509,117.434 68.509,117.434 66.286,119.967 C64.445,122.067 62.604,124.166 60.763,126.265 C58.53,128.81 56.296,131.356 54.063,133.902 C53.3,134.772 52.536,135.643 51.773,136.513 C52.235,137.263 52.697,138.012 53.159,138.762 C53.526,139.356 53.892,139.95 54.259,140.545 C55.792,138.948 55.008,139.768 56.611,138.087 C59.045,135.525 61.48,132.911 63.75,130.399 C64.202,129.9 64.643,129.409 65.073,128.927 C69.28,124.211 72.228,120.578 73.414,118.535 L73.882,117.729 L74.718,118.138 C74.992,118.272 75.274,118.41 75.564,118.552 C75.618,118.578 75.618,118.578 75.671,118.605 C76.874,119.195 78.157,119.827 79.435,120.459 L79.818,120.648 L81.919,95.657 z" fill="#BD3535"/>
    </g>
    <g id="selecterLight">
      <path d="M53.282,96.021 L60.689,116.289 L56.591,116.289 L56.617,126.285 C56.617,126.285 49.973,126.315 49.973,126.315 L49.973,116.306 L45.79,116.306 L53.282,96.021 z" fill="#47CCCC"/>
      <path d="M53.282,96.021 L60.689,116.289 L56.591,116.289 L56.617,126.285 C56.617,126.285 49.973,126.315 49.973,126.315 L49.973,116.306 L45.79,116.306 L53.282,96.021 z M53.277,98.921 L47.225,115.306 L50.973,115.306 L50.973,125.311 C51.731,125.307 51.234,125.31 52.467,125.304 C53.516,125.299 54.565,125.295 55.614,125.29 L55.591,116.291 L55.589,115.289 L59.258,115.289 L53.277,98.921 z" fill="#BD3636"/>
    </g>
    <g id="hand">
      <g id="hand-pointer-svgrepo-com">
        <path d="M93.117,129.093 L93.117,128.799 C93.117,127.053 91.858,125.632 90.31,125.632 C89.961,125.632 89.626,125.705 89.318,125.838 C89.054,124.396 87.922,123.309 86.568,123.309 C86.2,123.309 85.849,123.389 85.528,123.536 C85.188,122.205 84.06,121.197 82.763,121.197 C82.414,121.197 82.078,121.273 81.765,121.41 L81.765,117.607 C81.765,115.859 80.506,114.439 78.958,114.439 C77.41,114.439 76.151,115.859 76.151,117.607 L76.151,126.935 C75.661,126.227 75.07,125.611 74.384,125.292 C73.619,124.937 72.814,124.98 72.055,125.415 C70.66,126.215 70.085,128.144 70.773,129.716 L74.26,137.68 C74.358,137.899 76.721,143.031 80.999,143.031 L85.989,143.031 C89.924,143.031 93.125,139.4 93.125,134.935 L93.121,129.093 L93.117,129.093 z" fill="#FFFFFF"/>
        <path d="M78.958,114.438 C80.506,114.439 81.765,115.859 81.765,117.607 L81.765,121.41 C82.078,121.273 82.414,121.197 82.763,121.197 C84.06,121.197 85.188,122.205 85.528,123.536 C85.849,123.389 86.2,123.309 86.568,123.309 C87.922,123.309 89.054,124.396 89.318,125.838 C89.626,125.705 89.961,125.632 90.31,125.632 C91.858,125.632 93.117,127.053 93.117,128.799 L93.117,129.093 L93.121,129.093 L93.125,134.935 C93.125,139.4 89.924,143.031 85.989,143.031 L80.999,143.031 C76.721,143.031 74.358,137.899 74.26,137.68 L70.773,129.716 C70.085,128.144 70.66,126.215 72.055,125.415 C72.814,124.98 73.619,124.937 74.384,125.292 C75.07,125.611 75.661,126.227 76.151,126.935 L76.151,117.607 C76.151,115.859 77.41,114.439 78.958,114.438 z M78.958,115.438 C77.991,115.439 77.151,116.386 77.151,117.607 L77.151,130.132 L75.33,127.505 C74.879,126.855 74.412,126.408 73.963,126.199 C73.496,125.982 73.033,126.007 72.553,126.282 C71.612,126.822 71.201,128.2 71.689,129.314 L75.172,137.271 C75.462,137.915 76.025,138.87 76.817,139.782 C78.055,141.208 79.457,142.031 80.999,142.031 L85.989,142.031 C89.342,142.031 92.125,138.874 92.125,134.936 L92.122,130.093 L92.117,130.093 L92.117,128.799 C92.117,127.58 91.277,126.632 90.31,126.632 C90.104,126.632 89.903,126.674 89.713,126.756 L88.559,127.252 L88.334,126.017 C88.15,125.01 87.397,124.309 86.568,124.309 C86.351,124.309 86.141,124.355 85.943,124.446 L84.855,124.942 L84.559,123.784 C84.321,122.852 83.558,122.197 82.763,122.197 C82.563,122.197 82.362,122.24 82.166,122.326 L80.765,122.939 L80.765,117.607 C80.765,116.387 79.925,115.439 78.958,115.438 z" fill="#000000"/>
      </g>
      <path d="M93.117,129.093 L93.117,128.799 C93.117,127.053 91.858,125.632 90.31,125.632 C89.961,125.632 89.626,125.705 89.318,125.838 C89.054,124.396 87.922,123.309 86.568,123.309 C86.2,123.309 85.849,123.389 85.528,123.536 C85.188,122.205 84.06,121.197 82.763,121.197 C82.414,121.197 82.078,121.273 81.765,121.41 L81.765,117.607 C81.765,115.859 80.506,114.439 78.958,114.439 C77.41,114.439 76.151,115.859 76.151,117.607 L76.151,126.935 C75.661,126.227 75.07,125.611 74.384,125.292 C73.619,124.937 72.814,124.98 72.055,125.415 C70.66,126.215 70.085,128.144 70.773,129.716 L74.26,137.68 C74.358,137.899 76.721,143.031 80.999,143.031 L85.989,143.031 C89.924,143.031 93.125,139.4 93.125,134.935 L93.121,129.093 L93.117,129.093 z M85.989,140.919 L80.999,140.919 C77.918,140.919 75.998,136.873 75.929,136.725 L72.451,128.781 C72.211,128.232 72.41,127.581 72.904,127.298 C73.176,127.141 73.413,127.126 73.671,127.245 C74.705,127.724 75.719,130.026 76.115,131.366 L76.416,132.387 L78.023,131.746 L78.023,117.607 C78.023,117.025 78.235,116.409 78.752,116.409 C79.267,116.409 79.894,117.025 79.894,117.607 L79.894,129.786 L79.911,129.786 L81.765,129.786 L81.783,129.786 L81.783,124.436 C81.783,123.846 82.25,123.309 82.764,123.309 C83.295,123.309 83.761,123.802 83.761,124.365 L83.761,126.477 L83.761,130.138 L85.632,130.138 L85.632,126.477 C85.632,125.895 86.052,125.421 86.568,125.421 C87.084,125.421 87.504,125.895 87.504,126.477 L87.504,128.799 L87.504,131.123 L89.375,131.123 L89.375,128.799 C89.375,128.217 89.795,127.744 90.31,127.744 C90.827,127.744 91.246,128.217 91.246,128.799 L91.246,130.31 L91.251,130.31 L91.253,134.936 C91.253,138.235 88.892,140.919 85.989,140.919 z" fill="#000000" id="hand-pointer-svgrepo-com"/>
    </g>
  </g>
</svg>
