<?xml version="1.0" encoding="UTF-8"?>
<!DOCTYPE svg PUBLIC "-//W3C//DTD SVG 1.1//EN" "http://www.w3.org/Graphics/SVG/1.1/DTD/svg11.dtd">
<svg version="1.1" xmlns="http://www.w3.org/2000/svg" xmlns:xlink="http://www.w3.org/1999/xlink" x="0" y="0" width="50" height="50" viewBox="0, 0, 50, 50">
  <g id="Layer_3">
    <path d="M24,48 C10.745,48 0,37.255 0,24 C-0,10.745 10.745,0 24,0 C37.255,-0 48,10.745 48,24 C48,37.255 37.255,48 24,48 z" fill="#BD3635"/>
    <path d="M24,42.469 C13.8,42.469 5.531,34.2 5.531,24 C5.531,13.8 13.8,5.531 24,5.531 C34.2,5.531 42.469,13.8 42.469,24 C42.469,34.2 34.2,42.469 24,42.469 z" fill="#FFFFFF"/>
    <text transform="matrix(1, 0, 0, 1, 23.647, 24)">
      <tspan x="-6.96" y="8.5" font-family="Lato-Regular" font-size="24" fill="#BD3635">1</tspan>
    </text>
  </g>
  <g id="Layer_2">
    <g>
      <path d="M49.992,35.825 L49.992,35.526 C49.992,33.75 48.604,32.305 46.899,32.305 C46.514,32.305 46.145,32.379 45.805,32.514 C45.515,31.048 44.267,29.942 42.775,29.942 C42.37,29.942 41.983,30.024 41.629,30.173 C41.254,28.82 40.011,27.794 38.582,27.794 C38.198,27.794 37.827,27.872 37.483,28.011 L37.483,24.143 C37.483,22.366 36.095,20.921 34.39,20.921 C32.684,20.921 31.297,22.366 31.297,24.143 L31.297,33.63 C30.756,32.91 30.105,32.283 29.349,31.959 C28.506,31.598 27.619,31.642 26.783,32.084 C25.246,32.898 24.612,34.86 25.37,36.458 L29.213,44.558 C29.321,44.78 31.925,50 36.639,50 L42.137,50 C46.473,50 50,46.307 50,41.766 L49.996,35.825 L49.992,35.825 z" fill="#FFFFFF" id="hand-pointer-svgrepo-com"/>
      <path d="M49.992,35.825 L49.992,35.526 C49.992,33.75 48.604,32.305 46.899,32.305 C46.514,32.305 46.145,32.379 45.805,32.514 C45.515,31.048 44.267,29.942 42.775,29.942 C42.37,29.942 41.983,30.024 41.629,30.173 C41.254,28.82 40.011,27.794 38.582,27.794 C38.198,27.794 37.827,27.872 37.483,28.011 L37.483,24.143 C37.483,22.366 36.095,20.921 34.39,20.921 C32.684,20.921 31.297,22.366 31.297,24.143 L31.297,33.63 C30.756,32.91 30.105,32.283 29.349,31.959 C28.506,31.598 27.619,31.642 26.783,32.084 C25.246,32.898 24.612,34.86 25.37,36.458 L29.213,44.558 C29.321,44.78 31.925,50 36.639,50 L42.137,50 C46.473,50 50,46.307 50,41.766 L49.996,35.825 L49.992,35.825 z M42.137,47.852 L36.639,47.852 C33.243,47.852 31.128,43.737 31.052,43.586 L27.219,35.507 C26.955,34.949 27.174,34.287 27.718,33.999 C28.018,33.84 28.279,33.824 28.564,33.945 C29.703,34.432 30.82,36.774 31.257,38.136 L31.588,39.175 L33.359,38.523 L33.359,24.143 C33.359,23.551 33.593,22.925 34.162,22.925 C34.73,22.925 35.421,23.551 35.421,24.143 L35.421,36.529 L35.44,36.529 L37.483,36.529 L37.502,36.529 L37.502,31.088 C37.502,30.488 38.017,29.942 38.583,29.942 C39.168,29.942 39.682,30.444 39.682,31.016 L39.682,33.164 L39.682,36.887 L41.744,36.887 L41.744,33.164 C41.744,32.572 42.207,32.09 42.775,32.09 C43.344,32.09 43.806,32.572 43.806,33.164 L43.806,35.526 L43.806,37.889 L45.868,37.889 L45.868,35.526 C45.868,34.934 46.331,34.453 46.899,34.453 C47.468,34.453 47.93,34.934 47.93,35.526 L47.93,37.062 L47.935,37.062 L47.938,41.767 C47.938,45.122 45.336,47.852 42.137,47.852 z" fill="#000000" id="hand-pointer-svgrepo-com"/>
    </g>
  </g>
</svg>
