<?xml version="1.0" encoding="UTF-8"?>
<!DOCTYPE svg PUBLIC "-//W3C//DTD SVG 1.1//EN" "http://www.w3.org/Graphics/SVG/1.1/DTD/svg11.dtd">
<svg version="1.1" xmlns="http://www.w3.org/2000/svg" xmlns:xlink="http://www.w3.org/1999/xlink" x="0" y="0" width="25.831" height="25.831" viewBox="0, 0, 25.831, 25.831">
  <g id="Legend" transform="translate(-635.719, -1469.803)">
    <g id="ORCID_iD_(1)">
      <path d="M661.55,1482.719 C661.55,1489.853 655.769,1495.635 648.635,1495.635 C641.501,1495.635 635.719,1489.853 635.719,1482.719 C635.719,1475.585 641.501,1469.803 648.635,1469.803 C655.769,1469.803 661.55,1475.585 661.55,1482.719 z" fill="#A6CE39"/>
      <g>
        <path d="M644.427,1488.592 L642.873,1488.592 L642.873,1477.785 L644.427,1477.785 L644.427,1482.669 L644.427,1488.592 z" fill="#FFFFFF"/>
        <path d="M646.708,1477.785 L650.905,1477.785 C654.901,1477.785 656.657,1480.641 656.657,1483.193 C656.657,1485.968 654.487,1488.602 650.925,1488.602 L646.708,1488.602 L646.708,1477.785 z M648.261,1487.199 L650.734,1487.199 C654.255,1487.199 655.062,1484.525 655.062,1483.193 C655.062,1481.024 653.68,1479.188 650.653,1479.188 L648.261,1479.188 L648.261,1487.199 z" fill="#FFFFFF"/>
        <path d="M644.669,1475.535 C644.669,1476.09 644.215,1476.554 643.65,1476.554 C643.085,1476.554 642.631,1476.09 642.631,1475.535 C642.631,1474.97 643.085,1474.516 643.65,1474.516 C644.215,1474.516 644.669,1474.98 644.669,1475.535 z" fill="#FFFFFF"/>
      </g>
    </g>
  </g>
</svg>
