<?xml version="1.0" encoding="UTF-8"?>
<!DOCTYPE svg PUBLIC "-//W3C//DTD SVG 1.1//EN" "http://www.w3.org/Graphics/SVG/1.1/DTD/svg11.dtd">
<svg version="1.1" xmlns="http://www.w3.org/2000/svg" xmlns:xlink="http://www.w3.org/1999/xlink" x="0" y="0" width="68.376" height="43.253" viewBox="0, 0, 68.376, 43.253">
  <g id="stakeholderIcons" transform="translate(-346.085, -195.242)">
    <g id="platform">
      <path d="M408.695,195.242 C410.003,195.242 411.063,196.302 411.063,197.61 L411.063,228.988 C411.063,230.296 410.003,231.357 408.695,231.357 L351.85,231.357 C350.542,231.357 349.482,230.296 349.482,228.988 L349.482,197.61 C349.482,196.302 350.542,195.242 351.85,195.242 L408.695,195.242 z M407.856,198.15 L352.64,198.15 L352.64,228.595 L407.856,228.595 L407.856,198.15 z" fill="#3F3F3F"/>
      <path d="M414.46,232.442 L414.46,235.442 C414.46,235.442 414.493,236.717 413.958,237.475 C413.331,238.364 412.739,238.495 412.739,238.495 L347.806,238.495 C347.806,238.495 347.214,238.364 346.587,237.475 C346.052,236.717 346.085,235.442 346.085,235.442 L346.085,232.442 L414.46,232.442 z M388.759,232.442 L371.786,232.442 L371.786,233.192 C371.786,233.192 371.778,233.511 371.91,233.701 C372.066,233.923 372.213,233.956 372.213,233.955 L388.332,233.955 C388.332,233.956 388.479,233.923 388.635,233.701 C388.768,233.511 388.759,233.192 388.759,233.192 L388.759,232.442 z" fill="#3F3F3F"/>
      <g id="data">
        <g>
          <path d="M399.432,218.932 L399.432,225.237 L397.497,225.237 L397.497,218.932 L399.432,218.932 z" fill="#3F3F3F"/>
          <path d="M399.432,218.932 L399.432,225.237 L397.497,225.237 L397.497,218.932 L399.432,218.932 z" fill-opacity="0" stroke="#FFFFFF" stroke-width="1.152"/>
        </g>
        <g>
          <path d="M394.787,210.527 L394.787,225.237 L392.852,225.237 L392.852,210.527 L394.787,210.527 z" fill="#3F3F3F"/>
          <path d="M394.787,210.527 L394.787,225.237 L392.852,225.237 L392.852,210.527 L394.787,210.527 z" fill-opacity="0" stroke="#FFFFFF" stroke-width="1.152"/>
        </g>
        <g>
          <path d="M385.498,219.983 L385.498,225.237 L383.563,225.237 L383.563,219.983 L385.498,219.983 z" fill="#3F3F3F"/>
          <path d="M385.498,219.983 L385.498,225.237 L383.563,225.237 L383.563,219.983 L385.498,219.983 z" fill-opacity="0" stroke="#FFFFFF" stroke-width="1.152"/>
        </g>
        <g>
          <path d="M390.143,212.628 L390.143,225.236 L388.207,225.236 L388.207,212.628 L390.143,212.628 z" fill="#3F3F3F"/>
          <path d="M390.143,212.628 L390.143,225.236 L388.207,225.236 L388.207,212.628 L390.143,212.628 z" fill-opacity="0" stroke="#FFFFFF" stroke-width="1.152"/>
        </g>
        <g>
          <path d="M383.176,223.135 L383.176,225.236 L381.241,225.236 L381.241,223.135 L383.176,223.135 z" fill="#3F3F3F"/>
          <path d="M383.176,223.135 L383.176,225.236 L381.241,225.236 L381.241,223.135 L383.176,223.135 z" fill-opacity="0" stroke="#FFFFFF" stroke-width="1.152"/>
        </g>
        <g>
          <path d="M387.821,216.831 L387.821,225.236 L385.886,225.236 L385.886,216.831 L387.821,216.831 z" fill="#3F3F3F"/>
          <path d="M387.821,216.831 L387.821,225.236 L385.886,225.236 L385.886,216.831 L387.821,216.831 z" fill-opacity="0" stroke="#FFFFFF" stroke-width="1.152"/>
        </g>
        <g>
          <path d="M392.465,207.376 L392.465,225.236 L390.53,225.236 L390.53,207.376 L392.465,207.376 z" fill="#3F3F3F"/>
          <path d="M392.465,207.376 L392.465,225.236 L390.53,225.236 L390.53,207.376 L392.465,207.376 z" fill-opacity="0" stroke="#FFFFFF" stroke-width="1.152"/>
        </g>
        <g>
          <path d="M397.11,216.831 L397.11,225.236 L395.174,225.236 L395.174,216.831 L397.11,216.831 z" fill="#3F3F3F"/>
          <path d="M397.11,216.831 L397.11,225.236 L395.174,225.236 L395.174,216.831 L397.11,216.831 z" fill-opacity="0" stroke="#FFFFFF" stroke-width="1.152"/>
        </g>
        <g>
          <path d="M401.754,222.084 L401.754,225.236 L399.819,225.236 L399.819,222.084 L401.754,222.084 z" fill="#3F3F3F"/>
          <path d="M401.754,222.084 L401.754,225.236 L399.819,225.236 L399.819,222.084 L401.754,222.084 z" fill-opacity="0" stroke="#FFFFFF" stroke-width="1.152"/>
        </g>
        <g>
          <path d="M380.854,222.084 L380.854,225.236 L378.919,225.236 L378.919,222.084 L380.854,222.084 z" fill="#3F3F3F"/>
          <path d="M380.854,222.084 L380.854,225.236 L378.919,225.236 L378.919,222.084 L380.854,222.084 z" fill-opacity="0" stroke="#FFFFFF" stroke-width="1.152"/>
        </g>
      </g>
      <g id="article">
        <path d="M360.607,201.176 L368.862,201.176 L374.623,206.963 L374.623,222.473 L360.607,222.473 L360.607,201.176 z" fill="#3F3F3F"/>
        <path d="M361.904,202.647 L368.138,202.647 L373.326,207.684 L373.326,221.002 L361.904,221.002 L361.904,202.647 z" fill="#FFFFFF"/>
        <path d="M366.803,202.039 L368.199,202.039 L368.199,208.923 L366.803,208.923 L366.803,202.039 z" fill="#3F3F3F"/>
        <path d="M374.584,207.627 L374.584,209.023 L366.803,209.023 L366.803,207.627 L374.584,207.627 z" fill="#3F3F3F"/>
        <path d="M362.875,210.253 L371.903,210.253 L371.903,211.401 L362.875,211.401 L362.875,210.253 z" fill="#3F3F3F"/>
        <path d="M362.875,218.609 L371.903,218.609 L371.903,219.756 L362.875,219.756 L362.875,218.609 z" fill="#3F3F3F"/>
        <path d="M362.875,213.039 L371.903,213.039 L371.903,214.186 L362.875,214.186 L362.875,213.039 z" fill="#3F3F3F"/>
        <path d="M362.875,215.824 L371.903,215.824 L371.903,216.971 L362.875,216.971 L362.875,215.824 z" fill="#3F3F3F"/>
        <path d="M362.875,207.469 L365.818,207.469 L365.818,208.616 L362.875,208.616 L362.875,207.469 z" fill="#3F3F3F"/>
        <path d="M362.875,204.684 L365.818,204.684 L365.818,205.831 L362.875,205.831 L362.875,204.684 z" fill="#3F3F3F"/>
      </g>
    </g>
  </g>
</svg>
