<?xml version="1.0" encoding="UTF-8"?>
<!DOCTYPE svg PUBLIC "-//W3C//DTD SVG 1.1//EN" "http://www.w3.org/Graphics/SVG/1.1/DTD/svg11.dtd">
<svg version="1.1" xmlns="http://www.w3.org/2000/svg" xmlns:xlink="http://www.w3.org/1999/xlink" x="0" y="0" width="41.152" height="76.09" viewBox="0, 0, 41.152, 76.09">
  <g id="Inner_circle" transform="translate(-361.966, -177.868)">
    <g id="right_logo">
      <g id="article">
        <path d="M369.445,177.868 L384.284,177.868 L394.639,188.272 L394.639,216.152 L369.445,216.152 L369.445,177.868 z" fill="#3F3F3F"/>
        <path d="M371.776,180.513 L382.983,180.513 L392.308,189.568 L392.308,213.507 L371.776,213.507 L371.776,180.513 z" fill="#FFFFFF"/>
        <path d="M380.582,179.42 L383.093,179.42 L383.093,191.795 L380.582,191.795 L380.582,179.42 z" fill="#3F3F3F"/>
        <path d="M394.569,189.464 L394.569,191.974 L380.582,191.974 L380.582,189.464 L394.569,189.464 z" fill="#3F3F3F"/>
        <path d="M373.522,194.186 L389.75,194.186 L389.75,196.249 L373.522,196.249 L373.522,194.186 z" fill="#3F3F3F"/>
        <path d="M373.522,209.205 L389.75,209.205 L389.75,211.267 L373.522,211.267 L373.522,209.205 z" fill="#3F3F3F"/>
        <path d="M373.522,199.193 L389.75,199.193 L389.75,201.255 L373.522,201.255 L373.522,199.193 z" fill="#3F3F3F"/>
        <path d="M373.522,204.199 L389.75,204.199 L389.75,206.261 L373.522,206.261 L373.522,204.199 z" fill="#3F3F3F"/>
        <path d="M373.522,189.18 L378.812,189.18 L378.812,191.242 L373.522,191.242 L373.522,189.18 z" fill="#3F3F3F"/>
        <path d="M373.522,184.174 L378.812,184.174 L378.812,186.236 L373.522,186.236 L373.522,184.174 z" fill="#3F3F3F"/>
      </g>
      <g id="data">
        <g id="rect3058">
          <path d="M362.966,247.553 L366.284,247.553 L366.284,252.957 L362.966,252.957 z" fill="#3F3F3F"/>
          <path d="M362.966,247.553 L366.284,247.553 L366.284,252.957 L362.966,252.957 z" fill-opacity="0" stroke="#FFFFFF" stroke-width="1.152"/>
        </g>
        <g id="rect3060">
          <path d="M366.948,249.355 L370.265,249.355 L370.265,252.957 L366.948,252.957 z" fill="#3F3F3F"/>
          <path d="M366.948,249.355 L370.265,249.355 L370.265,252.957 L366.948,252.957 z" fill-opacity="0" stroke="#FFFFFF" stroke-width="1.152"/>
        </g>
        <g id="rect3062">
          <path d="M370.929,243.951 L374.247,243.951 L374.247,252.958 L370.929,252.958 z" fill="#3F3F3F"/>
          <path d="M370.929,243.951 L374.247,243.951 L374.247,252.958 L370.929,252.958 z" fill-opacity="0" stroke="#FFFFFF" stroke-width="1.152"/>
        </g>
        <g id="rect3064">
          <path d="M374.911,238.546 L378.229,238.546 L378.229,252.957 L374.911,252.957 z" fill="#3F3F3F"/>
          <path d="M374.911,238.546 L378.229,238.546 L378.229,252.957 L374.911,252.957 z" fill-opacity="0" stroke="#FFFFFF" stroke-width="1.152"/>
        </g>
        <g id="rect3066">
          <path d="M378.892,231.341 L382.21,231.341 L382.21,252.957 L378.892,252.957 z" fill="#3F3F3F"/>
          <path d="M378.892,231.341 L382.21,231.341 L382.21,252.957 L378.892,252.957 z" fill-opacity="0" stroke="#FFFFFF" stroke-width="1.152"/>
        </g>
        <g id="rect3068">
          <path d="M382.874,222.335 L386.192,222.335 L386.192,252.957 L382.874,252.957 z" fill="#3F3F3F"/>
          <path d="M382.874,222.335 L386.192,222.335 L386.192,252.957 L382.874,252.957 z" fill-opacity="0" stroke="#FFFFFF" stroke-width="1.152"/>
        </g>
        <g id="rect3070">
          <path d="M386.855,227.738 L390.173,227.738 L390.173,252.958 L386.855,252.958 z" fill="#3F3F3F"/>
          <path d="M386.855,227.738 L390.173,227.738 L390.173,252.958 L386.855,252.958 z" fill-opacity="0" stroke="#FFFFFF" stroke-width="1.152"/>
        </g>
        <g id="rect3072">
          <path d="M390.837,238.546 L394.155,238.546 L394.155,252.957 L390.837,252.957 z" fill="#3F3F3F"/>
          <path d="M390.837,238.546 L394.155,238.546 L394.155,252.957 L390.837,252.957 z" fill-opacity="0" stroke="#FFFFFF" stroke-width="1.152"/>
        </g>
        <g id="rect3074">
          <path d="M394.819,242.149 L398.137,242.149 L398.137,252.958 L394.819,252.958 z" fill="#3F3F3F"/>
          <path d="M394.819,242.149 L398.137,242.149 L398.137,252.958 L394.819,252.958 z" fill-opacity="0" stroke="#FFFFFF" stroke-width="1.152"/>
        </g>
        <g id="rect3076">
          <path d="M398.8,247.553 L402.118,247.553 L402.118,252.957 L398.8,252.957 z" fill="#3F3F3F"/>
          <path d="M398.8,247.553 L402.118,247.553 L402.118,252.957 L398.8,252.957 z" fill-opacity="0" stroke="#FFFFFF" stroke-width="1.152"/>
        </g>
      </g>
    </g>
  </g>
</svg>
