<?xml version="1.0" encoding="UTF-8"?>
<!DOCTYPE svg PUBLIC "-//W3C//DTD SVG 1.1//EN" "http://www.w3.org/Graphics/SVG/1.1/DTD/svg11.dtd">
<svg version="1.1" xmlns="http://www.w3.org/2000/svg" xmlns:xlink="http://www.w3.org/1999/xlink" x="0" y="0" width="30.786" height="32.079" viewBox="0, 0, 30.786, 32.079">
  <g id="Inner_circle" transform="translate(-201.27, -385.502)">
    <path d="M216.662,385.502 C211.651,385.502 207.589,389.564 207.589,394.575 C207.589,399.585 211.651,403.648 216.662,403.648 C221.672,403.648 225.734,399.585 225.734,394.575 C225.734,389.564 221.672,385.502 216.662,385.502 z M224.808,403.465 C222.586,405.506 219.679,406.641 216.662,406.646 C213.648,406.64 210.746,405.508 208.525,403.471 C204.02,406.454 201.277,411.695 201.27,417.338 C201.273,417.419 201.276,417.5 201.28,417.581 L232.045,417.581 C232.049,417.5 232.053,417.419 232.056,417.338 C232.052,411.695 229.314,406.452 224.811,403.465 z" fill="#404040" id="Person"/>
  </g>
</svg>
