<?xml version="1.0" encoding="UTF-8"?>
<!DOCTYPE svg PUBLIC "-//W3C//DTD SVG 1.1//EN" "http://www.w3.org/Graphics/SVG/1.1/DTD/svg11.dtd">
<svg version="1.1" xmlns="http://www.w3.org/2000/svg" xmlns:xlink="http://www.w3.org/1999/xlink" x="0" y="0" width="50" height="50" viewBox="0, 0, 50, 50">
  <defs>
    <linearGradient id="Gradient_1" gradientUnits="userSpaceOnUse" x1="507.428" y1="-981.121" x2="535.046" y2="-981.121" gradientTransform="matrix(1, 0, 0, -1, -495.968, -967.743)">
      <stop offset="1" stop-color="#00AEEF"/>
      <stop offset="1" stop-color="#004968"/>
    </linearGradient>
  </defs>
  <g id="Legend">
    <g>
      <path d="M9.554,1.395 L34.688,1.395 C34.98,1.395 35.217,1.637 35.217,1.936 L35.217,13.655 C35.217,13.953 34.98,14.195 34.688,14.195 L9.554,14.195 C9.263,14.195 9.026,13.953 9.026,13.655 L9.026,1.936 C9.026,1.637 9.263,1.395 9.554,1.395 z" fill="#1689C7"/>
      <g>
        <g>
          <path d="M24.046,2.14 L33.334,2.14 C33.909,2.14 34.376,2.615 34.376,3.201 L34.376,12.372 C34.376,12.957 33.909,13.432 33.334,13.432 L24.046,13.432 C23.472,13.432 23.006,12.957 23.006,12.372 L23.006,3.201 C23.006,2.615 23.472,2.14 24.046,2.14 z" fill="#FFFFFF"/>
          <path d="M24.46,2.555 L33.749,2.555 C34.324,2.555 34.79,3.029 34.79,3.615 L34.79,12.786 C34.79,13.372 34.324,13.846 33.749,13.846 L24.46,13.846 C23.886,13.846 23.42,13.372 23.42,12.786 L23.42,3.615 C23.42,3.029 23.886,2.555 24.46,2.555 z" fill-opacity="0" stroke="#FFFFFF" stroke-width="1.414"/>
        </g>
        <g>
          <path d="M24.094,2.76 L33.24,2.76 C33.525,2.76 33.756,2.993 33.756,3.28 L33.756,12.433 C33.756,12.72 33.525,12.953 33.24,12.953 L24.094,12.953 C23.809,12.953 23.578,12.72 23.578,12.433 L23.578,3.28 C23.578,2.993 23.809,2.76 24.094,2.76 z" fill="#1689C7"/>
          <path d="M24.508,3.174 L33.654,3.174 C33.939,3.174 34.17,3.407 34.17,3.695 L34.17,12.847 C34.17,13.135 33.939,13.367 33.654,13.367 L24.508,13.367 C24.223,13.367 23.992,13.135 23.992,12.847 L23.992,3.695 C23.992,3.407 24.223,3.174 24.508,3.174 z" fill-opacity="0" stroke="#1689C7" stroke-width="1.414"/>
        </g>
        <path d="M24.764,11.507 L24.645,11.476 L24.629,8.937 C24.624,7.1 24.634,6.371 24.676,6.324 C24.749,6.231 25.353,6.225 25.441,6.314 C25.514,6.386 25.529,11.33 25.462,11.444 C25.415,11.512 24.967,11.554 24.764,11.507 z" fill="#FFFFFF"/>
        <path d="M27.532,11.47 C27.325,11.397 27.325,11.403 27.325,7.906 L27.325,4.534 L27.455,4.451 C27.575,4.372 27.73,4.367 28.875,4.394 C30.208,4.425 30.447,4.461 31.045,4.716 C31.873,5.07 32.528,5.971 32.711,7 C32.757,7.266 32.757,8.458 32.711,8.723 C32.58,9.467 32.284,10.128 31.894,10.55 C31.675,10.788 31.139,11.121 30.754,11.267 C30.327,11.424 29.547,11.507 28.552,11.502 C28.032,11.502 27.575,11.486 27.532,11.47 z M29.978,10.653 C30.473,10.544 30.785,10.388 31.061,10.101 C31.586,9.565 31.764,9.009 31.769,7.917 C31.769,7.256 31.753,7.115 31.648,6.797 C31.388,6.028 30.983,5.59 30.281,5.309 C30.051,5.216 29.859,5.195 29.109,5.174 L28.209,5.143 L28.209,7.901 C28.209,9.415 28.225,10.674 28.246,10.69 C28.308,10.758 29.635,10.726 29.978,10.653 z" fill="#FFFFFF"/>
        <path d="M24.879,5.252 C24.582,5.2 24.515,5.106 24.515,4.732 C24.515,4.31 24.609,4.222 25.056,4.222 C25.358,4.222 25.405,4.237 25.499,4.357 C25.639,4.534 25.649,4.94 25.519,5.101 C25.394,5.247 25.165,5.304 24.879,5.252 z" fill="#FFFFFF"/>
      </g>
      <g>
        <path d="M10.559,11.47 C10.47,11.449 10.465,11.241 10.465,8.026 C10.465,4.607 10.465,4.602 10.575,4.503 C10.679,4.41 10.778,4.404 11.891,4.404 C12.984,4.41 13.125,4.42 13.452,4.524 C13.822,4.643 14.233,4.888 14.369,5.07 C14.629,5.424 14.696,5.606 14.727,6.059 C14.795,6.985 14.504,7.521 13.749,7.88 C13.379,8.057 13.379,8.02 13.77,8.301 C13.926,8.41 14.207,8.827 14.332,9.14 C14.654,9.951 14.951,10.659 14.987,10.726 C15.008,10.768 15.07,10.94 15.122,11.106 C15.237,11.476 15.211,11.507 14.784,11.507 C14.269,11.507 14.275,11.512 13.963,10.7 C13.874,10.472 13.739,10.123 13.66,9.92 C13.161,8.619 12.843,8.333 11.891,8.333 L11.403,8.333 L11.403,9.857 C11.403,10.976 11.387,11.397 11.34,11.444 C11.277,11.507 10.752,11.522 10.559,11.47 z M12.64,7.552 C13.53,7.427 13.973,6.767 13.739,5.913 C13.682,5.695 13.411,5.367 13.291,5.367 C13.255,5.367 13.224,5.346 13.224,5.32 C13.224,5.227 12.74,5.159 12.084,5.159 L11.403,5.159 L11.403,6.35 C11.403,7.256 11.417,7.552 11.47,7.568 C11.579,7.615 12.292,7.604 12.64,7.552 z" fill="#000001"/>
        <path d="M15.914,11.47 C15.836,11.397 15.888,11.164 16.142,10.482 C16.283,10.087 16.465,9.603 16.538,9.4 C16.61,9.202 16.689,8.989 16.715,8.932 C16.736,8.874 16.772,8.77 16.788,8.697 C16.808,8.624 16.856,8.499 16.892,8.41 C16.929,8.328 17.022,8.067 17.1,7.839 C17.178,7.609 17.277,7.349 17.313,7.256 C17.355,7.167 17.386,7.073 17.386,7.048 C17.386,7.027 17.459,6.819 17.547,6.589 C17.636,6.361 17.75,6.059 17.803,5.913 C17.855,5.773 17.995,5.382 18.115,5.054 C18.234,4.727 18.359,4.44 18.39,4.42 C18.426,4.399 18.656,4.378 18.905,4.378 C19.41,4.378 19.53,4.446 19.603,4.763 C19.624,4.851 19.702,5.091 19.779,5.289 C19.858,5.492 20.066,6.064 20.248,6.564 C20.425,7.063 20.602,7.557 20.639,7.657 C20.68,7.755 20.805,8.109 20.924,8.437 C21.039,8.764 21.153,9.082 21.185,9.14 C21.211,9.197 21.289,9.42 21.362,9.633 C21.435,9.847 21.591,10.294 21.71,10.623 C21.991,11.413 21.991,11.408 21.908,11.46 C21.798,11.528 21.164,11.517 21.065,11.444 C21.018,11.408 20.899,11.132 20.794,10.831 C20.691,10.529 20.591,10.247 20.571,10.206 C20.555,10.164 20.503,10.014 20.456,9.868 L20.373,9.608 L18.895,9.592 C17.75,9.582 17.412,9.597 17.381,9.644 C17.355,9.681 17.267,9.936 17.178,10.206 C17.089,10.477 16.996,10.747 16.97,10.804 C16.949,10.862 16.886,11.018 16.84,11.159 C16.793,11.294 16.71,11.429 16.658,11.455 C16.548,11.512 15.966,11.528 15.914,11.47 z M20.092,8.837 C20.092,8.801 20.019,8.577 19.931,8.333 C19.847,8.088 19.743,7.797 19.702,7.682 C19.665,7.568 19.514,7.136 19.364,6.72 C19.218,6.304 19.046,5.83 18.989,5.663 C18.926,5.487 18.864,5.377 18.838,5.403 C18.791,5.45 18.499,6.261 17.974,7.812 C17.818,8.286 17.667,8.707 17.641,8.754 C17.615,8.801 17.615,8.853 17.631,8.874 C17.646,8.889 18.209,8.905 18.88,8.905 C19.816,8.905 20.092,8.889 20.092,8.837 z" fill="#000001"/>
      </g>
    </g>
  </g>
  <g id="Legend">
    <g>
      <path d="M0,26.649 L0,18.58 L6.613,16.414 L18.344,20.43 z" fill="#3EB1C8"/>
      <path d="M11.731,10.195 L0,14.249 L6.613,16.414 L18.344,12.399 z" fill="#D8D2C4"/>
      <path d="M6.613,16.414 L18.344,12.399 L18.344,20.43 z" fill="#4F5858"/>
      <path d="M18.344,-0 L18.344,8.03 L11.731,10.195 L0,6.18 z" fill="#FFC72C"/>
      <path d="M11.731,10.195 L0,14.249 L0,6.18 z" fill="#EF3340"/>
    </g>
  </g>
  <g id="Legend">
    <g>
      <path d="M11.46,18.876 C11.648,18.914 11.837,18.952 12.062,18.989 C22.076,20.984 36.983,18.349 38.902,13.494 C40.408,9.578 32.013,6.793 22.188,7.132 C22,7.132 21.812,7.132 21.624,7.169 C26.856,7.697 31.562,9.767 29.68,13.004 C27.609,16.542 18.876,18.914 11.46,18.876" fill="url(#Gradient_1)"/>
      <path d="M33.369,18.839 C31.637,29.379 22.527,23.093 20.381,15.752 C17.257,8.148 20.043,-1.64 27.835,4.083 C21.398,1.147 20.72,9.692 23.468,15.789 C25.765,20.871 30.733,24.146 33.143,18.914 C33.255,18.876 33.331,18.876 33.369,18.839 z" fill="#444444"/>
    </g>
  </g>
  <g id="Legend">
    <g>
      <path d="M40.94,26.631 C40.94,32.542 36.151,37.332 30.24,37.332 C24.33,37.332 19.54,32.542 19.54,26.631 C19.54,20.721 24.33,15.93 30.24,15.93 C36.151,15.93 40.94,20.721 40.94,26.631 z" fill="#A6CE39"/>
      <g>
        <path d="M26.754,31.497 L25.467,31.497 L25.467,22.543 L26.754,22.543 L26.754,26.59 L26.754,31.497 z" fill="#FFFFFF"/>
        <path d="M28.644,22.543 L32.121,22.543 C35.432,22.543 36.887,24.91 36.887,27.024 C36.887,29.323 35.089,31.505 32.138,31.505 L28.644,31.505 L28.644,22.543 z M29.931,30.343 L31.98,30.343 C34.897,30.343 35.565,28.127 35.565,27.024 C35.565,25.227 34.42,23.706 31.912,23.706 L29.931,23.706 L29.931,30.343 z" fill="#FFFFFF"/>
        <path d="M26.955,20.679 C26.955,21.139 26.579,21.524 26.11,21.524 C25.642,21.524 25.266,21.139 25.266,20.679 C25.266,20.211 25.642,19.835 26.11,19.835 C26.579,19.835 26.955,20.219 26.955,20.679 z" fill="#FFFFFF"/>
      </g>
    </g>
  </g>
  <g id="Legend">
    <g>
      <path d="M10.917,20.401 L9.072,23.228 L7.225,20.401 L10.917,20.401 z" fill="#53BAA1"/>
      <path d="M18.638,20.401 L16.793,23.228 L14.947,20.401 L18.638,20.401 z" fill="#53BAA1"/>
      <path d="M7.225,37.332 L9.072,34.504 L10.917,37.332 L7.225,37.332 z" fill="#53BAA1"/>
      <path d="M14.947,37.332 L16.793,34.504 L18.638,37.332 L14.947,37.332 z" fill="#53BAA1"/>
      <path d="M22.611,29.459 C23.265,29.337 23.762,29.047 24.102,28.589 C24.442,28.132 24.611,27.575 24.611,26.922 C24.611,26.38 24.517,25.93 24.33,25.568 C24.142,25.206 23.889,24.919 23.571,24.704 C23.253,24.491 22.881,24.338 22.459,24.247 C22.036,24.155 21.589,24.109 21.119,24.109 L17.535,24.109 L17.535,26.973 C17.506,26.89 17.476,26.808 17.442,26.726 C17.195,26.125 16.847,25.612 16.402,25.19 C15.957,24.767 15.43,24.441 14.819,24.214 C14.209,23.987 13.541,23.874 12.817,23.874 C12.093,23.874 11.427,23.987 10.815,24.214 C10.205,24.441 9.678,24.767 9.232,25.19 C8.833,25.568 8.514,26.02 8.273,26.543 C8.239,26.167 8.151,25.842 8.009,25.568 C7.822,25.206 7.568,24.919 7.25,24.704 C6.932,24.491 6.561,24.338 6.138,24.247 C5.715,24.155 5.268,24.109 4.798,24.109 L1.216,24.109 L1.216,33.369 L3.256,33.369 L3.256,29.668 L4.263,29.668 L6.199,33.369 L8.645,33.369 L6.292,29.459 C6.946,29.337 7.443,29.047 7.782,28.589 C7.798,28.567 7.811,28.545 7.827,28.523 C7.824,28.595 7.822,28.667 7.822,28.74 C7.822,29.48 7.947,30.152 8.195,30.754 C8.442,31.354 8.79,31.867 9.235,32.29 C9.679,32.712 10.207,33.038 10.819,33.265 C11.428,33.491 12.096,33.605 12.82,33.605 C13.544,33.605 14.21,33.491 14.822,33.265 C15.432,33.038 15.959,32.712 16.405,32.29 C16.849,31.867 17.196,31.354 17.446,30.754 C17.479,30.673 17.509,30.589 17.538,30.505 L17.538,33.369 L19.578,33.369 L19.578,29.668 L20.585,29.668 L22.521,33.369 L24.967,33.369 L22.611,29.459 z M6.01,27.497 C5.901,27.637 5.764,27.739 5.598,27.804 C5.433,27.87 5.247,27.909 5.043,27.921 C4.838,27.935 4.645,27.941 4.461,27.941 L3.257,27.941 L3.257,25.836 L4.592,25.836 C4.774,25.836 4.962,25.85 5.154,25.876 C5.346,25.901 5.516,25.952 5.664,26.026 C5.811,26.101 5.935,26.207 6.03,26.347 C6.126,26.487 6.175,26.674 6.175,26.91 C6.175,27.161 6.12,27.357 6.01,27.497 z M15.494,29.937 C15.359,30.299 15.166,30.612 14.911,30.878 C14.659,31.145 14.356,31.351 14.002,31.5 C13.649,31.649 13.253,31.722 12.819,31.722 C12.382,31.722 11.988,31.648 11.635,31.5 C11.283,31.353 10.979,31.145 10.726,30.878 C10.473,30.612 10.278,30.299 10.143,29.937 C10.007,29.575 9.94,29.176 9.94,28.74 C9.94,28.312 10.007,27.915 10.143,27.548 C10.278,27.182 10.471,26.867 10.726,26.601 C10.978,26.335 11.281,26.128 11.635,25.979 C11.988,25.832 12.382,25.757 12.819,25.757 C13.255,25.757 13.649,25.832 14.002,25.979 C14.355,26.127 14.658,26.335 14.911,26.601 C15.164,26.867 15.359,27.184 15.494,27.548 C15.63,27.915 15.697,28.312 15.697,28.74 C15.697,29.176 15.63,29.575 15.494,29.937 z M22.33,27.497 C22.22,27.637 22.084,27.739 21.917,27.804 C21.751,27.87 21.566,27.909 21.362,27.921 C21.156,27.935 20.963,27.941 20.78,27.941 L19.577,27.941 L19.577,25.836 L20.91,25.836 C21.093,25.836 21.282,25.85 21.473,25.876 C21.665,25.901 21.835,25.952 21.983,26.026 C22.13,26.101 22.253,26.207 22.35,26.347 C22.446,26.487 22.494,26.674 22.494,26.91 C22.494,27.161 22.439,27.357 22.33,27.497 z" fill="#202826"/>
    </g>
  </g>
  <g id="Hand">
    <g>
      <path d="M44.325,33.825 L44.325,33.526 C44.325,31.75 42.879,30.305 41.103,30.305 C40.702,30.305 40.318,30.379 39.963,30.514 C39.662,29.048 38.361,27.942 36.807,27.942 C36.385,27.942 35.982,28.024 35.613,28.173 C35.223,26.82 33.928,25.794 32.44,25.794 C32.039,25.794 31.653,25.872 31.294,26.011 L31.294,22.143 C31.294,20.366 29.849,18.921 28.073,18.921 C26.296,18.921 24.851,20.366 24.851,22.143 L24.851,31.63 C24.287,30.91 23.609,30.283 22.822,29.959 C21.944,29.598 21.02,29.642 20.149,30.084 C18.548,30.898 17.888,32.86 18.677,34.458 L22.68,42.558 C22.793,42.78 25.505,48 30.415,48 L36.143,48 C40.659,48 44.333,44.307 44.333,39.766 L44.329,33.825 L44.325,33.825 z" fill="#FFFFFF" id="hand-pointer-svgrepo-com"/>
      <path d="M44.325,33.825 L44.325,33.526 C44.325,31.75 42.879,30.305 41.103,30.305 C40.702,30.305 40.318,30.379 39.963,30.514 C39.662,29.048 38.361,27.942 36.807,27.942 C36.385,27.942 35.982,28.024 35.613,28.173 C35.223,26.82 33.928,25.794 32.44,25.794 C32.039,25.794 31.653,25.872 31.294,26.011 L31.294,22.143 C31.294,20.366 29.849,18.921 28.073,18.921 C26.296,18.921 24.851,20.366 24.851,22.143 L24.851,31.63 C24.287,30.91 23.609,30.283 22.822,29.959 C21.944,29.598 21.02,29.642 20.149,30.084 C18.548,30.898 17.888,32.86 18.677,34.458 L22.68,42.558 C22.793,42.78 25.505,48 30.415,48 L36.143,48 C40.659,48 44.333,44.307 44.333,39.766 L44.329,33.825 L44.325,33.825 z M36.143,45.852 L30.415,45.852 C26.878,45.852 24.675,41.737 24.595,41.586 L20.603,33.507 C20.328,32.949 20.556,32.287 21.123,31.999 C21.435,31.84 21.707,31.824 22.004,31.945 C23.19,32.432 24.354,34.774 24.809,36.136 L25.154,37.175 L26.999,36.523 L26.999,22.143 C26.999,21.551 27.243,20.925 27.835,20.925 C28.427,20.925 29.147,21.551 29.147,22.143 L29.147,34.529 L29.166,34.529 L31.294,34.529 L31.314,34.529 L31.314,29.088 C31.314,28.488 31.851,27.942 32.44,27.942 C33.05,27.942 33.586,28.444 33.586,29.016 L33.586,31.164 L33.586,34.887 L35.733,34.887 L35.733,31.164 C35.733,30.572 36.215,30.09 36.807,30.09 C37.4,30.09 37.881,30.572 37.881,31.164 L37.881,33.526 L37.881,35.889 L40.029,35.889 L40.029,33.526 C40.029,32.934 40.511,32.453 41.103,32.453 C41.695,32.453 42.177,32.934 42.177,33.526 L42.177,35.062 L42.182,35.062 L42.186,39.767 C42.185,43.122 39.475,45.852 36.143,45.852 z" fill="#000000" id="hand-pointer-svgrepo-com"/>
    </g>
  </g>
</svg>
