<?xml version="1.0" encoding="UTF-8"?>
<!DOCTYPE svg PUBLIC "-//W3C//DTD SVG 1.1//EN" "http://www.w3.org/Graphics/SVG/1.1/DTD/svg11.dtd">
<svg version="1.1" xmlns="http://www.w3.org/2000/svg" xmlns:xlink="http://www.w3.org/1999/xlink" x="0" y="0" width="31.612" height="15.629" viewBox="0, 0, 31.612, 15.629">
  <g id="Legend">
    <path d="M0.638,0.1 L30.975,0.1 C31.327,0.1 31.613,0.392 31.613,0.753 L31.613,14.898 C31.613,15.258 31.327,15.55 30.975,15.55 L0.638,15.55 C0.286,15.55 -0,15.258 -0,14.898 L-0,0.753 C-0,0.392 0.286,0.1 0.638,0.1 z" fill="#1689C7"/>
    <g>
      <g>
        <path d="M29.278,1 C29.972,1 30.536,1.573 30.536,2.28 L30.535,13.349 C30.536,14.056 29.972,14.629 29.278,14.629 L18.067,14.629 C17.375,14.629 16.812,14.056 16.812,13.349 L16.812,2.28 C16.812,1.573 17.375,1 18.068,1 L29.278,1 z M29.122,2.414 L18.226,2.414 L18.226,13.215 L29.122,13.215 L29.122,2.414 z" fill="#FFFFFF"/>
      </g>
      <g>
        <path d="M18.188,1.687 L29.227,1.687 C29.571,1.687 29.85,1.968 29.85,2.315 L29.85,13.362 C29.85,13.709 29.571,13.99 29.227,13.99 L18.188,13.99 C17.844,13.99 17.565,13.709 17.565,13.362 L17.565,2.315 C17.565,1.968 17.844,1.687 18.188,1.687 z" fill="#1689C7"/>
      </g>
      <path d="M18.997,12.244 L18.853,12.207 L18.834,9.142 C18.828,6.925 18.84,6.045 18.89,5.989 C18.978,5.876 19.707,5.869 19.814,5.976 C19.902,6.064 19.92,12.031 19.839,12.169 C19.782,12.25 19.242,12.301 18.997,12.244 z" fill="#FFFFFF"/>
      <path d="M22.338,12.2 C22.087,12.112 22.087,12.119 22.087,7.898 L22.087,3.828 L22.244,3.728 C22.389,3.633 22.577,3.627 23.959,3.659 C25.567,3.696 25.856,3.74 26.578,4.048 C27.577,4.475 28.368,5.562 28.588,6.805 C28.644,7.125 28.644,8.564 28.588,8.884 C28.431,9.782 28.073,10.58 27.602,11.089 C27.338,11.377 26.691,11.779 26.226,11.955 C25.711,12.144 24.769,12.244 23.569,12.238 C22.941,12.238 22.389,12.219 22.338,12.2 z M25.29,11.214 C25.887,11.082 26.264,10.894 26.597,10.548 C27.231,9.901 27.445,9.229 27.451,7.911 C27.451,7.113 27.432,6.943 27.306,6.56 C26.992,5.631 26.503,5.103 25.655,4.764 C25.378,4.651 25.146,4.626 24.241,4.601 L23.155,4.563 L23.155,7.892 C23.155,9.719 23.174,11.239 23.199,11.258 C23.274,11.34 24.876,11.302 25.29,11.214 z" fill="#FFFFFF"/>
      <path d="M19.135,4.695 C18.777,4.632 18.696,4.519 18.696,4.067 C18.696,3.558 18.809,3.451 19.349,3.451 C19.713,3.451 19.77,3.47 19.883,3.615 C20.052,3.828 20.065,4.318 19.908,4.513 C19.757,4.689 19.481,4.758 19.135,4.695 z" fill="#FFFFFF"/>
    </g>
    <g>
      <path d="M1.851,12.261 C1.744,12.236 1.738,11.985 1.738,8.104 C1.738,3.977 1.738,3.971 1.87,3.852 C1.996,3.739 2.115,3.732 3.459,3.732 C4.778,3.739 4.948,3.751 5.343,3.877 C5.789,4.021 6.285,4.316 6.449,4.536 C6.763,4.963 6.844,5.183 6.882,5.73 C6.964,6.848 6.612,7.494 5.701,7.928 C5.255,8.141 5.255,8.097 5.726,8.436 C5.915,8.568 6.254,9.071 6.405,9.448 C6.794,10.427 7.152,11.282 7.196,11.363 C7.221,11.414 7.296,11.621 7.359,11.822 C7.497,12.268 7.466,12.305 6.951,12.305 C6.329,12.305 6.336,12.312 5.959,11.332 C5.852,11.056 5.689,10.635 5.594,10.39 C4.991,8.82 4.608,8.474 3.459,8.474 L2.869,8.474 L2.869,10.314 C2.869,11.665 2.85,12.173 2.793,12.23 C2.718,12.305 2.084,12.324 1.851,12.261 z M4.363,7.532 C5.437,7.381 5.971,6.584 5.689,5.554 C5.62,5.29 5.293,4.894 5.149,4.894 C5.105,4.894 5.067,4.869 5.067,4.838 C5.067,4.725 4.483,4.643 3.691,4.643 L2.869,4.643 L2.869,6.081 C2.869,7.174 2.887,7.532 2.95,7.551 C3.082,7.608 3.943,7.595 4.363,7.532 z" fill="#000001"/>
      <path d="M8.314,12.261 C8.22,12.173 8.283,11.891 8.59,11.068 C8.76,10.591 8.98,10.007 9.068,9.762 C9.155,9.523 9.25,9.266 9.281,9.197 C9.306,9.127 9.35,9.002 9.369,8.914 C9.394,8.826 9.451,8.675 9.495,8.568 C9.539,8.468 9.652,8.154 9.746,7.878 C9.84,7.601 9.959,7.287 10.003,7.174 C10.054,7.067 10.091,6.954 10.091,6.923 C10.091,6.898 10.179,6.647 10.286,6.37 C10.393,6.094 10.531,5.73 10.594,5.554 C10.657,5.384 10.826,4.913 10.971,4.517 C11.115,4.122 11.266,3.776 11.303,3.751 C11.347,3.726 11.624,3.701 11.925,3.701 C12.534,3.701 12.679,3.783 12.767,4.166 C12.792,4.272 12.886,4.561 12.98,4.8 C13.075,5.045 13.326,5.736 13.546,6.339 C13.759,6.942 13.973,7.538 14.017,7.658 C14.067,7.777 14.218,8.204 14.362,8.6 C14.5,8.995 14.638,9.379 14.676,9.448 C14.708,9.517 14.802,9.787 14.89,10.044 C14.978,10.302 15.166,10.842 15.31,11.238 C15.65,12.192 15.65,12.186 15.549,12.249 C15.417,12.331 14.651,12.318 14.532,12.23 C14.475,12.186 14.331,11.853 14.205,11.489 C14.08,11.125 13.96,10.785 13.935,10.735 C13.916,10.685 13.853,10.503 13.797,10.327 L13.696,10.013 L11.913,9.994 C10.531,9.982 10.123,10 10.085,10.057 C10.054,10.101 9.947,10.409 9.84,10.735 C9.733,11.062 9.62,11.388 9.589,11.457 C9.564,11.527 9.488,11.715 9.432,11.885 C9.375,12.048 9.275,12.211 9.212,12.243 C9.08,12.312 8.377,12.331 8.314,12.261 z M13.357,9.083 C13.357,9.039 13.269,8.769 13.163,8.474 C13.062,8.179 12.936,7.827 12.886,7.689 C12.842,7.551 12.66,7.03 12.478,6.527 C12.302,6.025 12.095,5.453 12.026,5.252 C11.95,5.039 11.875,4.907 11.844,4.938 C11.787,4.995 11.435,5.974 10.801,7.846 C10.613,8.418 10.43,8.926 10.399,8.983 C10.368,9.039 10.368,9.102 10.387,9.127 C10.405,9.146 11.084,9.165 11.894,9.165 C13.024,9.165 13.357,9.146 13.357,9.083 z" fill="#000001"/>
    </g>
  </g>
</svg>
