<?xml version="1.0" encoding="UTF-8"?>
<!DOCTYPE svg PUBLIC "-//W3C//DTD SVG 1.1//EN" "http://www.w3.org/Graphics/SVG/1.1/DTD/svg11.dtd">
<svg version="1.1" xmlns="http://www.w3.org/2000/svg" xmlns:xlink="http://www.w3.org/1999/xlink" x="0" y="0" width="31.612" height="15.629" viewBox="0, 0, 31.612, 15.629">
  <g id="Legend" transform="translate(-632.829, -1544.871)">
    <g id="RAID">
      <g id="RAiD">
        <path d="M633.467,1544.971 L663.804,1544.971 C664.156,1544.971 664.442,1545.263 664.442,1545.624 L664.442,1559.769 C664.442,1560.129 664.156,1560.421 663.804,1560.421 L633.467,1560.421 C633.115,1560.421 632.829,1560.129 632.829,1559.769 L632.829,1545.624 C632.829,1545.263 633.115,1544.971 633.467,1544.971 z" fill="#1689C7"/>
        <g>
          <g>
            <path d="M650.959,1545.871 L662.17,1545.871 C662.864,1545.871 663.427,1546.444 663.427,1547.151 L663.427,1558.22 C663.427,1558.927 662.864,1559.5 662.17,1559.5 L650.959,1559.5 C650.266,1559.5 649.703,1558.927 649.703,1558.22 L649.703,1547.151 C649.703,1546.444 650.266,1545.871 650.959,1545.871 z" fill="#FFFFFF"/>
            <path d="M651.459,1546.371 L662.67,1546.371 C663.364,1546.371 663.927,1546.944 663.927,1547.651 L663.927,1558.72 C663.927,1559.427 663.364,1560 662.67,1560 L651.459,1560 C650.766,1560 650.203,1559.427 650.203,1558.72 L650.203,1547.651 C650.203,1546.944 650.766,1546.371 651.459,1546.371 z" fill-opacity="0" stroke="#FFFFFF" stroke-width="1.414"/>
          </g>
          <g>
            <path d="M651.017,1546.619 L662.056,1546.619 C662.4,1546.619 662.679,1546.9 662.679,1547.247 L662.679,1558.294 C662.679,1558.641 662.4,1558.922 662.056,1558.922 L651.017,1558.922 C650.673,1558.922 650.394,1558.641 650.394,1558.294 L650.394,1547.247 C650.394,1546.9 650.673,1546.619 651.017,1546.619 z" fill="#1689C7"/>
            <path d="M651.517,1547.119 L662.556,1547.119 C662.9,1547.119 663.179,1547.4 663.179,1547.747 L663.179,1558.794 C663.179,1559.141 662.9,1559.422 662.556,1559.422 L651.517,1559.422 C651.173,1559.422 650.894,1559.141 650.894,1558.794 L650.894,1547.747 C650.894,1547.4 651.173,1547.119 651.517,1547.119 z" fill-opacity="0" stroke="#1689C7" stroke-width="1.414"/>
          </g>
          <path d="M651.826,1557.176 L651.682,1557.139 L651.663,1554.074 C651.657,1551.857 651.669,1550.977 651.719,1550.921 C651.807,1550.808 652.536,1550.801 652.643,1550.908 C652.731,1550.996 652.749,1556.963 652.668,1557.101 C652.611,1557.182 652.071,1557.233 651.826,1557.176 z" fill="#FFFFFF"/>
          <path d="M655.167,1557.132 C654.916,1557.044 654.916,1557.051 654.916,1552.83 L654.916,1548.76 L655.073,1548.66 C655.218,1548.565 655.406,1548.559 656.788,1548.591 C658.396,1548.628 658.685,1548.672 659.407,1548.98 C660.406,1549.407 661.197,1550.494 661.417,1551.737 C661.473,1552.057 661.473,1553.496 661.417,1553.816 C661.26,1554.714 660.902,1555.512 660.431,1556.021 C660.167,1556.309 659.52,1556.711 659.055,1556.887 C658.54,1557.076 657.598,1557.176 656.398,1557.17 C655.77,1557.17 655.218,1557.151 655.167,1557.132 z M658.119,1556.146 C658.716,1556.014 659.093,1555.826 659.426,1555.48 C660.06,1554.833 660.274,1554.161 660.28,1552.843 C660.28,1552.045 660.261,1551.875 660.135,1551.492 C659.821,1550.563 659.332,1550.035 658.484,1549.696 C658.207,1549.583 657.975,1549.558 657.07,1549.533 L655.984,1549.495 L655.984,1552.824 C655.984,1554.651 656.003,1556.171 656.028,1556.19 C656.103,1556.272 657.705,1556.234 658.119,1556.146 z" fill="#FFFFFF"/>
          <path d="M651.964,1549.627 C651.606,1549.564 651.525,1549.451 651.525,1548.999 C651.525,1548.49 651.638,1548.383 652.178,1548.383 C652.542,1548.383 652.599,1548.402 652.712,1548.547 C652.881,1548.76 652.894,1549.25 652.737,1549.445 C652.586,1549.621 652.31,1549.69 651.964,1549.627 z" fill="#FFFFFF"/>
        </g>
        <g>
          <path d="M634.68,1557.132 C634.573,1557.107 634.567,1556.856 634.567,1552.975 C634.567,1548.848 634.567,1548.842 634.699,1548.723 C634.825,1548.61 634.944,1548.603 636.288,1548.603 C637.607,1548.61 637.777,1548.622 638.172,1548.748 C638.618,1548.892 639.114,1549.187 639.278,1549.407 C639.592,1549.834 639.673,1550.054 639.711,1550.601 C639.793,1551.719 639.441,1552.365 638.53,1552.799 C638.084,1553.012 638.084,1552.968 638.555,1553.307 C638.744,1553.439 639.083,1553.942 639.234,1554.319 C639.623,1555.298 639.981,1556.153 640.025,1556.234 C640.05,1556.285 640.125,1556.492 640.188,1556.693 C640.326,1557.139 640.295,1557.176 639.78,1557.176 C639.158,1557.176 639.165,1557.183 638.788,1556.203 C638.681,1555.927 638.518,1555.506 638.423,1555.261 C637.82,1553.691 637.437,1553.345 636.288,1553.345 L635.698,1553.345 L635.698,1555.185 C635.698,1556.536 635.679,1557.044 635.622,1557.101 C635.547,1557.176 634.913,1557.195 634.68,1557.132 z M637.192,1552.403 C638.266,1552.252 638.8,1551.455 638.518,1550.425 C638.449,1550.161 638.122,1549.765 637.978,1549.765 C637.934,1549.765 637.896,1549.74 637.896,1549.709 C637.896,1549.596 637.312,1549.514 636.52,1549.514 L635.698,1549.514 L635.698,1550.952 C635.698,1552.045 635.716,1552.403 635.779,1552.422 C635.911,1552.479 636.772,1552.466 637.192,1552.403 z" fill="#000001"/>
          <path d="M641.143,1557.132 C641.049,1557.044 641.112,1556.762 641.419,1555.939 C641.589,1555.462 641.809,1554.878 641.897,1554.633 C641.984,1554.394 642.079,1554.137 642.11,1554.068 C642.135,1553.998 642.179,1553.873 642.198,1553.785 C642.223,1553.697 642.28,1553.546 642.324,1553.439 C642.368,1553.339 642.481,1553.025 642.575,1552.749 C642.669,1552.472 642.788,1552.158 642.832,1552.045 C642.883,1551.938 642.92,1551.825 642.92,1551.794 C642.92,1551.769 643.008,1551.518 643.115,1551.241 C643.222,1550.965 643.36,1550.601 643.423,1550.425 C643.486,1550.255 643.655,1549.784 643.8,1549.388 C643.944,1548.993 644.095,1548.647 644.132,1548.622 C644.176,1548.597 644.453,1548.572 644.754,1548.572 C645.363,1548.572 645.508,1548.654 645.596,1549.037 C645.621,1549.143 645.715,1549.432 645.809,1549.671 C645.904,1549.916 646.155,1550.607 646.375,1551.21 C646.588,1551.813 646.802,1552.409 646.846,1552.529 C646.896,1552.648 647.047,1553.075 647.191,1553.471 C647.329,1553.866 647.467,1554.25 647.505,1554.319 C647.537,1554.388 647.631,1554.658 647.719,1554.915 C647.807,1555.173 647.995,1555.713 648.139,1556.109 C648.479,1557.063 648.479,1557.057 648.378,1557.12 C648.246,1557.202 647.48,1557.189 647.361,1557.101 C647.304,1557.057 647.16,1556.724 647.034,1556.36 C646.909,1555.996 646.789,1555.656 646.764,1555.606 C646.745,1555.556 646.682,1555.374 646.626,1555.198 L646.525,1554.884 L644.742,1554.865 C643.36,1554.853 642.952,1554.871 642.914,1554.928 C642.883,1554.972 642.776,1555.28 642.669,1555.606 C642.562,1555.933 642.449,1556.259 642.418,1556.328 C642.393,1556.398 642.317,1556.586 642.261,1556.756 C642.204,1556.919 642.104,1557.082 642.041,1557.114 C641.909,1557.183 641.206,1557.202 641.143,1557.132 z M646.186,1553.954 C646.186,1553.91 646.098,1553.64 645.992,1553.345 C645.891,1553.05 645.765,1552.698 645.715,1552.56 C645.671,1552.422 645.489,1551.901 645.307,1551.398 C645.131,1550.896 644.924,1550.324 644.855,1550.123 C644.779,1549.91 644.704,1549.778 644.673,1549.809 C644.616,1549.866 644.264,1550.845 643.63,1552.717 C643.442,1553.289 643.259,1553.797 643.228,1553.854 C643.197,1553.91 643.197,1553.973 643.216,1553.998 C643.234,1554.017 643.913,1554.036 644.723,1554.036 C645.853,1554.036 646.186,1554.017 646.186,1553.954 z" fill="#000001"/>
        </g>
      </g>
    </g>
  </g>
</svg>
