<?xml version="1.0" encoding="UTF-8"?>
<!DOCTYPE svg PUBLIC "-//W3C//DTD SVG 1.1//EN" "http://www.w3.org/Graphics/SVG/1.1/DTD/svg11.dtd">
<svg version="1.1" xmlns="http://www.w3.org/2000/svg" xmlns:xlink="http://www.w3.org/1999/xlink" x="0" y="0" width="433.089" height="433.735" viewBox="0, 0, 433.089, 433.735">
  <defs>
    <linearGradient id="Gradient_1" gradientUnits="userSpaceOnUse" x1="473.968" y1="-258.139" x2="506.515" y2="-258.139" gradientTransform="matrix(1, 0, 0, -1, -242.441, -73.257)">
      <stop offset="1" stop-color="#00AEEF"/>
      <stop offset="1" stop-color="#004968"/>
    </linearGradient>
  </defs>
  <g id="Structure">
    <path d="M112.165,404.199 C143.055,421.447 178.652,431.277 216.544,431.277 C334.959,431.277 430.953,335.283 430.953,216.868 C430.953,98.454 334.959,2.46 216.545,2.46 C98.13,2.46 2.136,98.454 2.136,216.868 C2.136,288.613 37.375,352.128 91.488,391.049 C93.054,373.832 96.667,340.333 96.077,340.663 C95.639,340.908 136.713,318.137 152.667,309.333 C131.333,293 104.141,264.333 104.141,217.211 C104.14,156.333 153,104.464 216.202,104.465 C280.333,104.466 328.948,156.667 328.948,216.526 C328.948,275.403 283.667,329.273 216.887,329.272 C201.017,329.272 190.727,326.6 175.4,321.6 C161,329.273 116.703,353.634 116.4,353.4 C116.178,353.228 113.667,385.667 112.165,404.199" fill="#E2E2E2"/>
  </g>
  <g id="Inner_arrows">
    <g id="little_arrows">
      <g id="down_arrow">
        <g>
          <path d="M217.415,278.528 L217.326,312.449" fill-opacity="0" stroke="#47CCCC" stroke-width="4.242"/>
          <g>
            <path d="M212.38,312.436 L217.291,325.637 L222.271,312.462 z" fill="#47CCCC"/>
            <path d="M212.38,305.899 L217.291,317 L222.271,305.899 z" fill-opacity="0" stroke="#47CCCC" stroke-width="12"/>
          </g>
        </g>
        <path d="M217.55,278.411 L217.281,314.271" fill-opacity="0" stroke="#47CCCC" stroke-width="12"/>
      </g>
      <g>
        <g id="leftout_arrow">
          <g>
            <path d="M159.497,226.532 L121.895,226.532" fill-opacity="0" stroke="#47CCCC" stroke-width="4.242"/>
            <g>
              <path d="M121.895,221.586 L108.708,226.532 L121.895,231.477 z" fill="#47CCCC"/>
              <path d="M121.895,221.586 L108.708,226.532 L121.895,231.477 z" fill-opacity="0" stroke="#47CCCC" stroke-width="12"/>
            </g>
          </g>
          <path d="M159.403,226.441 L122.206,226.532" fill-opacity="0" stroke="#47CCCC" stroke-width="12"/>
        </g>
        <g id="leftout_arrow">
          <g>
            <path d="M101.459,206.808 L132.223,206.808" fill-opacity="0" stroke="#47CCCC" stroke-width="4.242"/>
            <g>
              <path d="M132.223,211.753 L145.411,206.808 L132.223,201.862 z" fill="#47CCCC"/>
              <path d="M132.223,211.753 L145.411,206.808 L132.223,201.862 z" fill-opacity="0" stroke="#47CCCC" stroke-width="12"/>
            </g>
          </g>
          <path d="M101.459,207.076 L137.202,206.808" fill-opacity="0" stroke="#47CCCC" stroke-width="12"/>
        </g>
      </g>
      <g>
        <g id="leftout_arrow">
          <g>
            <path d="M343.659,226.522 L304.208,226.522" fill-opacity="0" stroke="#47CCCC" stroke-width="4.242"/>
            <g>
              <path d="M304.208,221.577 L291.02,226.522 L304.208,231.468 z" fill="#47CCCC"/>
              <path d="M304.208,221.577 L291.02,226.522 L304.208,231.468 z" fill-opacity="0" stroke="#47CCCC" stroke-width="12"/>
            </g>
          </g>
          <path d="M343.659,226.522 L302.307,226.522" fill-opacity="0" stroke="#47CCCC" stroke-width="12"/>
        </g>
        <g id="leftout_arrow">
          <g>
            <path d="M280.607,206.798 L312.535,206.798" fill-opacity="0" stroke="#47CCCC" stroke-width="4.242"/>
            <g>
              <path d="M312.535,211.744 L325.723,206.798 L312.535,201.853 z" fill="#47CCCC"/>
              <path d="M312.535,211.744 L325.723,206.798 L312.535,201.853 z" fill-opacity="0" stroke="#47CCCC" stroke-width="12"/>
            </g>
          </g>
          <path d="M280.597,206.798 L316.351,206.798" fill-opacity="0" stroke="#47CCCC" stroke-width="12"/>
        </g>
      </g>
      <g>
        <g id="leftout_arrow">
          <g>
            <path d="M207.607,154.894 L207.607,121.809" fill-opacity="0" stroke="#47CCCC" stroke-width="4.242"/>
            <g>
              <path d="M212.552,121.809 L207.607,108.621 L202.661,121.809 z" fill="#47CCCC"/>
              <path d="M212.552,121.809 L207.607,108.621 L202.661,121.809 z" fill-opacity="0" stroke="#47CCCC" stroke-width="12"/>
            </g>
          </g>
          <path d="M207.338,154.894 L207.607,117.808" fill-opacity="0" stroke="#47CCCC" stroke-width="12"/>
        </g>
        <g id="leftout_arrow">
          <g>
            <path d="M227.331,96.283 L227.331,131.324" fill-opacity="0" stroke="#47CCCC" stroke-width="4.242"/>
            <g>
              <path d="M222.385,131.324 L227.331,144.512 L232.276,131.324 z" fill="#47CCCC"/>
              <path d="M222.385,131.324 L227.331,144.512 L232.276,131.324 z" fill-opacity="0" stroke="#47CCCC" stroke-width="12"/>
            </g>
          </g>
          <path d="M227.062,96.283 L227.331,133.368" fill-opacity="0" stroke="#47CCCC" stroke-width="12"/>
        </g>
      </g>
    </g>
    <g>
      <path d="M221.459,387.474 C157.678,388.677 102.456,356.609 71.825,306.236" fill-opacity="0" stroke="#3397A7" stroke-width="12"/>
      <g>
        <path d="M80.489,302.102 L60.8,283.132 L63.161,310.371 z" fill="#3397A7"/>
        <path d="M80.489,302.102 L60.8,283.132 L63.161,310.371 z" fill-opacity="0" stroke="#3397A7" stroke-width="12"/>
      </g>
    </g>
    <g>
      <path d="M46.568,215.099 C48.422,154.486 79.269,101.675 128.735,72.274" fill-opacity="0" stroke="#3397A7" stroke-width="12"/>
      <g>
        <path d="M132.77,80.985 L151.965,61.515 L124.7,63.563 z" fill="#3397A7"/>
        <path d="M132.77,80.985 L151.965,61.515 L124.7,63.563 z" fill-opacity="0" stroke="#3397A7" stroke-width="12"/>
      </g>
    </g>
    <g>
      <path d="M217.259,47.674 C272.978,47.415 330.274,76.419 361.801,128.98" fill-opacity="0" stroke="#3397A7" stroke-width="12"/>
      <g>
        <path d="M353.098,133.031 L372.603,152.19 L370.505,124.93 z" fill="#3397A7"/>
        <path d="M353.098,133.031 L372.603,152.19 L370.505,124.93 z" fill-opacity="0" stroke="#3397A7" stroke-width="12"/>
      </g>
    </g>
  </g>
  <g id="Inner_circle">
    <g id="registries">
      <path d="M218.157,283.362 C181.709,283.362 152.163,253.815 152.163,217.368 C152.163,180.921 181.709,151.375 218.157,151.375 C254.604,151.375 284.15,180.921 284.15,217.368 C284.15,253.815 254.604,283.362 218.157,283.362 z" fill="#FFFFFF"/>
      <path d="M218.157,283.362 C181.709,283.362 152.163,253.815 152.163,217.368 C152.163,180.921 181.709,151.375 218.157,151.375 C254.604,151.375 284.15,180.921 284.15,217.368 C284.15,253.815 254.604,283.362 218.157,283.362 z" fill-opacity="0" stroke="#000000" stroke-width="2.828"/>
    </g>
    <g id="logos">
      <g>
        <path d="M244.887,237.622 L242.415,241.409 L239.941,237.622 L244.887,237.622 z" fill="#53BAA1"/>
        <path d="M255.233,237.622 L252.76,241.409 L250.286,237.622 L255.233,237.622 z" fill="#53BAA1"/>
        <path d="M239.941,260.308 L242.415,256.519 L244.887,260.308 L239.941,260.308 z" fill="#53BAA1"/>
        <path d="M250.286,260.308 L252.76,256.519 L255.233,260.308 L250.286,260.308 z" fill="#53BAA1"/>
        <path d="M260.556,249.759 C261.432,249.596 262.099,249.207 262.553,248.593 C263.01,247.98 263.236,247.234 263.236,246.36 C263.236,245.634 263.11,245.031 262.859,244.546 C262.608,244.061 262.268,243.676 261.842,243.388 C261.416,243.103 260.919,242.897 260.352,242.775 C259.786,242.652 259.186,242.591 258.557,242.591 L253.755,242.591 L253.755,246.429 C253.716,246.317 253.676,246.207 253.631,246.097 C253.298,245.292 252.834,244.605 252.237,244.038 C251.639,243.472 250.934,243.036 250.115,242.732 C249.298,242.428 248.403,242.275 247.433,242.275 C246.463,242.275 245.57,242.428 244.751,242.732 C243.934,243.036 243.226,243.472 242.629,244.038 C242.095,244.546 241.667,245.151 241.345,245.852 C241.298,245.349 241.18,244.913 240.991,244.546 C240.74,244.061 240.4,243.676 239.974,243.388 C239.548,243.103 239.05,242.897 238.484,242.775 C237.917,242.652 237.318,242.591 236.688,242.591 L231.889,242.591 L231.889,254.999 L234.622,254.999 L234.622,250.038 L235.971,250.038 L238.565,254.999 L241.842,254.999 L238.69,249.759 C239.566,249.596 240.232,249.207 240.687,248.593 C240.707,248.565 240.726,248.534 240.746,248.506 C240.742,248.602 240.74,248.697 240.74,248.795 C240.74,249.788 240.907,250.689 241.239,251.494 C241.571,252.299 242.036,252.985 242.633,253.552 C243.228,254.119 243.936,254.555 244.755,254.858 C245.572,255.162 246.467,255.315 247.437,255.315 C248.407,255.315 249.3,255.162 250.119,254.858 C250.936,254.555 251.644,254.119 252.241,253.552 C252.836,252.985 253.3,252.299 253.635,251.494 C253.68,251.386 253.72,251.273 253.759,251.161 L253.759,254.999 L256.492,254.999 L256.492,250.038 L257.841,250.038 L260.436,254.999 L263.713,254.999 L260.556,249.759 z M238.313,247.13 C238.166,247.318 237.982,247.454 237.76,247.542 C237.538,247.629 237.289,247.682 237.016,247.699 C236.741,247.717 236.482,247.725 236.236,247.725 L234.624,247.725 L234.624,244.904 L236.411,244.904 C236.656,244.904 236.908,244.923 237.165,244.957 C237.422,244.992 237.65,245.059 237.848,245.159 C238.046,245.259 238.211,245.402 238.339,245.589 C238.467,245.777 238.533,246.027 238.533,246.343 C238.533,246.68 238.459,246.943 238.313,247.13 z M251.02,250.399 C250.838,250.884 250.58,251.304 250.239,251.661 C249.901,252.017 249.495,252.295 249.021,252.494 C248.548,252.694 248.018,252.792 247.435,252.792 C246.85,252.792 246.322,252.692 245.849,252.494 C245.377,252.297 244.971,252.017 244.631,251.661 C244.292,251.304 244.031,250.884 243.85,250.399 C243.669,249.914 243.579,249.38 243.579,248.795 C243.579,248.222 243.669,247.691 243.85,247.199 C244.031,246.708 244.29,246.286 244.631,245.93 C244.969,245.573 245.374,245.296 245.849,245.096 C246.322,244.898 246.85,244.799 247.435,244.799 C248.02,244.799 248.548,244.898 249.021,245.096 C249.493,245.294 249.899,245.573 250.239,245.93 C250.578,246.286 250.838,246.71 251.02,247.199 C251.201,247.691 251.291,248.222 251.291,248.795 C251.291,249.38 251.201,249.914 251.02,250.399 z M260.179,247.13 C260.032,247.318 259.849,247.454 259.627,247.542 C259.405,247.629 259.156,247.682 258.883,247.699 C258.608,247.717 258.349,247.725 258.102,247.725 L256.49,247.725 L256.49,244.904 L258.277,244.904 C258.522,244.904 258.775,244.923 259.032,244.957 C259.288,244.992 259.517,245.059 259.714,245.159 C259.912,245.259 260.077,245.402 260.205,245.589 C260.334,245.777 260.399,246.027 260.399,246.343 C260.399,246.68 260.326,246.943 260.179,247.13 z" fill="#202826"/>
      </g>
      <g id="datacite">
        <path d="M231.527,191.362 C231.749,191.406 231.971,191.45 232.237,191.495 C244.037,193.846 261.605,190.741 263.867,185.018 C265.642,180.404 255.749,177.121 244.17,177.521 C243.949,177.521 243.727,177.521 243.505,177.565 C249.671,178.186 255.217,180.626 252.999,184.441 C250.559,188.611 240.267,191.406 231.527,191.362" fill="url(#Gradient_1)"/>
        <path d="M257.346,191.317 C255.305,203.739 244.57,196.33 242.041,187.68 C238.359,178.718 241.642,167.184 250.825,173.927 C243.239,170.467 242.44,180.537 245.679,187.724 C248.385,193.713 254.241,197.572 257.08,191.406 C257.213,191.362 257.302,191.362 257.346,191.317 z" fill="#444444"/>
      </g>
      <g id="RAiD">
        <path d="M198.772,207.102 L238.51,207.102 C238.971,207.102 239.345,207.485 239.345,207.957 L239.345,226.485 C239.345,226.957 238.971,227.34 238.51,227.34 L198.772,227.34 C198.311,227.34 197.937,226.957 197.937,226.485 L197.937,207.957 C197.937,207.485 198.311,207.102 198.772,207.102 z" fill="#1689C7"/>
        <g>
          <g>
            <path d="M221.685,208.281 L236.37,208.281 C237.278,208.281 238.015,209.032 238.015,209.958 L238.015,224.457 C238.015,225.383 237.278,226.133 236.37,226.133 L221.685,226.133 C220.776,226.133 220.04,225.383 220.04,224.457 L220.04,209.958 C220.04,209.032 220.776,208.281 221.685,208.281 z" fill="#FFFFFF"/>
            <path d="M222.185,208.781 L236.87,208.781 C237.778,208.781 238.515,209.532 238.515,210.458 L238.515,224.957 C238.515,225.883 237.778,226.633 236.87,226.633 L222.185,226.633 C221.276,226.633 220.54,225.883 220.54,224.957 L220.54,210.458 C220.54,209.532 221.276,208.781 222.185,208.781 z" fill-opacity="0" stroke="#FFFFFF" stroke-width="1.414"/>
          </g>
          <g>
            <path d="M221.76,209.26 L236.22,209.26 C236.671,209.26 237.036,209.629 237.036,210.083 L237.036,224.554 C237.036,225.008 236.671,225.377 236.22,225.377 L221.76,225.377 C221.31,225.377 220.945,225.008 220.945,224.554 L220.945,210.083 C220.945,209.629 221.31,209.26 221.76,209.26 z" fill="#1689C7"/>
            <path d="M222.26,209.76 L236.72,209.76 C237.171,209.76 237.536,210.129 237.536,210.583 L237.536,225.054 C237.536,225.508 237.171,225.877 236.72,225.877 L222.26,225.877 C221.81,225.877 221.445,225.508 221.445,225.054 L221.445,210.583 C221.445,210.129 221.81,209.76 222.26,209.76 z" fill-opacity="0" stroke="#1689C7" stroke-width="1.414"/>
          </g>
          <path d="M222.82,223.089 L222.631,223.04 L222.606,219.025 C222.598,216.121 222.615,214.97 222.68,214.896 C222.796,214.748 223.75,214.739 223.89,214.879 C224.005,214.994 224.03,222.81 223.923,222.991 C223.849,223.098 223.141,223.163 222.82,223.089 z" fill="#FFFFFF"/>
          <path d="M227.197,223.032 C226.868,222.917 226.868,222.925 226.868,217.397 L226.868,212.066 L227.073,211.934 C227.263,211.811 227.51,211.802 229.319,211.844 C231.425,211.893 231.804,211.951 232.75,212.354 C234.058,212.913 235.094,214.336 235.382,215.965 C235.456,216.385 235.456,218.269 235.382,218.688 C235.177,219.865 234.708,220.909 234.091,221.576 C233.745,221.954 232.898,222.481 232.289,222.711 C231.615,222.958 230.381,223.089 228.809,223.081 C227.987,223.081 227.263,223.056 227.197,223.032 z M231.063,221.74 C231.845,221.567 232.339,221.321 232.775,220.868 C233.605,220.021 233.885,219.141 233.893,217.413 C233.893,216.368 233.869,216.146 233.704,215.644 C233.293,214.427 232.651,213.736 231.541,213.291 C231.179,213.143 230.874,213.111 229.69,213.078 L228.266,213.028 L228.266,217.388 C228.266,219.782 228.291,221.773 228.324,221.798 C228.423,221.905 230.52,221.855 231.063,221.74 z" fill="#FFFFFF"/>
          <path d="M223.001,213.201 C222.532,213.119 222.425,212.971 222.425,212.378 C222.425,211.712 222.574,211.572 223.281,211.572 C223.758,211.572 223.832,211.597 223.98,211.786 C224.202,212.066 224.219,212.707 224.013,212.962 C223.816,213.193 223.454,213.283 223.001,213.201 z" fill="#FFFFFF"/>
        </g>
        <g>
          <path d="M200.361,223.032 C200.222,222.999 200.213,222.67 200.213,217.586 C200.213,212.181 200.213,212.173 200.386,212.016 C200.551,211.868 200.707,211.86 202.468,211.86 C204.195,211.868 204.417,211.885 204.936,212.049 C205.52,212.238 206.17,212.625 206.383,212.913 C206.795,213.472 206.902,213.76 206.951,214.476 C207.058,215.94 206.597,216.788 205.404,217.355 C204.82,217.635 204.82,217.577 205.437,218.022 C205.684,218.194 206.128,218.853 206.326,219.346 C206.836,220.63 207.305,221.748 207.362,221.855 C207.395,221.921 207.494,222.193 207.576,222.456 C207.757,223.04 207.716,223.089 207.042,223.089 C206.227,223.089 206.235,223.098 205.742,221.814 C205.602,221.452 205.388,220.901 205.265,220.58 C204.475,218.524 203.973,218.071 202.468,218.071 L201.694,218.071 L201.694,220.481 C201.694,222.25 201.67,222.917 201.595,222.991 C201.497,223.089 200.666,223.114 200.361,223.032 z M203.652,216.837 C205.059,216.64 205.758,215.595 205.388,214.246 C205.297,213.9 204.87,213.382 204.681,213.382 C204.623,213.382 204.574,213.349 204.574,213.308 C204.574,213.16 203.808,213.053 202.772,213.053 L201.694,213.053 L201.694,214.937 C201.694,216.368 201.719,216.837 201.801,216.862 C201.974,216.936 203.101,216.919 203.652,216.837 z" fill="#000001"/>
          <path d="M208.827,223.032 C208.703,222.917 208.786,222.546 209.189,221.469 C209.411,220.843 209.699,220.078 209.814,219.758 C209.929,219.445 210.053,219.108 210.094,219.017 C210.127,218.927 210.184,218.762 210.209,218.647 C210.242,218.532 210.316,218.334 210.373,218.194 C210.431,218.063 210.579,217.652 210.702,217.29 C210.826,216.928 210.982,216.516 211.04,216.368 C211.106,216.228 211.155,216.08 211.155,216.039 C211.155,216.006 211.27,215.677 211.41,215.315 C211.55,214.953 211.731,214.476 211.813,214.246 C211.895,214.024 212.117,213.407 212.307,212.888 C212.496,212.37 212.693,211.918 212.743,211.885 C212.8,211.852 213.162,211.819 213.557,211.819 C214.355,211.819 214.544,211.926 214.659,212.428 C214.692,212.567 214.816,212.946 214.939,213.259 C215.063,213.579 215.392,214.484 215.68,215.274 C215.959,216.064 216.239,216.845 216.297,217.002 C216.362,217.158 216.56,217.717 216.749,218.236 C216.93,218.754 217.111,219.256 217.16,219.346 C217.201,219.437 217.325,219.79 217.44,220.128 C217.555,220.465 217.802,221.173 217.991,221.691 C218.435,222.941 218.435,222.933 218.304,223.015 C218.131,223.122 217.127,223.106 216.971,222.991 C216.897,222.933 216.708,222.497 216.543,222.02 C216.379,221.543 216.223,221.098 216.19,221.033 C216.165,220.967 216.083,220.728 216.009,220.498 L215.877,220.087 L213.541,220.062 C211.731,220.046 211.196,220.07 211.147,220.144 C211.106,220.202 210.966,220.605 210.826,221.033 C210.686,221.46 210.538,221.888 210.497,221.979 C210.464,222.069 210.365,222.316 210.291,222.538 C210.217,222.752 210.085,222.966 210.003,223.007 C209.83,223.098 208.909,223.122 208.827,223.032 z M215.433,218.869 C215.433,218.812 215.318,218.458 215.178,218.071 C215.046,217.684 214.882,217.224 214.816,217.043 C214.758,216.862 214.52,216.179 214.281,215.521 C214.051,214.863 213.779,214.114 213.689,213.851 C213.59,213.571 213.491,213.398 213.45,213.439 C213.376,213.514 212.915,214.797 212.085,217.248 C211.838,217.997 211.599,218.663 211.558,218.737 C211.517,218.812 211.517,218.894 211.542,218.927 C211.566,218.951 212.455,218.976 213.516,218.976 C214.997,218.976 215.433,218.951 215.433,218.869 z" fill="#000001"/>
        </g>
      </g>
      <g id="Xref">
        <path d="M175.357,200.986 L175.357,191.396 L183.216,188.823 L197.157,193.594 z" fill="#3EB1C8"/>
        <path d="M189.298,181.432 L175.357,186.25 L183.216,188.823 L197.157,184.051 z" fill="#D8D2C4"/>
        <path d="M183.216,188.823 L197.157,184.051 L197.157,193.594 z" fill="#4F5858"/>
        <path d="M197.157,169.315 L197.157,178.859 L189.298,181.432 L175.357,176.66 z" fill="#FFC72C"/>
        <path d="M189.298,181.431 L175.357,186.25 L175.357,176.66 z" fill="#EF3340"/>
      </g>
      <g id="ORCID_iD_(1)">
        <path d="M201.275,248.72 C201.275,257.392 194.552,264.42 186.257,264.42 C177.962,264.42 171.239,257.392 171.239,248.72 C171.239,240.049 177.962,233.021 186.257,233.021 C194.552,233.021 201.275,240.049 201.275,248.72 z" fill="#A6CE39"/>
        <g>
          <path d="M181.364,255.859 L179.557,255.859 L179.557,242.723 L181.364,242.723 L181.364,248.659 L181.364,255.859 z" fill="#FFFFFF"/>
          <path d="M184.016,242.723 L188.897,242.723 C193.543,242.723 195.585,246.194 195.585,249.297 C195.585,252.67 193.062,255.871 188.92,255.871 L184.016,255.871 L184.016,242.723 z M185.823,254.166 L188.697,254.166 C192.792,254.166 193.731,250.916 193.731,249.297 C193.731,246.66 192.123,244.428 188.603,244.428 L185.823,244.428 L185.823,254.166 z" fill="#FFFFFF"/>
          <path d="M181.646,239.988 C181.646,240.663 181.118,241.227 180.461,241.227 C179.804,241.227 179.276,240.663 179.276,239.988 C179.276,239.301 179.804,238.749 180.461,238.749 C181.118,238.749 181.646,239.313 181.646,239.988 z" fill="#FFFFFF"/>
        </g>
      </g>
    </g>
    <g>
      <g id="entitey_right">
        <path d="M380.272,265.979 C353.588,265.979 331.956,244.347 331.956,217.663 C331.956,190.978 353.588,169.346 380.272,169.346 C406.957,169.346 428.589,190.978 428.589,217.663 C428.589,244.347 406.957,265.979 380.272,265.979 z" fill="#FFFFFF"/>
        <path d="M380.272,265.979 C353.588,265.979 331.956,244.347 331.956,217.663 C331.956,190.978 353.588,169.346 380.272,169.346 C406.957,169.346 428.589,190.978 428.589,217.663 C428.589,244.347 406.957,265.979 380.272,265.979 z" fill-opacity="0" stroke="#000000" stroke-width="2.828"/>
      </g>
      <g id="entitey_left">
        <path d="M53.817,265.977 C27.132,265.977 5.5,244.345 5.5,217.661 C5.5,190.976 27.132,169.344 53.817,169.344 C80.501,169.344 102.133,190.976 102.133,217.661 C102.133,244.345 80.501,265.977 53.817,265.977 z" fill="#FFFFFF"/>
        <path d="M53.817,265.977 C27.132,265.977 5.5,244.345 5.5,217.661 C5.5,190.976 27.132,169.344 53.817,169.344 C80.501,169.344 102.133,190.976 102.133,217.661 C102.133,244.345 80.501,265.977 53.817,265.977 z" fill-opacity="0" stroke="#000000" stroke-width="2.828"/>
      </g>
      <g id="entitey_bottom">
        <path d="M217.163,429.235 C190.478,429.235 168.846,407.603 168.846,380.919 C168.846,354.234 190.478,332.602 217.163,332.602 C243.847,332.602 265.479,354.234 265.479,380.919 C265.479,407.603 243.847,429.235 217.163,429.235 z" fill="#FFFFFF"/>
        <path d="M217.163,429.235 C190.478,429.235 168.846,407.603 168.846,380.919 C168.846,354.234 190.478,332.602 217.163,332.602 C243.847,332.602 265.479,354.234 265.479,380.919 C265.479,407.603 243.847,429.235 217.163,429.235 z" fill-opacity="0" stroke="#000000" stroke-width="2.828"/>
      </g>
      <g id="entitey_top">
        <path d="M217.506,102.133 C190.822,102.133 169.19,80.501 169.19,53.816 C169.19,27.132 190.822,5.5 217.506,5.5 C244.191,5.5 265.823,27.132 265.823,53.816 C265.823,80.501 244.191,102.133 217.506,102.133 z" fill="#FFFFFF"/>
        <path d="M217.506,102.133 C190.822,102.133 169.19,80.501 169.19,53.816 C169.19,27.132 190.822,5.5 217.506,5.5 C244.191,5.5 265.823,27.132 265.823,53.816 C265.823,80.501 244.191,102.133 217.506,102.133 z" fill-opacity="0" stroke="#000000" stroke-width="2.828"/>
      </g>
      <g id="top_logos">
        <path d="M217.005,58.4 C211.995,58.4 207.933,62.462 207.933,67.472 C207.933,72.483 211.995,76.545 217.005,76.545 C222.016,76.545 226.078,72.483 226.078,67.472 C226.078,62.462 222.016,58.4 217.005,58.4 z M225.152,76.362 C222.93,78.404 220.023,79.539 217.005,79.544 C213.992,79.538 211.09,78.406 208.869,76.369 C204.363,79.352 201.621,84.593 201.613,90.236 C201.616,90.317 201.62,90.398 201.624,90.479 L232.389,90.479 C232.393,90.398 232.396,90.317 232.399,90.236 C232.396,84.593 229.658,79.35 225.155,76.363 z" fill="#404040" id="Person"/>
        <path d="M217.005,16.154 L234.632,23.205 L234.632,25.554 L232.283,25.554 C232.283,25.871 232.157,26.148 231.905,26.382 C231.653,26.615 231.358,26.731 231.013,26.731 L202.996,26.731 C202.654,26.731 202.356,26.615 202.104,26.382 C201.852,26.148 201.726,25.874 201.726,25.554 L199.377,25.554 L199.377,23.205 L217.005,16.154 z M204.079,27.903 L208.781,27.903 L208.781,42.005 L211.13,42.005 L211.13,27.903 L215.832,27.903 L215.832,42.005 L218.181,42.005 L218.181,27.903 L222.883,27.903 L222.883,42.005 L225.232,42.005 L225.232,27.903 L229.934,27.903 L229.934,42.005 L231.017,42.005 C231.358,42.005 231.657,42.12 231.909,42.354 C232.161,42.588 232.287,42.862 232.287,43.182 L232.287,44.358 L201.726,44.358 L201.726,43.182 C201.726,42.865 201.852,42.588 202.104,42.354 C202.356,42.12 202.651,42.005 202.996,42.005 L204.079,42.005 L204.079,27.903 z M233.366,45.531 C233.708,45.531 234.006,45.646 234.258,45.88 C234.51,46.114 234.636,46.387 234.636,46.707 L234.636,49.056 L199.377,49.056 L199.377,46.707 C199.377,46.391 199.503,46.114 199.755,45.88 C200.007,45.646 200.302,45.531 200.647,45.531 L233.366,45.531 z" fill="#3F3F3F" id="Inst"/>
      </g>
      <g id="bottom_logos">
        <path d="M216.662,385.502 C211.651,385.502 207.589,389.564 207.589,394.575 C207.589,399.585 211.651,403.648 216.662,403.648 C221.672,403.648 225.734,399.585 225.734,394.575 C225.734,389.564 221.672,385.502 216.662,385.502 z M224.808,403.465 C222.586,405.506 219.679,406.641 216.662,406.646 C213.648,406.64 210.746,405.508 208.525,403.471 C204.02,406.454 201.277,411.695 201.27,417.338 C201.273,417.419 201.276,417.5 201.28,417.581 L232.045,417.581 C232.049,417.5 232.053,417.419 232.056,417.338 C232.052,411.695 229.314,406.452 224.811,403.465 z" fill="#404040" id="Person"/>
        <path d="M216.661,343.256 L234.288,350.307 L234.288,352.656 L231.939,352.656 C231.939,352.973 231.813,353.25 231.562,353.484 C231.31,353.718 231.015,353.833 230.669,353.833 L202.652,353.833 C202.311,353.833 202.012,353.718 201.76,353.484 C201.508,353.25 201.382,352.977 201.382,352.656 L199.033,352.656 L199.033,350.307 L216.661,343.256 z M203.735,355.006 L208.437,355.006 L208.437,369.108 L210.786,369.108 L210.786,355.006 L215.488,355.006 L215.488,369.108 L217.837,369.108 L217.837,355.006 L222.539,355.006 L222.539,369.108 L224.888,369.108 L224.888,355.006 L229.59,355.006 L229.59,369.108 L230.673,369.108 C231.015,369.108 231.313,369.223 231.565,369.457 C231.817,369.69 231.943,369.964 231.943,370.284 L231.943,371.46 L201.382,371.46 L201.382,370.284 C201.382,369.967 201.508,369.69 201.76,369.457 C202.012,369.223 202.307,369.108 202.652,369.108 L203.735,369.108 L203.735,355.006 z M233.022,372.633 C233.364,372.633 233.663,372.748 233.914,372.982 C234.166,373.216 234.292,373.489 234.292,373.81 L234.292,376.159 L199.033,376.159 L199.033,373.81 C199.033,373.493 199.159,373.216 199.411,372.982 C199.663,372.748 199.958,372.633 200.303,372.633 L233.022,372.633 z" fill="#3F3F3F" id="Inst"/>
      </g>
      <g id="Funder">
        <g id="Dollar">
          <path d="M51.233,218.065 C47.937,218.065 45.265,215.392 45.265,212.096 C45.265,208.8 47.937,206.127 51.233,206.127 C54.53,206.127 57.202,208.8 57.202,212.096 C57.202,215.392 54.53,218.065 51.233,218.065 z" fill="#3F3F3F"/>
          <path d="M51.724,214.187 L50.769,214.187 C50.356,214.187 50.02,213.851 50.02,213.438 L48.858,213.438 C48.858,214.471 49.659,215.297 50.665,215.349 L50.665,216.33 L51.827,216.33 L51.827,215.349 C52.834,215.297 53.634,214.445 53.634,213.438 C53.634,212.38 52.756,211.502 51.698,211.502 L50.743,211.502 C50.33,211.502 49.994,211.167 49.994,210.754 C49.994,210.341 50.33,210.005 50.743,210.005 L51.698,210.005 C52.111,210.005 52.446,210.341 52.446,210.754 L53.608,210.754 C53.608,209.721 52.808,208.895 51.801,208.844 L51.801,207.863 L50.64,207.863 L50.64,208.844 C49.633,208.895 48.833,209.747 48.833,210.754 C48.833,211.812 49.71,212.69 50.769,212.69 L51.724,212.69 C52.137,212.69 52.472,213.025 52.472,213.438 C52.472,213.851 52.137,214.187 51.724,214.187 z" fill="#FFFFFF"/>
        </g>
        <path d="M77.097,224.665 C76.779,223.498 76.036,222.49 74.922,221.907 C73.861,221.323 72.588,221.164 71.421,221.535 L60.226,225.09 C59.855,224.718 59.43,224.453 59.006,224.241 L50.57,220.899 C48.236,219.944 45.583,219.784 43.195,220.421 L37.359,221.96 L37.359,221.058 C37.359,220.315 36.776,219.678 35.98,219.678 L28.234,219.678 C27.491,219.678 26.854,220.262 26.854,221.058 L26.854,238.248 C26.854,238.99 27.438,239.627 28.234,239.627 L35.98,239.627 C36.723,239.627 37.359,239.043 37.359,238.248 L37.359,237.133 L55.186,240.211 C55.769,240.317 56.3,240.37 56.884,240.37 C58.9,240.37 60.916,239.733 62.613,238.513 L75.4,229.44 C76.885,228.379 77.575,226.469 77.097,224.665 z M73.808,227.265 L60.969,236.338 C59.377,237.452 57.467,237.929 55.557,237.558 L37.306,234.428 L37.306,224.772 L43.885,223.074 C45.795,222.596 47.811,222.702 49.615,223.445 L57.998,226.788 C58.21,226.894 58.422,227.053 58.475,227.265 C58.581,227.477 58.581,227.743 58.475,227.955 C58.316,228.326 57.892,228.538 57.52,228.485 L47.599,226.894 C46.856,226.735 46.166,227.265 46.06,228.008 C45.954,228.751 46.432,229.44 47.174,229.546 L57.096,231.138 C57.308,231.191 57.467,231.191 57.679,231.191 C59.112,231.191 60.438,230.342 61.022,228.963 C61.234,228.485 61.287,228.008 61.287,227.53 L72.269,224.082 C72.747,223.923 73.224,223.976 73.649,224.241 C74.073,224.453 74.392,224.878 74.498,225.302 C74.657,226.098 74.392,226.841 73.808,227.265 z" fill="#3F3F3F"/>
        <g id="Pound">
          <path d="M64.921,222.172 C61.625,222.172 58.953,219.5 58.953,216.203 C58.953,212.907 61.625,210.234 64.921,210.234 C68.218,210.234 70.89,212.907 70.89,216.203 C70.89,219.5 68.218,222.172 64.921,222.172 z" fill="#3F3F3F"/>
          <path d="M66.298,218.639 C66.106,218.713 65.9,218.698 65.738,218.595 C65.4,218.374 65.002,218.286 64.605,218.316 C64.723,217.933 64.782,217.535 64.782,217.138 L66.622,217.138 L66.622,216.034 L64.605,216.034 C64.546,215.813 64.472,215.578 64.369,215.371 C64.104,214.797 64.09,214.547 64.09,214.488 C64.09,214.017 64.458,213.649 64.958,213.649 C65.444,213.649 65.827,214.032 65.827,214.518 L65.827,215.121 L67.078,215.121 L67.078,214.503 C67.078,213.34 66.136,212.383 64.958,212.383 C63.766,212.383 62.838,213.296 62.838,214.459 C62.838,214.812 62.971,215.268 63.236,215.857 C63.265,215.901 63.28,215.96 63.295,216.019 L62.515,216.019 L62.515,217.123 L63.516,217.123 C63.516,217.609 63.398,218.08 63.162,218.536 L63.118,218.61 L62.235,218.801 L62.5,220.023 L64.59,219.567 C64.752,219.537 64.914,219.567 65.047,219.64 C65.562,219.964 66.209,220.023 66.769,219.788 L67.608,219.42 L67.122,218.271 L66.298,218.639 z" fill="#FFFFFF"/>
        </g>
        <g id="Yen">
          <path d="M72.349,209.969 C69.053,209.969 66.38,207.297 66.38,204 C66.38,200.704 69.053,198.032 72.349,198.032 C75.645,198.032 78.318,200.704 78.318,204 C78.318,207.297 75.645,209.969 72.349,209.969 z" fill="#3F3F3F"/>
          <path d="M74.593,200.478 L72.349,203.173 L70.105,200.478 C69.917,200.252 69.582,200.222 69.357,200.409 C69.131,200.597 69.1,200.931 69.288,201.157 L71.659,204.001 L70.757,204.001 C70.464,204.001 70.227,204.238 70.227,204.531 C70.227,204.824 70.464,205.062 70.757,205.062 L71.818,205.062 L71.818,205.593 L70.757,205.593 C70.464,205.593 70.227,205.83 70.227,206.123 C70.227,206.416 70.464,206.654 70.757,206.654 L71.818,206.654 L71.818,207.184 C71.818,207.477 72.056,207.715 72.349,207.715 C72.642,207.715 72.88,207.477 72.88,207.184 L72.88,206.654 L73.941,206.654 C74.234,206.654 74.471,206.416 74.471,206.123 C74.471,205.83 74.234,205.593 73.941,205.593 L72.88,205.593 L72.88,205.062 L73.941,205.062 C74.234,205.062 74.471,204.824 74.471,204.531 C74.471,204.238 74.234,204.001 73.941,204.001 L73.039,204.001 L75.41,201.157 C75.598,200.931 75.567,200.597 75.341,200.409 C75.116,200.222 74.781,200.252 74.593,200.478 z" fill="#FFFFFF"/>
        </g>
        <path d="M58.475,193.951 C55.154,193.951 52.453,196.652 52.453,199.973 C52.453,203.295 55.154,205.995 58.475,205.995 C61.797,205.995 64.497,203.295 64.497,199.973 C64.497,196.652 61.797,193.951 58.475,193.951 z M59.02,198.845 C59.084,198.845 59.122,198.896 59.122,198.946 L59.122,199.491 C59.122,199.555 59.071,199.593 59.02,199.593 L57.093,199.593 C57.081,199.72 57.068,199.846 57.068,199.973 C57.068,200.1 57.081,200.214 57.093,200.341 L59.02,200.341 C59.084,200.341 59.122,200.391 59.122,200.442 L59.122,200.987 C59.122,201.051 59.071,201.089 59.02,201.089 L57.334,201.089 C57.664,201.748 58.272,202.204 58.97,202.204 C59.413,202.204 59.844,202.014 60.187,201.685 C60.225,201.647 60.288,201.647 60.326,201.685 L60.935,202.242 C60.973,202.28 60.985,202.356 60.935,202.394 C60.389,202.94 59.692,203.244 58.97,203.244 C57.715,203.244 56.637,202.344 56.219,201.089 L55.509,201.089 C55.445,201.089 55.407,201.038 55.407,200.987 L55.407,200.442 C55.407,200.379 55.458,200.341 55.509,200.341 L56.054,200.341 C56.041,200.214 56.028,200.1 56.028,199.973 C56.028,199.846 56.041,199.72 56.054,199.605 L55.509,199.605 C55.445,199.605 55.407,199.555 55.407,199.504 L55.407,198.959 C55.407,198.896 55.458,198.858 55.509,198.858 L56.219,198.858 C56.637,197.602 57.702,196.702 58.97,196.702 C59.705,196.702 60.402,197.007 60.935,197.552 C60.973,197.59 60.973,197.666 60.935,197.704 L60.326,198.262 C60.288,198.3 60.225,198.3 60.187,198.262 C59.844,197.919 59.413,197.729 58.97,197.729 C58.272,197.729 57.664,198.173 57.334,198.845 L59.02,198.845 z" fill="#3F3F3F"/>
      </g>
      <g id="right_logo">
        <g id="article">
          <path d="M369.445,177.868 L384.284,177.868 L394.639,188.272 L394.639,216.152 L369.445,216.152 L369.445,177.868 z" fill="#3F3F3F"/>
          <path d="M371.776,180.513 L382.983,180.513 L392.308,189.568 L392.308,213.507 L371.776,213.507 L371.776,180.513 z" fill="#FFFFFF"/>
          <path d="M380.582,179.42 L383.093,179.42 L383.093,191.795 L380.582,191.795 L380.582,179.42 z" fill="#3F3F3F"/>
          <path d="M394.569,189.464 L394.569,191.974 L380.582,191.974 L380.582,189.464 L394.569,189.464 z" fill="#3F3F3F"/>
          <path d="M373.522,194.186 L389.75,194.186 L389.75,196.249 L373.522,196.249 L373.522,194.186 z" fill="#3F3F3F"/>
          <path d="M373.522,209.205 L389.75,209.205 L389.75,211.267 L373.522,211.267 L373.522,209.205 z" fill="#3F3F3F"/>
          <path d="M373.522,199.193 L389.75,199.193 L389.75,201.255 L373.522,201.255 L373.522,199.193 z" fill="#3F3F3F"/>
          <path d="M373.522,204.199 L389.75,204.199 L389.75,206.261 L373.522,206.261 L373.522,204.199 z" fill="#3F3F3F"/>
          <path d="M373.522,189.18 L378.812,189.18 L378.812,191.242 L373.522,191.242 L373.522,189.18 z" fill="#3F3F3F"/>
          <path d="M373.522,184.174 L378.812,184.174 L378.812,186.236 L373.522,186.236 L373.522,184.174 z" fill="#3F3F3F"/>
        </g>
        <g id="data">
          <g id="rect3058">
            <path d="M362.966,247.553 L366.284,247.553 L366.284,252.957 L362.966,252.957 z" fill="#3F3F3F"/>
            <path d="M362.966,247.553 L366.284,247.553 L366.284,252.957 L362.966,252.957 z" fill-opacity="0" stroke="#FFFFFF" stroke-width="1.152"/>
          </g>
          <g id="rect3060">
            <path d="M366.948,249.355 L370.265,249.355 L370.265,252.957 L366.948,252.957 z" fill="#3F3F3F"/>
            <path d="M366.948,249.355 L370.265,249.355 L370.265,252.957 L366.948,252.957 z" fill-opacity="0" stroke="#FFFFFF" stroke-width="1.152"/>
          </g>
          <g id="rect3062">
            <path d="M370.929,243.951 L374.247,243.951 L374.247,252.958 L370.929,252.958 z" fill="#3F3F3F"/>
            <path d="M370.929,243.951 L374.247,243.951 L374.247,252.958 L370.929,252.958 z" fill-opacity="0" stroke="#FFFFFF" stroke-width="1.152"/>
          </g>
          <g id="rect3064">
            <path d="M374.911,238.546 L378.229,238.546 L378.229,252.957 L374.911,252.957 z" fill="#3F3F3F"/>
            <path d="M374.911,238.546 L378.229,238.546 L378.229,252.957 L374.911,252.957 z" fill-opacity="0" stroke="#FFFFFF" stroke-width="1.152"/>
          </g>
          <g id="rect3066">
            <path d="M378.892,231.341 L382.21,231.341 L382.21,252.957 L378.892,252.957 z" fill="#3F3F3F"/>
            <path d="M378.892,231.341 L382.21,231.341 L382.21,252.957 L378.892,252.957 z" fill-opacity="0" stroke="#FFFFFF" stroke-width="1.152"/>
          </g>
          <g id="rect3068">
            <path d="M382.874,222.335 L386.192,222.335 L386.192,252.957 L382.874,252.957 z" fill="#3F3F3F"/>
            <path d="M382.874,222.335 L386.192,222.335 L386.192,252.957 L382.874,252.957 z" fill-opacity="0" stroke="#FFFFFF" stroke-width="1.152"/>
          </g>
          <g id="rect3070">
            <path d="M386.855,227.738 L390.173,227.738 L390.173,252.958 L386.855,252.958 z" fill="#3F3F3F"/>
            <path d="M386.855,227.738 L390.173,227.738 L390.173,252.958 L386.855,252.958 z" fill-opacity="0" stroke="#FFFFFF" stroke-width="1.152"/>
          </g>
          <g id="rect3072">
            <path d="M390.837,238.546 L394.155,238.546 L394.155,252.957 L390.837,252.957 z" fill="#3F3F3F"/>
            <path d="M390.837,238.546 L394.155,238.546 L394.155,252.957 L390.837,252.957 z" fill-opacity="0" stroke="#FFFFFF" stroke-width="1.152"/>
          </g>
          <g id="rect3074">
            <path d="M394.819,242.149 L398.137,242.149 L398.137,252.958 L394.819,252.958 z" fill="#3F3F3F"/>
            <path d="M394.819,242.149 L398.137,242.149 L398.137,252.958 L394.819,252.958 z" fill-opacity="0" stroke="#FFFFFF" stroke-width="1.152"/>
          </g>
          <g id="rect3076">
            <path d="M398.8,247.553 L402.118,247.553 L402.118,252.957 L398.8,252.957 z" fill="#3F3F3F"/>
            <path d="M398.8,247.553 L402.118,247.553 L402.118,252.957 L398.8,252.957 z" fill-opacity="0" stroke="#FFFFFF" stroke-width="1.152"/>
          </g>
        </g>
      </g>
    </g>
  </g>
</svg>
