<?xml version="1.0" encoding="UTF-8"?>
<!DOCTYPE svg PUBLIC "-//W3C//DTD SVG 1.1//EN" "http://www.w3.org/Graphics/SVG/1.1/DTD/svg11.dtd">
<svg version="1.1" xmlns="http://www.w3.org/2000/svg" xmlns:xlink="http://www.w3.org/1999/xlink" x="0" y="0" width="28.668" height="20.436" viewBox="0, 0, 28.668, 20.436">
  <g id="Legend" transform="translate(-634.302, -1577.22)">
    <g id="ROR">
      <g>
        <path d="M646.011,1577.22 L643.784,1580.632 L641.555,1577.22 L646.011,1577.22 z" fill="#53BAA1"/>
        <path d="M655.33,1577.22 L653.103,1580.632 L650.875,1577.22 L655.33,1577.22 z" fill="#53BAA1"/>
        <path d="M641.555,1597.656 L643.784,1594.243 L646.011,1597.656 L641.555,1597.656 z" fill="#53BAA1"/>
        <path d="M650.875,1597.656 L653.103,1594.243 L655.33,1597.656 L650.875,1597.656 z" fill="#53BAA1"/>
        <path d="M660.126,1588.153 C660.915,1588.006 661.515,1587.656 661.925,1587.103 C662.336,1586.551 662.54,1585.879 662.54,1585.091 C662.54,1584.437 662.426,1583.894 662.2,1583.457 C661.974,1583.02 661.668,1582.673 661.284,1582.414 C660.9,1582.157 660.452,1581.972 659.942,1581.862 C659.432,1581.751 658.892,1581.696 658.325,1581.696 L653.999,1581.696 L653.999,1585.153 C653.964,1585.052 653.928,1584.953 653.887,1584.854 C653.588,1584.129 653.169,1583.51 652.631,1583 C652.094,1582.49 651.458,1582.097 650.72,1581.823 C649.984,1581.549 649.178,1581.412 648.304,1581.412 C647.43,1581.412 646.626,1581.549 645.888,1581.823 C645.152,1582.097 644.515,1582.49 643.977,1583 C643.496,1583.457 643.11,1584.002 642.82,1584.634 C642.778,1584.18 642.672,1583.787 642.501,1583.457 C642.275,1583.02 641.968,1582.673 641.585,1582.414 C641.201,1582.157 640.753,1581.972 640.243,1581.862 C639.732,1581.751 639.193,1581.696 638.625,1581.696 L634.302,1581.696 L634.302,1592.873 L636.764,1592.873 L636.764,1588.405 L637.979,1588.405 L640.316,1592.873 L643.268,1592.873 L640.428,1588.153 C641.218,1588.006 641.818,1587.656 642.227,1587.103 C642.246,1587.077 642.262,1587.05 642.281,1587.024 C642.277,1587.11 642.275,1587.197 642.275,1587.285 C642.275,1588.179 642.426,1588.99 642.725,1589.716 C643.024,1590.441 643.443,1591.06 643.981,1591.57 C644.517,1592.08 645.154,1592.473 645.892,1592.747 C646.628,1593.02 647.434,1593.158 648.308,1593.158 C649.182,1593.158 649.986,1593.02 650.724,1592.747 C651.46,1592.473 652.097,1592.08 652.635,1591.57 C653.171,1591.06 653.59,1590.441 653.891,1589.716 C653.931,1589.618 653.968,1589.517 654.003,1589.416 L654.003,1592.873 L656.465,1592.873 L656.465,1588.405 L657.68,1588.405 L660.017,1592.873 L662.969,1592.873 L660.126,1588.153 z M640.088,1585.785 C639.956,1585.954 639.791,1586.077 639.591,1586.156 C639.391,1586.235 639.167,1586.282 638.921,1586.297 C638.673,1586.314 638.44,1586.321 638.218,1586.321 L636.765,1586.321 L636.765,1583.78 L638.376,1583.78 C638.596,1583.78 638.823,1583.797 639.055,1583.828 C639.286,1583.859 639.492,1583.92 639.67,1584.01 C639.848,1584.1 639.997,1584.228 640.112,1584.397 C640.228,1584.566 640.287,1584.792 640.287,1585.076 C640.287,1585.379 640.221,1585.616 640.088,1585.785 z M651.535,1588.73 C651.372,1589.167 651.139,1589.545 650.832,1589.866 C650.527,1590.188 650.162,1590.437 649.734,1590.617 C649.308,1590.797 648.831,1590.885 648.306,1590.885 C647.779,1590.885 647.304,1590.795 646.878,1590.617 C646.452,1590.439 646.086,1590.188 645.78,1589.866 C645.475,1589.545 645.24,1589.167 645.077,1588.73 C644.913,1588.293 644.832,1587.812 644.832,1587.285 C644.832,1586.769 644.913,1586.29 645.077,1585.847 C645.24,1585.405 645.473,1585.025 645.78,1584.704 C646.085,1584.382 646.45,1584.133 646.878,1583.953 C647.304,1583.775 647.779,1583.685 648.306,1583.685 C648.833,1583.685 649.308,1583.775 649.734,1583.953 C650.16,1584.131 650.526,1584.382 650.832,1584.704 C651.137,1585.025 651.372,1585.407 651.535,1585.847 C651.699,1586.29 651.78,1586.769 651.78,1587.285 C651.78,1587.812 651.699,1588.293 651.535,1588.73 z M659.786,1585.785 C659.654,1585.954 659.489,1586.077 659.288,1586.156 C659.088,1586.235 658.864,1586.282 658.618,1586.297 C658.37,1586.314 658.137,1586.321 657.915,1586.321 L656.463,1586.321 L656.463,1583.78 L658.073,1583.78 C658.293,1583.78 658.521,1583.797 658.752,1583.828 C658.984,1583.859 659.189,1583.92 659.367,1584.01 C659.545,1584.1 659.694,1584.228 659.81,1584.397 C659.926,1584.566 659.984,1584.792 659.984,1585.076 C659.984,1585.379 659.918,1585.616 659.786,1585.785 z" fill="#202826"/>
      </g>
    </g>
  </g>
</svg>
