<?xml version="1.0" encoding="UTF-8"?>
<!DOCTYPE svg PUBLIC "-//W3C//DTD SVG 1.1//EN" "http://www.w3.org/Graphics/SVG/1.1/DTD/svg11.dtd">
<svg version="1.1" xmlns="http://www.w3.org/2000/svg" xmlns:xlink="http://www.w3.org/1999/xlink" x="0" y="0" width="43" height="12" viewBox="0, 0, 43, 12">
  <g id="Legend">
    <path d="M29.667,11.432 L32.467,7.144 L35.265,11.432 L29.667,11.432 z" fill="#53BAA1"/>
    <path d="M25.824,6.741 C26.613,6.594 27.213,6.244 27.623,5.691 C28.034,5.139 28.238,4.467 28.238,3.679 C28.238,3.025 28.124,2.482 27.898,2.045 C27.672,1.608 27.366,1.261 26.982,1.002 C26.598,0.745 26.15,0.56 25.64,0.45 C25.13,0.339 24.59,0.284 24.023,0.284 L19.697,0.284 L19.697,3.741 C19.662,3.64 19.626,3.541 19.585,3.442 C19.286,2.717 18.867,2.098 18.329,1.588 C17.792,1.078 17.156,0.685 16.418,0.411 C15.682,0.137 14.876,0 14.002,0 C13.128,0 12.324,0.137 11.586,0.411 C10.85,0.685 10.213,1.078 9.675,1.588 C9.194,2.045 8.808,2.59 8.518,3.222 C8.476,2.768 8.37,2.375 8.199,2.045 C7.973,1.608 7.666,1.261 7.283,1.002 C6.899,0.745 6.451,0.56 5.941,0.45 C5.43,0.339 4.891,0.284 4.323,0.284 L0,0.284 L0,11.461 L2.462,11.461 L2.462,6.993 L3.677,6.993 L6.014,11.461 L8.966,11.461 L6.126,6.741 C6.916,6.594 7.516,6.244 7.925,5.691 C7.944,5.665 7.96,5.638 7.979,5.612 C7.975,5.698 7.973,5.785 7.973,5.873 C7.973,6.767 8.124,7.578 8.423,8.304 C8.722,9.029 9.141,9.648 9.679,10.158 C10.215,10.668 10.852,11.061 11.59,11.335 C12.326,11.608 13.132,11.746 14.006,11.746 C14.88,11.746 15.684,11.608 16.422,11.335 C17.158,11.061 17.795,10.668 18.333,10.158 C18.869,9.648 19.288,9.029 19.589,8.304 C19.629,8.206 19.666,8.105 19.701,8.004 L19.701,11.461 L22.163,11.461 L22.163,6.993 L23.378,6.993 L25.715,11.461 L28.667,11.461 L25.824,6.741 z M5.786,4.373 C5.654,4.542 5.489,4.665 5.289,4.744 C5.089,4.823 4.865,4.87 4.619,4.885 C4.371,4.902 4.138,4.909 3.916,4.909 L2.463,4.909 L2.463,2.368 L4.074,2.368 C4.294,2.368 4.521,2.385 4.753,2.416 C4.984,2.447 5.19,2.508 5.368,2.598 C5.546,2.688 5.695,2.816 5.81,2.985 C5.926,3.154 5.985,3.38 5.985,3.664 C5.985,3.967 5.919,4.204 5.786,4.373 z M17.233,7.318 C17.07,7.755 16.837,8.133 16.53,8.454 C16.225,8.776 15.86,9.025 15.432,9.205 C15.006,9.385 14.529,9.473 14.004,9.473 C13.477,9.473 13.002,9.383 12.576,9.205 C12.15,9.027 11.784,8.776 11.478,8.454 C11.173,8.133 10.938,7.755 10.775,7.318 C10.611,6.881 10.53,6.4 10.53,5.873 C10.53,5.357 10.611,4.878 10.775,4.435 C10.938,3.993 11.171,3.613 11.478,3.292 C11.783,2.97 12.148,2.721 12.576,2.541 C13.002,2.363 13.477,2.273 14.004,2.273 C14.531,2.273 15.006,2.363 15.432,2.541 C15.858,2.719 16.224,2.97 16.53,3.292 C16.835,3.613 17.07,3.995 17.233,4.435 C17.397,4.878 17.478,5.357 17.478,5.873 C17.478,6.4 17.397,6.881 17.233,7.318 z M25.484,4.373 C25.352,4.542 25.187,4.665 24.986,4.744 C24.786,4.823 24.562,4.87 24.316,4.885 C24.068,4.902 23.835,4.909 23.613,4.909 L22.161,4.909 L22.161,2.368 L23.771,2.368 C23.991,2.368 24.219,2.385 24.45,2.416 C24.682,2.447 24.887,2.508 25.065,2.598 C25.243,2.688 25.392,2.816 25.508,2.985 C25.624,3.154 25.682,3.38 25.682,3.664 C25.682,3.967 25.616,4.204 25.484,4.373 z" fill="#202826"/>
    <path d="M36.214,11.432 L39.015,7.144 L41.812,11.432 L36.214,11.432 z" fill="#53BAA1"/>
    <path d="M41.812,0.333 L39.012,4.62 L36.214,0.333 L41.812,0.333 z" fill="#53BAA1"/>
    <path d="M35.265,0.333 L32.465,4.62 L29.667,0.333 L35.265,0.333 z" fill="#53BAA1"/>
  </g>
</svg>
