<?xml version="1.0" encoding="UTF-8"?>
<!DOCTYPE svg PUBLIC "-//W3C//DTD SVG 1.1//EN" "http://www.w3.org/Graphics/SVG/1.1/DTD/svg11.dtd">
<svg version="1.1" xmlns="http://www.w3.org/2000/svg" xmlns:xlink="http://www.w3.org/1999/xlink" x="0" y="0" width="200" height="67.9" viewBox="0, 0, 200, 67.9">
  <g id="Layer_1">
    <g>
      <path d="M76.1,37.5 C75.7,34.9 73.2,32.9 70.3,32.9 C65.1,32.9 63.1,37.3 63.1,42 C63.1,46.4 65.1,50.9 70.3,50.9 C73.9,50.9 75.9,48.5 76.3,45 L82,45 C81.4,51.6 76.9,55.8 70.4,55.8 C62.2,55.8 57.4,49.7 57.4,42.1 C57.4,34.2 62.2,28.1 70.4,28.1 C76.2,28.1 81.1,31.5 81.8,37.6 L76.1,37.6 z" fill="#4F5858"/>
      <path d="M84,35.9 L89,35.9 L89,39.5 L89.1,39.5 C90.1,37.1 92.7,35.4 95.2,35.4 C95.6,35.4 96,35.5 96.3,35.6 L96.3,40.5 C95.8,40.4 95,40.3 94.4,40.3 C90.5,40.3 89.2,43.1 89.2,46.4 L89.2,55 L84,55 L84,35.9 z" fill="#4F5858"/>
      <path d="M106.4,35.4 C112.4,35.4 116.3,39.4 116.3,45.5 C116.3,51.6 112.4,55.6 106.4,55.6 C100.4,55.6 96.5,51.6 96.5,45.5 C96.5,39.4 100.4,35.4 106.4,35.4 z M106.4,51.6 C110,51.6 111.1,48.5 111.1,45.5 C111.1,42.4 110,39.4 106.4,39.4 C102.8,39.4 101.8,42.5 101.8,45.5 C101.8,48.6 102.8,51.6 106.4,51.6 z" fill="#4F5858"/>
      <path d="M122.4,48.9 C122.4,51.2 124.4,52.1 126.4,52.1 C127.9,52.1 129.8,51.5 129.8,49.7 C129.8,48.1 127.6,47.6 123.8,46.7 C120.8,46 117.7,45 117.7,41.6 C117.7,36.7 121.9,35.5 126,35.5 C130.2,35.5 134,36.9 134.4,41.6 L129.4,41.6 C129.3,39.6 127.7,39 125.8,39 C124.6,39 122.9,39.2 122.9,40.8 C122.9,42.7 125.9,42.9 128.9,43.7 C132,44.4 135,45.5 135,49.1 C135,54.1 130.6,55.8 126.3,55.8 C121.9,55.8 117.5,54.1 117.3,49.1 L122.4,49.1 z" fill="#4F5858"/>
      <path d="M141.6,48.9 C141.6,51.2 143.6,52.1 145.6,52.1 C147.1,52.1 149,51.5 149,49.7 C149,48.1 146.8,47.6 143,46.7 C140,46 136.9,45 136.9,41.6 C136.9,36.7 141.1,35.5 145.2,35.5 C149.4,35.5 153.2,36.9 153.6,41.6 L148.6,41.6 C148.5,39.6 146.9,39 145,39 C143.8,39 142.1,39.2 142.1,40.8 C142.1,42.7 145.1,42.9 148.1,43.7 C151.2,44.4 154.2,45.5 154.2,49.1 C154.2,54.1 149.8,55.8 145.5,55.8 C141.1,55.8 136.7,54.1 136.5,49.1 L141.6,49.1 z" fill="#4F5858"/>
      <path d="M156.1,35.9 L161.1,35.9 L161.1,39.5 L161.2,39.5 C162.2,37.1 164.8,35.4 167.3,35.4 C167.7,35.4 168.1,35.5 168.4,35.6 L168.4,40.5 C167.9,40.4 167.1,40.3 166.5,40.3 C162.6,40.3 161.3,43.1 161.3,46.4 L161.3,55 L156,55 L156,35.9 z" fill="#4F5858"/>
      <path d="M174.2,46.8 C174.3,50.1 176,51.7 178.9,51.7 C181,51.7 182.7,50.4 183,49.2 L187.6,49.2 C186.1,53.7 183,55.6 178.6,55.6 C172.6,55.6 168.8,51.5 168.8,45.5 C168.8,39.8 172.8,35.4 178.6,35.4 C185.1,35.4 188.3,40.9 187.9,46.8 L174.2,46.8 z M182.7,43.5 C182.2,40.8 181.1,39.4 178.5,39.4 C175.2,39.4 174.2,42 174.1,43.5 L182.7,43.5 z" fill="#4F5858"/>
      <path d="M190.9,39.5 L187.8,39.5 L187.8,36 L190.9,36 L190.9,34.5 C190.9,31.1 193,28.7 197.3,28.7 C198.2,28.7 199.2,28.8 200.1,28.8 L200.1,32.7 C199.5,32.6 198.8,32.6 198.2,32.6 C196.8,32.6 196.2,33.2 196.2,34.8 L196.2,35.9 L199.8,35.9 L199.8,39.4 L196.2,39.4 L196.2,55 L190.9,55 L190.9,39.5 z" fill="#4F5858"/>
    </g>
    <path d="M0,67.9 L0,47.4 L16.8,41.9 L46.6,52.1 z" fill="#3EB1C8"/>
    <path d="M29.8,26.1 L0,36.4 L16.8,41.9 L46.6,31.7 z" fill="#D8D2C4"/>
    <path d="M16.8,41.9 L46.6,31.7 L46.6,52.1 z" fill="#4F5858"/>
    <path d="M46.6,0.2 L46.6,20.6 L29.8,26.1 L0,15.9 z" fill="#FFC72C"/>
    <path d="M29.8,26.1 L0,36.4 L0,15.9 z" fill="#EF3340"/>
  </g>
</svg>
